<?xml version="1.0" encoding="UTF-8" standalone="no"?>
<svg
   version="1.1"
   width="256"
   height="256"
   viewBox="0 0 256 256"
   xml:space="preserve"
   id="svg3"
   sodipodi:docname="amazon.us.svg"
   inkscape:version="1.4 (e7c3feb1, 2024-10-09)"
   xmlns:inkscape="http://www.inkscape.org/namespaces/inkscape"
   xmlns:sodipodi="http://sodipodi.sourceforge.net/DTD/sodipodi-0.dtd"
   xmlns="http://www.w3.org/2000/svg"
   xmlns:svg="http://www.w3.org/2000/svg"><defs
   id="defs3" /><sodipodi:namedview
   id="namedview3"
   pagecolor="#ffffff"
   bordercolor="#000000"
   borderopacity="0.25"
   inkscape:showpageshadow="2"
   inkscape:pageopacity="0.0"
   inkscape:pagecheckerboard="0"
   inkscape:deskcolor="#d1d1d1"
   inkscape:zoom="1.1777142"
   inkscape:cx="130.76178"
   inkscape:cy="169.39594"
   inkscape:window-width="1680"
   inkscape:window-height="912"
   inkscape:window-x="0"
   inkscape:window-y="25"
   inkscape:window-maximized="1"
   inkscape:current-layer="svg3" />
<rect
   style="fill:#223fa1;stroke:none;stroke-width:451.662;stroke-dashoffset:7999.98;fill-opacity:1"
   id="rect3-5"
   width="256"
   height="128"
   x="0"
   y="0" />
<rect
   style="fill:#bb133e;stroke:none;stroke-width:184.393;stroke-dashoffset:7999.98;fill-opacity:1"
   id="rect6"
   width="256"
   height="21.334"
   x="0"
   y="149.334" /><rect
   style="fill:#bb133e;stroke:none;stroke-width:184.393;stroke-dashoffset:7999.98;fill-opacity:1"
   id="rect7"
   width="256"
   height="21.334"
   x="4.4103945e-06"
   y="192.002" /><rect
   style="fill:#bb133e;stroke:none;stroke-width:184.393;stroke-dashoffset:7999.98;fill-opacity:1"
   id="rect8"
   width="256"
   height="21.334"
   x="4.4103945e-06"
   y="234.67" /><g
   style="opacity:1;fill:none;fill-rule:nonzero;stroke:none;stroke-width:0;stroke-linecap:butt;stroke-linejoin:miter;stroke-miterlimit:10;stroke-dasharray:none"
   transform="matrix(2.81,0,0,2.81,1.551405,1.55281)"
   id="g3">
	
	<path
   d="m 12.618,59.142 c 0.197,-0.315 0.512,-0.335 0.945,-0.059 9.848,5.712 20.564,8.568 32.145,8.568 7.721,0 15.344,-1.438 22.868,-4.314 0.197,-0.079 0.483,-0.197 0.857,-0.355 0.374,-0.158 0.64,-0.276 0.798,-0.355 0.591,-0.236 1.054,-0.118 1.389,0.355 0.335,0.473 0.226,0.906 -0.325,1.3 -0.709,0.512 -1.615,1.103 -2.718,1.773 -3.388,2.009 -7.17,3.565 -11.345,4.668 -4.176,1.103 -8.253,1.655 -12.232,1.655 -6.145,0 -11.956,-1.074 -17.432,-3.22 -5.476,-2.147 -10.38,-5.17 -14.714,-9.07 -0.236,-0.197 -0.355,-0.394 -0.355,-0.591 10e-4,-0.118 0.04,-0.236 0.119,-0.355 z"
   style="opacity:1;fill:#000000;fill-rule:nonzero;stroke:none;stroke-width:1;stroke-linecap:butt;stroke-linejoin:miter;stroke-miterlimit:10;stroke-dasharray:none"
   stroke-linecap="round"
   id="path1" />
	<path
   d="m 65.386,60.147 c 0.079,-0.158 0.197,-0.315 0.355,-0.473 0.985,-0.67 1.93,-1.123 2.836,-1.359 1.497,-0.394 2.955,-0.611 4.373,-0.65 0.394,-0.039 0.768,-0.02 1.123,0.059 1.773,0.158 2.836,0.453 3.191,0.886 0.158,0.236 0.236,0.591 0.236,1.064 v 0.414 c 0,1.379 -0.374,3.004 -1.123,4.875 -0.749,1.871 -1.792,3.378 -3.132,4.52 -0.197,0.158 -0.374,0.236 -0.532,0.236 -0.079,0 -0.158,-0.02 -0.236,-0.059 -0.236,-0.118 -0.295,-0.335 -0.177,-0.65 1.458,-3.427 2.186,-5.811 2.186,-7.15 0,-0.433 -0.079,-0.749 -0.236,-0.945 -0.394,-0.473 -1.497,-0.709 -3.309,-0.709 -0.67,0 -1.458,0.039 -2.364,0.118 -0.985,0.118 -1.891,0.236 -2.718,0.355 -0.236,0 -0.394,-0.039 -0.473,-0.118 -0.079,-0.079 -0.099,-0.158 -0.059,-0.236 0,-0.04 0.02,-0.099 0.059,-0.178 z"
   style="opacity:1;fill:#000000;fill-rule:nonzero;stroke:none;stroke-width:1;stroke-linecap:butt;stroke-linejoin:miter;stroke-miterlimit:10;stroke-dasharray:none"
   stroke-linecap="round"
   id="path2" />
	<path
   d="m 30.405,46.635 c 0,-2.718 0.67,-5.042 2.009,-6.973 1.339,-1.93 3.171,-3.388 5.495,-4.373 2.127,-0.906 4.747,-1.556 7.859,-1.95 1.064,-0.118 2.797,-0.276 5.2,-0.473 v -1.005 c 0,-2.521 -0.276,-4.215 -0.827,-5.082 -0.827,-1.182 -2.127,-1.773 -3.9,-1.773 h -0.473 c -1.3,0.118 -2.423,0.532 -3.368,1.241 -0.945,0.709 -1.556,1.694 -1.832,2.955 -0.158,0.788 -0.552,1.241 -1.182,1.359 l -6.795,-0.827 c -0.67,-0.158 -1.005,-0.512 -1.005,-1.064 0,-0.118 0.02,-0.256 0.059,-0.414 0.67,-3.506 2.314,-6.106 4.934,-7.8 2.62,-1.694 5.683,-2.639 9.189,-2.836 h 1.477 c 4.491,0 7.997,1.162 10.518,3.486 0.395,0.396 0.761,0.82 1.093,1.27 0.335,0.453 0.601,0.857 0.798,1.211 0.197,0.355 0.374,0.867 0.532,1.536 0.158,0.67 0.276,1.133 0.355,1.389 0.079,0.256 0.138,0.808 0.177,1.655 0.039,0.847 0.059,1.349 0.059,1.507 v 14.3 c 0,1.024 0.148,1.96 0.443,2.807 0.295,0.847 0.581,1.458 0.857,1.832 0.276,0.374 0.729,0.975 1.359,1.802 0.236,0.355 0.355,0.67 0.355,0.945 0,0.315 -0.158,0.591 -0.473,0.827 -3.27,2.836 -5.042,4.373 -5.318,4.609 -0.473,0.355 -1.044,0.394 -1.714,0.118 -0.552,-0.473 -1.034,-0.926 -1.448,-1.359 -0.414,-0.433 -0.709,-0.749 -0.886,-0.945 -0.177,-0.196 -0.463,-0.581 -0.857,-1.152 -0.394,-0.571 -0.67,-0.955 -0.827,-1.152 -2.206,2.403 -4.373,3.9 -6.5,4.491 -1.339,0.394 -2.994,0.591 -4.964,0.591 -3.033,0 -5.525,-0.936 -7.475,-2.807 -1.95,-1.871 -2.924,-4.519 -2.924,-7.946 z m 10.163,-1.182 c 0,1.536 0.384,2.767 1.152,3.693 0.768,0.926 1.802,1.389 3.102,1.389 0.118,0 0.286,-0.02 0.502,-0.059 0.217,-0.039 0.364,-0.059 0.443,-0.059 1.655,-0.433 2.935,-1.497 3.841,-3.191 0.433,-0.749 0.758,-1.566 0.975,-2.452 0.217,-0.886 0.335,-1.605 0.355,-2.157 0.02,-0.551 0.03,-1.458 0.03,-2.718 v -1.477 c -2.285,0 -4.018,0.158 -5.2,0.473 -3.467,0.984 -5.2,3.17 -5.2,6.558 z"
   style="opacity:1;fill:#000000;fill-rule:nonzero;stroke:none;stroke-width:1;stroke-linecap:butt;stroke-linejoin:miter;stroke-miterlimit:10;stroke-dasharray:none"
   stroke-linecap="round"
   id="path3" />
</g></svg>
