<svg xmlns="http://www.w3.org/2000/svg" xmlns:xlink="http://www.w3.org/1999/xlink" version="1.1" width="256" height="256" viewBox="0 0 256 256" xml:space="preserve">
<g style="stroke: none; stroke-width: 0; stroke-dasharray: none; stroke-linecap: butt; stroke-linejoin: miter; stroke-miterlimit: 10; fill: none; fill-rule: nonzero; opacity: 1;" transform="translate(1.4065934065934016 1.4065934065934016) scale(2.81 2.81)">
	<rect x="0" y="0" rx="0" ry="0" width="90" height="90" style="stroke: none; stroke-width: 1; stroke-dasharray: none; stroke-linecap: butt; stroke-linejoin: miter; stroke-miterlimit: 10; fill: rgb(246,166,31); fill-rule: nonzero; opacity: 1;" transform=" matrix(1 0 0 1 0 0) "/>
	<path d="M 12.618 59.142 c 0.197 -0.315 0.512 -0.335 0.945 -0.059 c 9.848 5.712 20.564 8.568 32.145 8.568 c 7.721 0 15.344 -1.438 22.868 -4.314 c 0.197 -0.079 0.483 -0.197 0.857 -0.355 c 0.374 -0.158 0.64 -0.276 0.798 -0.355 c 0.591 -0.236 1.054 -0.118 1.389 0.355 c 0.335 0.473 0.226 0.906 -0.325 1.3 c -0.709 0.512 -1.615 1.103 -2.718 1.773 c -3.388 2.009 -7.17 3.565 -11.345 4.668 c -4.176 1.103 -8.253 1.655 -12.232 1.655 c -6.145 0 -11.956 -1.074 -17.432 -3.22 c -5.476 -2.147 -10.38 -5.17 -14.714 -9.07 c -0.236 -0.197 -0.355 -0.394 -0.355 -0.591 C 12.5 59.379 12.539 59.261 12.618 59.142 z" style="stroke: none; stroke-width: 1; stroke-dasharray: none; stroke-linecap: butt; stroke-linejoin: miter; stroke-miterlimit: 10; fill: rgb(0,0,0); fill-rule: nonzero; opacity: 1;" transform=" matrix(1 0 0 1 0 0) " stroke-linecap="round"/>
	<path d="M 65.386 60.147 c 0.079 -0.158 0.197 -0.315 0.355 -0.473 c 0.985 -0.67 1.93 -1.123 2.836 -1.359 c 1.497 -0.394 2.955 -0.611 4.373 -0.65 c 0.394 -0.039 0.768 -0.02 1.123 0.059 c 1.773 0.158 2.836 0.453 3.191 0.886 c 0.158 0.236 0.236 0.591 0.236 1.064 v 0.414 c 0 1.379 -0.374 3.004 -1.123 4.875 c -0.749 1.871 -1.792 3.378 -3.132 4.52 c -0.197 0.158 -0.374 0.236 -0.532 0.236 c -0.079 0 -0.158 -0.02 -0.236 -0.059 c -0.236 -0.118 -0.295 -0.335 -0.177 -0.65 c 1.458 -3.427 2.186 -5.811 2.186 -7.15 c 0 -0.433 -0.079 -0.749 -0.236 -0.945 c -0.394 -0.473 -1.497 -0.709 -3.309 -0.709 c -0.67 0 -1.458 0.039 -2.364 0.118 c -0.985 0.118 -1.891 0.236 -2.718 0.355 c -0.236 0 -0.394 -0.039 -0.473 -0.118 c -0.079 -0.079 -0.099 -0.158 -0.059 -0.236 C 65.327 60.285 65.347 60.226 65.386 60.147 z" style="stroke: none; stroke-width: 1; stroke-dasharray: none; stroke-linecap: butt; stroke-linejoin: miter; stroke-miterlimit: 10; fill: rgb(0,0,0); fill-rule: nonzero; opacity: 1;" transform=" matrix(1 0 0 1 0 0) " stroke-linecap="round"/>
	<path d="M 30.405 46.635 c 0 -2.718 0.67 -5.042 2.009 -6.973 c 1.339 -1.93 3.171 -3.388 5.495 -4.373 c 2.127 -0.906 4.747 -1.556 7.859 -1.95 c 1.064 -0.118 2.797 -0.276 5.2 -0.473 v -1.005 c 0 -2.521 -0.276 -4.215 -0.827 -5.082 c -0.827 -1.182 -2.127 -1.773 -3.9 -1.773 h -0.473 c -1.3 0.118 -2.423 0.532 -3.368 1.241 c -0.945 0.709 -1.556 1.694 -1.832 2.955 c -0.158 0.788 -0.552 1.241 -1.182 1.359 l -6.795 -0.827 c -0.67 -0.158 -1.005 -0.512 -1.005 -1.064 c 0 -0.118 0.02 -0.256 0.059 -0.414 c 0.67 -3.506 2.314 -6.106 4.934 -7.8 c 2.62 -1.694 5.683 -2.639 9.189 -2.836 h 1.477 c 4.491 0 7.997 1.162 10.518 3.486 c 0.395 0.396 0.761 0.82 1.093 1.27 c 0.335 0.453 0.601 0.857 0.798 1.211 c 0.197 0.355 0.374 0.867 0.532 1.536 c 0.158 0.67 0.276 1.133 0.355 1.389 c 0.079 0.256 0.138 0.808 0.177 1.655 c 0.039 0.847 0.059 1.349 0.059 1.507 v 14.3 c 0 1.024 0.148 1.96 0.443 2.807 c 0.295 0.847 0.581 1.458 0.857 1.832 c 0.276 0.374 0.729 0.975 1.359 1.802 c 0.236 0.355 0.355 0.67 0.355 0.945 c 0 0.315 -0.158 0.591 -0.473 0.827 c -3.27 2.836 -5.042 4.373 -5.318 4.609 c -0.473 0.355 -1.044 0.394 -1.714 0.118 c -0.552 -0.473 -1.034 -0.926 -1.448 -1.359 c -0.414 -0.433 -0.709 -0.749 -0.886 -0.945 s -0.463 -0.581 -0.857 -1.152 c -0.394 -0.571 -0.67 -0.955 -0.827 -1.152 c -2.206 2.403 -4.373 3.9 -6.5 4.491 c -1.339 0.394 -2.994 0.591 -4.964 0.591 c -3.033 0 -5.525 -0.936 -7.475 -2.807 S 30.405 50.062 30.405 46.635 z M 40.568 45.453 c 0 1.536 0.384 2.767 1.152 3.693 c 0.768 0.926 1.802 1.389 3.102 1.389 c 0.118 0 0.286 -0.02 0.502 -0.059 c 0.217 -0.039 0.364 -0.059 0.443 -0.059 c 1.655 -0.433 2.935 -1.497 3.841 -3.191 c 0.433 -0.749 0.758 -1.566 0.975 -2.452 c 0.217 -0.886 0.335 -1.605 0.355 -2.157 c 0.02 -0.551 0.03 -1.458 0.03 -2.718 v -1.477 c -2.285 0 -4.018 0.158 -5.2 0.473 C 42.301 39.879 40.568 42.065 40.568 45.453 z" style="stroke: none; stroke-width: 1; stroke-dasharray: none; stroke-linecap: butt; stroke-linejoin: miter; stroke-miterlimit: 10; fill: rgb(0,0,0); fill-rule: nonzero; opacity: 1;" transform=" matrix(1 0 0 1 0 0) " stroke-linecap="round"/>
</g>
</svg>