<?xml version="1.0" encoding="UTF-8" standalone="no"?>
<svg
   width="155.56451"
   height="195.38969"
   viewBox="0 0 155.56451 195.38969"
   fill="none"
   version="1.1"
   id="svg12"
   sodipodi:docname="firebase.svg"
   inkscape:version="1.4 (e7c3feb1, 2024-10-09)"
   xmlns:inkscape="http://www.inkscape.org/namespaces/inkscape"
   xmlns:sodipodi="http://sodipodi.sourceforge.net/DTD/sodipodi-0.dtd"
   xmlns="http://www.w3.org/2000/svg"
   xmlns:svg="http://www.w3.org/2000/svg">
  <defs
     id="defs12" />
  <sodipodi:namedview
     id="namedview12"
     pagecolor="#ffffff"
     bordercolor="#000000"
     borderopacity="0.25"
     inkscape:showpageshadow="2"
     inkscape:pageopacity="0.0"
     inkscape:pagecheckerboard="0"
     inkscape:deskcolor="#d1d1d1"
     inkscape:zoom="1.6108258"
     inkscape:cx="87.532745"
     inkscape:cy="197.72468"
     inkscape:window-width="1680"
     inkscape:window-height="912"
     inkscape:window-x="0"
     inkscape:window-y="25"
     inkscape:window-maximized="1"
     inkscape:current-layer="svg12" />
  <path
     d="m 48.723797,189.77376 c 8.1756,3.29 17.0452,5.243 26.3582,5.568 12.6039,0.44 24.5893,-2.166 35.304303,-7.116 -12.849003,-5.048 -24.485703,-12.43 -34.417103,-21.609 -6.4377,10.308 -15.9594,18.449 -27.2454,23.157 z"
     fill="#ff9100"
     id="path9" />
  <path
     d="m 75.967397,166.61976 c -22.6705,-20.967 -36.4234,-51.314 -35.2611,-84.5992 0.0378,-1.0809 0.0948,-2.1611 0.1615,-3.241 -4.0602,-1.0501 -8.299,-1.6909 -12.6612,-1.8432 -6.244,-0.2181 -12.2908,0.5563 -17.9995,2.1639 -6.0517997,10.601 -9.70383975,22.7645 -10.15879975,35.7925 -1.17414995,33.624 19.17339975,63.003 48.67369975,74.884 11.286,-4.708 20.8074,-12.84 27.2454,-23.157 z"
     fill="#ffc400"
     id="path10" />
  <path
     d="m 75.968297,166.61876 c 5.2708,-8.435 8.4666,-18.324 8.8386,-28.978 0.9787,-28.026 -17.862,-52.1348 -43.9381,-58.8623 -0.0667,1.0799 -0.1238,2.1601 -0.1615,3.241 -1.1624,33.2853 12.5905,63.6323 35.261,84.5993 z"
     fill="#ff9100"
     id="path11" />
  <path
     d="m 81.890797,0 c -14.8513,11.89776 -26.5787,27.58596 -33.674,45.65836 -4.0622,10.3517 -6.6149,21.4711 -7.3602,33.127 26.0762,6.7275 44.9169,30.8364 43.9382,58.8624 -0.3721,10.654 -3.5772,20.533 -8.8386,28.978 9.9311,9.188 21.5681,16.561 34.417103,21.609 25.79,-11.921 44.088,-37.574 45.148,-67.916 0.686,-19.659 -6.867,-37.1796 -17.54,-51.9688 C 126.7103,52.70896 81.890797,0 81.890797,0 Z"
     fill="#dd2c00"
     id="path12" />
</svg>
