<?xml version="1.0" encoding="UTF-8" standalone="no"?>
<svg
   id="Capa_1"
   version="1.1"
   viewBox="0 0 89.974998 91.801743"
   xml:space="preserve"
   sodipodi:docname="google.svg"
   width="89.974998"
   height="91.801743"
   inkscape:version="1.4 (e7c3feb1, 2024-10-09)"
   xmlns:inkscape="http://www.inkscape.org/namespaces/inkscape"
   xmlns:sodipodi="http://sodipodi.sourceforge.net/DTD/sodipodi-0.dtd"
   xmlns="http://www.w3.org/2000/svg"
   xmlns:svg="http://www.w3.org/2000/svg"><defs
     id="defs4" /><sodipodi:namedview
     id="namedview4"
     pagecolor="#ffffff"
     bordercolor="#000000"
     borderopacity="0.25"
     inkscape:showpageshadow="2"
     inkscape:pageopacity="0.0"
     inkscape:pagecheckerboard="0"
     inkscape:deskcolor="#d1d1d1"
     inkscape:zoom="1.180879"
     inkscape:cx="-71.556867"
     inkscape:cy="-10.585335"
     inkscape:window-width="1680"
     inkscape:window-height="912"
     inkscape:window-x="0"
     inkscape:window-y="25"
     inkscape:window-maximized="1"
     inkscape:current-layer="Capa_1" /><style
     type="text/css"
     id="style1">
	.st0{fill:#1A73E8;}
	.st1{fill:#EA4335;}
	.st2{fill:#4285F4;}
	.st3{fill:#FBBC04;}
	.st4{fill:#34A853;}
	.st5{fill:#4CAF50;}
	.st6{fill:#1E88E5;}
	.st7{fill:#E53935;}
	.st8{fill:#C62828;}
	.st9{fill:#FBC02D;}
	.st10{fill:#1565C0;}
	.st11{fill:#2E7D32;}
	.st12{fill:#F6B704;}
	.st13{fill:#E54335;}
	.st14{fill:#4280EF;}
	.st15{fill:#34A353;}
	.st16{clip-path:url(#SVGID_2_);}
	.st17{fill:#188038;}
	.st18{opacity:0.2;fill:#FFFFFF;enable-background:new    ;}
	.st19{opacity:0.3;fill:#0D652D;enable-background:new    ;}
	.st20{clip-path:url(#SVGID_4_);}
	.st21{opacity:0.3;fill:url(#_45_shadow_1_);enable-background:new    ;}
	.st22{clip-path:url(#SVGID_6_);}
	.st23{fill:#FA7B17;}
	.st24{opacity:0.3;fill:#174EA6;enable-background:new    ;}
	.st25{opacity:0.3;fill:#A50E0E;enable-background:new    ;}
	.st26{opacity:0.3;fill:#E37400;enable-background:new    ;}
	.st27{fill:url(#Finish_mask_1_);}
	.st28{fill:#FFFFFF;}
	.st29{fill:#0C9D58;}
	.st30{opacity:0.2;fill:#004D40;enable-background:new    ;}
	.st31{opacity:0.2;fill:#3E2723;enable-background:new    ;}
	.st32{fill:#FFC107;}
	.st33{opacity:0.2;fill:#1A237E;enable-background:new    ;}
	.st34{opacity:0.2;}
	.st35{fill:#1A237E;}
	.st36{fill:url(#SVGID_7_);}
	.st37{fill:#FBBC05;}
	.st38{clip-path:url(#SVGID_9_);fill:#E53935;}
	.st39{clip-path:url(#SVGID_11_);fill:#FBC02D;}
	.st40{clip-path:url(#SVGID_13_);fill:#E53935;}
	.st41{clip-path:url(#SVGID_15_);fill:#FBC02D;}
</style><g
     id="g4"
     transform="translate(-30.025,-29.098255)"><path
       class="st14"
       d="m 120,76.1 c 0,-3.1 -0.3,-6.3 -0.8,-9.3 H 75.9 v 17.7 h 24.8 c -1,5.7 -4.3,10.7 -9.2,13.9 l 14.8,11.5 C 115,101.8 120,90 120,76.1 Z"
       id="path1" /><path
       class="st15"
       d="m 75.9,120.9 c 12.4,0 22.8,-4.1 30.4,-11.1 L 91.5,98.4 c -4.1,2.8 -9.4,4.4 -15.6,4.4 -12,0 -22.1,-8.1 -25.8,-18.9 L 34.9,95.6 c 7.8,15.5 23.6,25.3 41,25.3 z"
       id="path2" /><path
       class="st12"
       d="m 50.1,83.8 c -1.9,-5.7 -1.9,-11.9 0,-17.6 L 34.9,54.4 c -6.5,13 -6.5,28.3 0,41.2 z"
       id="path3" /><path
       class="st13"
       d="m 75.9,47.3 c 6.5,-0.1 12.9,2.4 17.6,6.9 L 106.6,41 C 98.3,33.2 87.3,29 75.9,29.1 c -17.4,0 -33.2,9.8 -41,25.3 L 50.1,66.2 C 53.8,55.3 63.9,47.3 75.9,47.3 Z"
       id="path4" /></g></svg>
