<?xml version="1.0" encoding="UTF-8" standalone="no"?>
<!-- Created with Inkscape (http://www.inkscape.org/) -->

<svg
   width="1920"
   height="1080"
   viewBox="0 0 1920 1080"
   version="1.1"
   id="svg1"
   inkscape:version="1.4 (e7c3feb1, 2024-10-09)"
   sodipodi:docname="nomination.svg"
   xmlns:inkscape="http://www.inkscape.org/namespaces/inkscape"
   xmlns:sodipodi="http://sodipodi.sourceforge.net/DTD/sodipodi-0.dtd"
   xmlns="http://www.w3.org/2000/svg"
   xmlns:svg="http://www.w3.org/2000/svg">
  <sodipodi:namedview
     id="namedview1"
     pagecolor="#ffffff"
     bordercolor="#000000"
     borderopacity="0.25"
     inkscape:showpageshadow="2"
     inkscape:pageopacity="0.0"
     inkscape:pagecheckerboard="0"
     inkscape:deskcolor="#d1d1d1"
     inkscape:document-units="px"
     inkscape:zoom="0.28200214"
     inkscape:cx="702.12234"
     inkscape:cy="774.81683"
     inkscape:window-width="1680"
     inkscape:window-height="912"
     inkscape:window-x="0"
     inkscape:window-y="25"
     inkscape:window-maximized="1"
     inkscape:current-layer="layer1" />
  <defs
     id="defs1" />
  <g
     inkscape:label="Layer 1"
     inkscape:groupmode="layer"
     id="layer1">
    <rect
       style="fill:#004225;stroke:none;stroke-width:50;stroke-dasharray:none;stroke-opacity:1;paint-order:stroke fill markers;fill-opacity:1"
       id="rect3"
       width="1920"
       height="1080"
       x="0"
       y="0" />
    <g
       id="g1"
       transform="matrix(1.9735792,-0.71254042,0,1.9735792,-619.68198,-63.614955)"
       style="stroke:none">
      <path
         id="rect1"
         style="fill:#dc0000;fill-opacity:1;stroke:none;stroke-width:7.5;paint-order:stroke fill markers"
         d="m 545.34888,550.50958 h 510.13182 v 88.63934 H 545.34888 Z" />
      <path
         d="m 600.40202,619.66077 v -49.663 h 11.90551 l 12.85796,38.4378 q -0.2041,-2.51717 -0.47622,-5.78268 -0.27213,-3.33354 -0.47622,-6.59905 -0.13607,-3.33355 -0.13607,-5.64662 v -20.40945 h 8.98016 v 49.663 h -11.90551 l -12.72189,-38.4378 q 0.20409,2.17701 0.40819,5.17039 0.20409,2.99339 0.34015,6.05481 0.2041,3.06141 0.2041,5.44252 v 21.77008 z m 57.14649,0.68031 q -4.9663,0 -8.64,-1.83685 -3.6737,-1.90488 -5.71465,-5.23842 -1.97291,-3.40158 -1.97291,-7.89166 v -21.08976 q 0,-4.49008 1.97291,-7.82363 2.04095,-3.40157 5.71465,-5.23842 3.6737,-1.90488 8.64,-1.90488 5.03433,0 8.64,1.90488 3.6737,1.83685 5.64661,5.23842 2.04095,3.33355 2.04095,7.82363 v 21.08976 q 0,4.49008 -2.04095,7.89166 -1.97291,3.33354 -5.64661,5.23842 -3.60567,1.83685 -8.64,1.83685 z m 0,-8.84409 q 3.06142,0 4.55811,-1.56473 1.56472,-1.63275 1.56472,-4.55811 v -21.08976 q 0,-2.99339 -1.49669,-4.55811 -1.49669,-1.56473 -4.62614,-1.56473 -3.12945,0 -4.62614,1.56473 -1.4967,1.56472 -1.4967,4.55811 v 21.08976 q 0,2.92536 1.4967,4.55811 1.56472,1.56473 4.62614,1.56473 z m 23.2668,8.16378 v -49.663 h 11.49732 l 4.55811,15.64725 q 0.74835,2.44913 1.08851,4.28598 0.40819,1.83685 0.47622,2.5852 0.068,-0.74835 0.40819,-2.5852 0.40818,-1.83685 1.0885,-4.28598 l 4.49008,-15.64725 h 11.49732 v 49.663 h -9.32031 v -13.6063 q 0,-3.74174 0.13606,-7.82363 0.20409,-4.14992 0.47622,-8.23181 0.27213,-4.08189 0.61228,-7.61953 0.34016,-3.60567 0.61229,-6.25889 l -5.71465,22.45039 h -8.64 l -5.98677,-22.45039 q 0.34016,2.51716 0.68031,6.0548 0.34016,3.46961 0.61229,7.5515 0.34015,4.01385 0.54425,8.23181 0.20409,4.21795 0.20409,8.09575 v 13.6063 z m 43.40413,0 v -8.8441 h 9.86456 v -31.9748 h -9.86456 v -8.8441 h 29.93386 v 8.8441 h -9.86457 v 31.9748 h 9.86457 v 8.8441 z m 39.45829,0 v -49.663 h 11.90551 l 12.85796,38.4378 q -0.2041,-2.51717 -0.47622,-5.78268 -0.27213,-3.33354 -0.47622,-6.59905 -0.13607,-3.33355 -0.13607,-5.64662 v -20.40945 h 8.98016 v 49.663 h -11.90551 l -12.72189,-38.4378 q 0.20409,2.17701 0.40819,5.17039 0.20409,2.99339 0.34015,6.05481 0.2041,3.06141 0.2041,5.44252 v 21.77008 z m 38.43782,0 12.17764,-49.663 h 12.92599 l 12.3137,49.663 h -10.40882 l -2.3811,-11.2252 h -11.83749 l -2.3811,11.2252 z m 14.49071,-19.38898 h 8.36788 l -2.38111,-11.97355 q -0.47622,-2.58519 -1.02047,-5.10236 -0.47622,-2.5852 -0.74835,-4.01386 -0.27212,1.42866 -0.74834,3.94583 -0.40819,2.51717 -0.95244,5.10236 z m 39.93453,19.38898 v -40.13859 h -12.58583 v -9.52441 h 35.37638 v 9.52441 h -12.58582 v 40.13859 z m 30.95434,0 v -8.8441 h 9.86457 v -31.9748 h -9.86457 v -8.8441 h 29.93386 v 8.8441 h -9.86456 v 31.9748 h 9.86456 v 8.8441 z m 55.78587,0.68031 q -4.9663,0 -8.64,-1.83685 -3.6737,-1.90488 -5.71464,-5.23842 -1.97292,-3.40158 -1.97292,-7.89166 v -21.08976 q 0,-4.49008 1.97292,-7.82363 2.04094,-3.40157 5.71464,-5.23842 3.6737,-1.90488 8.64,-1.90488 5.03433,0 8.64,1.90488 3.6737,1.83685 5.64662,5.23842 2.04094,3.33355 2.04094,7.82363 v 21.08976 q 0,4.49008 -2.04094,7.89166 -1.97292,3.33354 -5.64662,5.23842 -3.60567,1.83685 -8.64,1.83685 z m 0,-8.84409 q 3.06142,0 4.55811,-1.56473 1.56473,-1.63275 1.56473,-4.55811 v -21.08976 q 0,-2.99339 -1.4967,-4.55811 -1.49669,-1.56473 -4.62614,-1.56473 -3.12945,0 -4.62614,1.56473 -1.49669,1.56472 -1.49669,4.55811 v 21.08976 q 0,2.92536 1.49669,4.55811 1.56472,1.56473 4.62614,1.56473 z m 24.49138,8.16378 v -49.663 h 11.90551 l 12.85796,38.4378 q -0.2041,-2.51717 -0.47622,-5.78268 -0.27213,-3.33354 -0.47622,-6.59905 -0.13607,-3.33355 -0.13607,-5.64662 v -20.40945 h 8.98016 v 49.663 h -11.90551 l -12.72189,-38.4378 q 0.20409,2.17701 0.40819,5.17039 0.20409,2.99339 0.34015,6.05481 0.2041,3.06141 0.2041,5.44252 v 21.77008 z"
         id="text1"
         style="font-weight:800;font-size:68.0315px;line-height:0.8;font-family:'JetBrains Mono';-inkscape-font-specification:'JetBrains Mono Ultra-Bold';letter-spacing:0px;fill:#ffffff;stroke:none;stroke-width:7.5;paint-order:stroke fill markers"
         aria-label="NOMINATION" />
    </g>
    <path
       id="path1"
       style="fill:#dc0000;fill-opacity:1;stroke:#000000;stroke-width:50;stroke-dasharray:none;stroke-opacity:1;paint-order:normal;stroke-linejoin:miter;stroke-linecap:butt"
       d="M 960 130.34766 C 740.87188 130.34766 561.0711 303.84825 550.8418 520.51758 L 654.24609 483.18359 C 680.78763 338.19729 807.09386 229.02539 960 229.02539 C 1035.9566 229.02539 1105.3445 255.98393 1159.2227 300.86719 L 1261.8555 263.8125 C 1186.8842 181.93556 1079.3419 130.34766 960 130.34766 z M 1369.1562 559.48438 L 1265.7539 596.81641 C 1239.2123 741.80256 1112.906 850.97461 960 850.97461 C 884.0439 850.97461 814.65539 824.01554 760.77734 779.13281 L 658.14453 816.1875 C 733.11579 898.06443 840.65815 949.65234 960 949.65234 C 1179.1274 949.65234 1358.926 776.15281 1369.1562 559.48438 z " />
  </g>
</svg>
