<?xml version="1.0" standalone="no"?>
<!DOCTYPE svg PUBLIC "-//W3C//DTD SVG 20010904//EN"
 "http://www.w3.org/TR/2001/REC-SVG-20010904/DTD/svg10.dtd">
<svg version="1.0" xmlns="http://www.w3.org/2000/svg"
 width="700.000000pt" height="700.000000pt" viewBox="0 0 700.000000 700.000000"
 preserveAspectRatio="xMidYMid meet">
<metadata>
Created by potrace 1.14, written by Peter Selinger 2001-2017
</metadata>
<g transform="translate(0.000000,700.000000) scale(0.100000,-0.100000)"
fill="#000000" stroke="none">
<path d="M0 6100 l0 -900 850 -850 850 -850 -850 -850 -850 -850 0 -900 0
-900 900 0 900 0 1745 1745 c960 960 1745 1749 1745 1755 0 6 -785 795 -1745
1755 l-1745 1745 -900 0 -900 0 0 -900z"/>
<path d="M4798 6599 l-398 -399 895 -895 c492 -492 899 -895 905 -895 6 0 188
178 405 395 l395 395 0 900 0 900 -902 -1 -903 -1 -397 -399z"/>
<path d="M5303 1704 c-491 -492 -893 -898 -893 -904 0 -6 178 -188 395 -405
l395 -395 900 0 900 0 0 900 0 900 -400 400 c-220 220 -401 400 -403 399 -1 0
-404 -403 -894 -895z"/>
</g>
</svg>
