<?xml version="1.0" encoding="UTF-8" standalone="no"?>
<!-- Created with Inkscape (http://www.inkscape.org/) -->

<svg
   version="1.1"
   id="svg1"
   width="204.63028"
   height="253.33333"
   viewBox="0 0 204.63028 253.33333"
   xmlns="http://www.w3.org/2000/svg"
   xmlns:svg="http://www.w3.org/2000/svg">
  <defs
     id="defs1" />
  <g
     id="g1"
     transform="translate(-331.02622,-300.00001)">
    <path
       id="path2"
       d="m 520.58132,437.02667 c -0.26667,0.06 -0.53067,0.12533 -0.79733,0.17733 -2.616,0.50934 -5.37867,0.416 -8.02667,0.34667 -2.14267,-0.0507 -4.26133,-0.18933 -6.39067,0.0333 0.17334,-0.0853 0.352,-0.17866 0.52934,-0.272 5.37333,-2.688 10.984,-4.89333 16.61733,-7.01333 3.18933,-1.204 6.428,-2.352 9.51333,-3.77333 0.04,0.0453 0.0827,0.0933 0.12,0.14133 -3.256,3.836 -7.56666,7.09333 -11.56533,10.36 z m -3.27067,2.76 c -1.044,0.93467 -2.08533,1.868 -3.124,2.80267 -1.64533,0.86133 -3.34266,1.61333 -5.09333,2.168 -3.54,1.116 -7.29467,1.25866 -10.94667,1.848 -3.15066,0.51466 -6.54,1.34266 -9.3,2.988 0.692,-0.788 1.41867,-1.544 2.16267,-2.268 0.77333,-0.74934 1.58133,-1.468 2.41867,-2.16267 0.296,0.003 0.59066,-0.13867 0.73066,-0.49467 0.024,-0.0467 0.04,-0.0947 0.0627,-0.14533 2.61733,-2.07467 5.476,-3.87733 8.41867,-5.5 0.91866,-0.26667 1.86533,-0.45467 2.832,-0.56667 2.44933,-0.292 4.92533,-0.0453 7.384,-0.007 2.08666,0.0373 4.228,0.0453 6.304,-0.25467 -0.62934,0.52933 -1.24934,1.06133 -1.84934,1.592 z m -13.54533,12.388 c -4.70933,2.156 -9.896,3.07467 -14.71867,4.97333 -1.952,0.76534 -3.896,1.64534 -5.54266,2.93867 -0.356,0.27867 -0.68,0.58267 -0.98134,0.9 0.80934,-2.44133 1.808,-4.82933 3.12134,-7.05067 0.20533,-0.352 0.42533,-0.69466 0.64933,-1.04 2.888,-3.56666 8.1,-4.81866 12.61467,-5.51866 3.67866,-0.57067 7.396,-0.77467 10.95066,-1.94 0.7,-0.23334 1.392,-0.50534 2.072,-0.80534 -2.748,2.49334 -5.46933,5.00667 -8.16533,7.54267 z m -10.65467,10.348 c -0.59333,0.29333 -1.184,0.60133 -1.77333,0.908 -1.88133,0.972 -3.77067,1.86267 -5.74,2.66533 -1.9,0.77587 -3.84,1.6936 -5.24533,3.0904 0.408,-1.83426 0.84,-3.66373 1.34,-5.47573 0,-10e-4 0.003,-0.0107 0.003,-0.0107 1.592,-3.10133 4.99067,-4.72 8.30934,-5.97066 3.91866,-1.47867 8.05066,-2.368 11.956,-3.84267 -2.99067,2.84133 -5.94267,5.72267 -8.84934,8.636 z m -14.896,15.87053 c 0.648,-2.376 1.16934,-4.7812 1.69734,-7.19053 1.25066,-2.32813 4.06666,-3.49853 6.49866,-4.48133 1.64534,-0.66667 3.224,-1.476 4.804,-2.284 -4.46533,4.54386 -8.80933,9.184 -13,13.95586 z m -1.264,-6.52386 c -1.416,2.70253 -3.61733,4.79573 -6.25066,6.40413 -2.688,1.64107 -5.72933,2.64013 -8.65467,3.8068 -6.31466,2.51187 -12.604,5.24787 -18.16933,9.12907 -4.05333,2.82666 -7.6,6.26666 -10.53467,10.1532 -2.93733,-3.88654 -6.48666,-7.32654 -10.53466,-10.1532 -5.56667,-3.8812 -11.85334,-6.6172 -18.17067,-9.12907 -2.928,-1.16667 -5.96267,-2.16573 -8.656,-3.8068 -2.62933,-1.6084 -4.83067,-3.7016 -6.248,-6.40413 -0.0693,-0.12814 -0.15333,-0.248 -0.25067,-0.3496 -0.54,-2.45987 -1.06266,-4.9264 -1.70533,-7.35574 -0.0427,-0.17466 -0.0893,-0.34666 -0.13733,-0.516 0.65066,0.55467 1.35733,1.06134 2.10133,1.512 2.36667,1.436 4.90933,2.61347 7.452,3.73214 2.98133,1.312 6.00933,2.5412 8.904,4.0344 2.56133,1.32133 5.028,2.848 7.40667,4.45626 5.804,3.9276 11.15333,8.58907 15.26666,14.20267 1.71867,2.34107 3.196,4.85053 4.572,7.3984 1.37467,-2.54787 2.852,-5.05733 4.57067,-7.3984 4.116,-5.6136 9.46133,-10.27507 15.26667,-14.20267 2.37866,-1.60826 4.844,-3.13493 7.40933,-4.45626 2.89333,-1.4932 5.92,-2.7224 8.90266,-4.0344 2.53867,-1.11867 5.08667,-2.29614 7.45334,-3.73214 0.744,-0.45066 1.448,-0.95733 2.09733,-1.512 -0.044,0.16934 -0.0907,0.34134 -0.13733,0.516 -0.64267,2.42934 -1.16534,4.89587 -1.70267,7.35574 -0.0987,0.1016 -0.18267,0.22146 -0.25067,0.3496 z m -3.2,11.73066 c -0.34533,0.40934 -0.68533,0.8172 -1.024,1.23174 -0.244,0.12293 -0.47866,0.24426 -0.72533,0.36306 -0.81067,0.40107 -1.67867,0.53334 -2.556,0.7 0.72267,-1.676 1.49067,-3.32813 1.888,-5.1016 1.58267,-0.8916 3.072,-1.9172 4.412,-3.164 -0.54933,2.02547 -1.18933,4.01867 -1.99467,5.9708 z m -6.208,7.6932 c -1.37999,0.46414 -2.88933,0.59067 -4.39199,0.69067 -0.13067,0.0135 -0.264,0.0203 -0.396,0.0265 0.676,-0.75573 1.12,-1.64106 1.47866,-2.57186 1.51867,-1.28907 3.25733,-2.26147 5.25467,-2.65827 0.69333,-0.1376 1.35066,-0.24533 1.99866,-0.4428 -1.33466,1.6344 -2.648,3.28907 -3.944,4.95573 z m -2.75333,3.61614 c -1.14933,0.91986 -2.27866,1.8584 -3.40133,2.80266 -1.744,0.70934 -3.79467,0.80254 -5.69333,0.87347 -0.52934,0.0156 -1.06534,0.0343 -1.61067,0.0557 1.05733,-1.2532 1.87867,-2.60373 2.47067,-4.0584 0.084,0 0.17466,-0.0271 0.26133,-0.0869 2.04533,-1.43187 4.58667,-1.50373 7.00667,-1.67613 0.95333,-0.0667 1.908,-0.1692 2.82533,-0.36507 -0.62,0.812 -1.24267,1.6308 -1.85867,2.45467 z m -9.276,13.3828 c 0.15734,-1.41507 0.368,-2.82387 0.8,-4.19214 0.32,-0.25306 0.64,-0.50413 0.95467,-0.76253 1.20933,-0.99053 2.40533,-2 3.6,-3.01507 -1.83867,2.612 -3.62267,5.26667 -5.35467,7.96974 z m -1.05066,1.65573 c -0.0533,0.0871 -0.10534,0.16667 -0.15734,0.25373 -1.136,1.81814 -2.256,3.64787 -3.364,5.4848 0.0667,-0.5504 0.11734,-1.10933 0.14667,-1.66506 0.0813,-1.34427 0.0987,-2.69214 0.284,-4.03494 0.112,-0.8224 0.25867,-1.95986 0.788,-2.72906 0.992,-0.74534 1.98933,-1.488 2.97867,-2.24014 -0.36667,1.61614 -0.50267,3.28014 -0.676,4.93067 z m -3.82667,-1.02907 c -0.27467,1.252 -0.34,2.54374 -0.39467,3.81867 -0.0747,1.79853 -0.18533,3.6052 -0.73066,5.336 -0.24534,0.41453 -0.49467,0.83067 -0.74134,1.24787 -0.12266,0.0521 -0.24133,0.1412 -0.33733,0.27706 -2.03333,2.76827 -4.58933,5.00574 -7.31867,7.06307 1.236,-2.09893 2.364,-4.2536 3.17867,-6.54947 1.01733,-2.87186 1.132,-6.1172 2.728,-8.76933 0.41067,-0.35467 0.82533,-0.70147 1.23733,-1.04787 0.828,-0.68026 1.676,-1.34533 2.52667,-1.99746 -0.0547,0.20946 -0.10133,0.42146 -0.148,0.62146 z m -7.68,20.3452 c -2.69067,3.09747 -6.03067,5.5652 -9.61467,7.65213 -3.58666,-2.08693 -6.92533,-4.55466 -9.612,-7.65213 -0.732,-1.24786 -1.45866,-2.50826 -2.192,-3.75986 3.67867,3.17706 7.948,5.74533 11.804,8.73333 3.85467,-2.988 8.12667,-5.55627 11.80134,-8.73333 -0.72934,1.2516 -1.46,2.512 -2.18667,3.75986 z m -3.62133,6.20107 c -0.784,0.35733 -1.41734,0.95373 -2.064,1.53333 -1.02,0.91613 -2.21467,1.66147 -3.39067,2.37347 -0.18,0.1084 -0.35733,0.2136 -0.53867,0.31613 -0.18,-0.10253 -0.36133,-0.20773 -0.536,-0.31613 -1.17733,-0.712 -2.37466,-1.45734 -3.39466,-2.37347 -0.644,-0.5796 -1.28134,-1.176 -2.06534,-1.53333 -0.59333,-1.0104 -1.188,-2.0224 -1.77733,-3.0396 2.33733,2.12666 4.99067,3.9224 7.77333,5.51053 2.784,-1.58813 5.43334,-3.38387 7.772,-5.51053 -0.58933,1.0172 -1.18266,2.0292 -1.77866,3.0396 z m -2.66934,4.62293 c -0.58266,0.47707 -1.10666,1.01613 -1.67866,1.52133 -0.51334,0.45734 -1.07067,0.86774 -1.64534,1.26 -0.576,-0.39226 -1.132,-0.80266 -1.64933,-1.26 -0.564,-0.5052 -1.09067,-1.04426 -1.676,-1.52133 -0.53067,-0.9468 -1.06267,-1.8828 -1.60533,-2.81613 0.33333,0.31093 0.66,0.62973 0.996,0.8932 1.07466,0.8376 2.256,1.58186 3.444,2.2604 0.164,0.0917 0.32666,0.18133 0.49066,0.27186 0.164,-0.0905 0.32934,-0.18013 0.48934,-0.27186 1.19333,-0.67854 2.36533,-1.4228 3.44666,-2.2604 0.336,-0.26347 0.66267,-0.58227 0.996,-0.8932 -0.54266,0.93333 -1.07733,1.86933 -1.608,2.81613 z m -3.324,6.05987 c -0.67866,-1.22654 -1.34666,-2.45987 -2.01866,-3.6828 0.644,0.51773 1.32133,1.0068 2.01866,1.4656 0.696,-0.4588 1.37334,-0.94787 2.01867,-1.4656 -0.67067,1.22293 -1.344,2.45626 -2.01867,3.6828 z m -15.092,-26.54947 c -0.096,-0.13586 -0.21333,-0.22493 -0.336,-0.27706 -0.248,-0.4172 -0.496,-0.83334 -0.744,-1.24787 -0.54133,-1.7308 -0.65333,-3.53747 -0.73066,-5.336 -0.056,-1.27493 -0.116,-2.56667 -0.39467,-3.81867 -0.04,-0.2 -0.0907,-0.412 -0.15067,-0.62146 0.85734,0.65213 1.70134,1.3172 2.528,1.99746 0.416,0.3464 0.82934,0.6932 1.23734,1.04787 1.59733,2.65213 1.712,5.89747 2.73066,8.76933 0.81334,2.29587 1.94134,4.45054 3.18134,6.54947 -2.73067,-2.05733 -5.28534,-4.2948 -7.32134,-7.06307 z m -5.87333,-9.3968 c -0.0507,-0.0871 -0.104,-0.16666 -0.15467,-0.25373 -0.176,-1.65053 -0.31066,-3.31453 -0.67333,-4.93067 0.98267,0.75214 1.97867,1.4948 2.97333,2.24014 0.528,0.7692 0.67467,1.90666 0.788,2.72906 0.18534,1.3428 0.20267,2.69067 0.28134,4.03494 0.036,0.55573 0.0813,1.11466 0.152,1.66506 -1.108,-1.83693 -2.228,-3.66666 -3.36667,-5.4848 z m -6.55867,-9.8792 c 1.192,1.01507 2.384,2.02454 3.596,3.01507 0.316,0.2584 0.63467,0.50947 0.95334,0.76253 0.43333,1.36827 0.644,2.77707 0.80133,4.19214 -1.72933,-2.70307 -3.51467,-5.35774 -5.35067,-7.96974 z m -3.92933,-5.41306 c -0.612,-0.82387 -1.232,-1.64267 -1.856,-2.45467 0.92133,0.19587 1.876,0.2984 2.828,0.36507 2.42133,0.1724 4.96,0.24426 7.00267,1.67613 0.0893,0.0599 0.17866,0.0869 0.264,0.0869 0.592,1.45467 1.412,2.8052 2.47066,4.0584 -0.54,-0.0215 -1.08133,-0.0401 -1.612,-0.0557 -1.896,-0.0709 -3.948,-0.16413 -5.69066,-0.87347 -1.124,-0.94426 -2.25467,-1.8828 -3.40667,-2.80266 z m -6.692,-8.57187 c 0.64667,0.19747 1.30667,0.3052 1.99733,0.4428 1.99867,0.3968 3.73734,1.3692 5.25467,2.65827 0.356,0.9308 0.804,1.81613 1.48,2.57186 -0.13067,-0.006 -0.26533,-0.0131 -0.39867,-0.0265 -1.50133,-0.1 -3.01066,-0.22653 -4.39066,-0.69067 -1.29334,-1.66666 -2.61067,-3.32133 -3.94267,-4.95573 z m 6.344,0.3396 c 0.13467,0.40573 0.26133,0.81773 0.388,1.22813 -1.092,-0.77453 -2.3,-1.4 -3.604,-1.76666 -0.66,-1.57867 -1.42267,-3.12494 -1.892,-4.7692 1.21867,0.62546 2.48533,1.188 3.764,1.71346 0.13467,0.25574 0.25467,0.5172 0.35867,0.77707 0.376,0.9204 0.67466,1.8776 0.98533,2.8172 z m 8.14267,6.66307 c -1.38267,-0.75107 -2.92134,-1.05627 -4.49067,-1.21614 -0.0173,-0.0948 -0.064,-0.18653 -0.152,-0.2652 -0.76667,-0.65613 -1.28933,-1.51866 -1.68667,-2.4572 0.0493,-0.15373 0.0187,-0.3376 -0.136,-0.4776 -0.028,-0.0199 -0.056,-0.0469 -0.0827,-0.0683 -0.412,-1.1208 -0.696,-2.3052 -1.04134,-3.35574 -0.19866,-0.62293 -0.408,-1.28386 -0.668,-1.924 1.91334,0.75734 3.852,1.46934 5.72267,2.25734 0.28133,0.1136 0.56267,0.23493 0.844,0.35466 0.76267,1.43174 0.91467,3.3 1.14667,4.7984 0.128,0.8136 0.30666,1.5948 0.544,2.35374 z m 8.24266,3.12133 c 0.20934,1.15733 0.45734,2.312 0.77734,3.4292 -1.47867,-0.76667 -3.152,-1.05053 -4.84534,-1.17707 -1.236,-1.3256 -2.29866,-2.7964 -2.952,-4.47613 -0.54,-1.3844 -0.78,-2.81093 -1,-4.2656 -0.15866,-1.07707 -0.352,-2.22493 -0.732,-3.27707 2.22534,0.97707 4.42267,2.01454 6.55867,3.16507 0.44267,0.56413 0.76,1.25467 0.99867,1.8776 0.58266,1.524 0.89866,3.12507 1.19466,4.724 z M 423.76799,506.8 c -0.004,-0.003 -0.009,-0.007 -0.0107,-0.007 -3.44,-2.98533 -4.292,-7.22133 -5.11466,-11.412 -0.25067,-1.2708 -0.58134,-3.07853 -1.276,-4.6104 2.49066,1.43854 4.87066,3.0464 7.07866,4.9 0.82267,0.69067 1.61734,1.40374 2.38134,2.148 0.43466,2.9708 0.472,5.9708 0.70533,8.96147 0.0387,0.49053 0.088,0.98227 0.14,1.4744 -1.22667,-0.6896 -2.54267,-1.13747 -3.904,-1.45467 z m -10.35333,-2.44693 c -1.132,-0.85573 -2.25867,-1.72493 -3.35334,-2.62907 -1.05466,-0.86933 -2.09866,-1.75466 -3.14266,-2.64013 1.07333,0.21453 2.18933,0.3 3.284,0.3468 2.972,0.12667 6.404,-0.064 8.91066,1.76 0.68267,1.93587 1.63334,3.74267 3.064,5.2948 -0.47333,-0.0776 -0.948,-0.13853 -1.42666,-0.20427 -1.484,-0.18533 -2.93867,-0.3948 -4.352,-0.89573 -0.99334,-0.35627 -1.96934,-0.74693 -2.984,-1.0324 z m 15.62933,16.88707 c 0.69467,1.37706 0.0373,3.18226 0.0307,4.65573 -0.003,1.24427 0.10666,2.47347 0.49866,3.64013 -0.71066,-0.49586 -1.42133,-0.99066 -2.124,-1.49333 -1.74533,-2.82133 -3.416,-5.71347 -4.42133,-8.86813 -0.66667,-2.09334 -0.94667,-4.3052 -1.692,-6.35734 1.70133,1.54267 3.34,3.14267 4.90267,4.81774 0.976,1.04106 1.91866,2.1052 2.836,3.1932 -0.0813,0.10626 -0.10934,0.25053 -0.0307,0.412 z m 0.0813,-5.80414 c 0.50934,1.6572 1.09867,3.30934 1.73734,4.9348 -3.51734,-4.24426 -7.46667,-8.15106 -11.76,-11.6604 -1.10534,-0.90106 -2.24134,-1.77026 -3.38,-2.62653 0.25733,0.0907 0.51333,0.18387 0.77733,0.2656 1.27333,0.40267 2.56667,0.6068 3.892,0.776 2.52933,0.3224 5.06933,0.76253 7.24267,2.13187 0.0573,0.04 0.11333,0.0588 0.168,0.0708 0.28,2.06666 0.70533,4.10106 1.32266,6.10786 z m 9.17467,-9.5016 c -0.19067,2.88534 -0.60533,5.73227 -1.39467,8.5244 -0.62666,2.21574 -1.49333,4.36934 -2.31866,6.5224 -0.27334,0.712 -0.572,1.4204 -0.924,2.1 -0.10934,0.1428 -0.216,0.28547 -0.32134,0.4256 -0.10666,-0.14013 -0.20933,-0.2828 -0.32133,-0.4256 -0.35067,-0.6796 -0.65067,-1.388 -0.92533,-2.1 -0.82267,-2.15306 -1.69067,-4.30666 -2.31734,-6.5224 -0.79333,-2.79213 -1.204,-5.63906 -1.396,-8.5244 -0.15466,-2.348 -0.22933,-4.70786 -0.49866,-7.048 2.06,2.14427 3.888,4.48294 5.45866,6.98027 1.572,-2.49733 3.4,-4.836 5.45467,-6.98027 -0.26667,2.34014 -0.34133,4.7 -0.496,7.048 z m -8.06933,16.3016 c 1.084,1.34107 2.12266,2.71867 3.11066,4.128 0.992,-1.40933 2.02667,-2.78693 3.10667,-4.128 -0.0653,0.964 0.15333,1.97334 0.23067,2.91614 0.14,1.7744 -0.0573,3.64106 -0.92534,5.22813 -0.0253,0.0479 -0.0373,0.0943 -0.0467,0.13587 -0.79334,0.56093 -1.584,1.12653 -2.36534,1.7052 -0.78,-0.57867 -1.57066,-1.14427 -2.36933,-1.7052 -0.005,-0.0416 -0.0213,-0.088 -0.0453,-0.13587 -0.864,-1.58707 -1.06534,-3.45373 -0.924,-5.22813 0.0773,-0.9428 0.30133,-1.95214 0.228,-2.91614 z m 7.40666,-0.99586 c 0.0787,-0.16147 0.0533,-0.30574 -0.0307,-0.412 0.91866,-1.088 1.86266,-2.15214 2.83733,-3.1932 1.56267,-1.67507 3.20133,-3.27507 4.904,-4.81774 -0.75067,2.05214 -1.02933,4.264 -1.696,6.35734 -1.00267,3.15466 -2.676,6.0468 -4.41867,8.86813 -0.704,0.50267 -1.416,0.99747 -2.12266,1.49333 0.39066,-1.16666 0.49866,-2.39586 0.49466,-3.64013 -0.003,-1.47347 -0.66,-3.27867 0.032,-4.65573 z m 1.412,-11.9828 c 2.17334,-1.36934 4.70934,-1.80947 7.23867,-2.13187 1.324,-0.1692 2.624,-0.37333 3.896,-0.776 0.26133,-0.0817 0.52133,-0.17493 0.77733,-0.2656 -1.14,0.85627 -2.27466,1.72547 -3.38,2.62653 -4.29466,3.50934 -8.24933,7.41614 -11.764,11.6604 0.64,-1.62546 1.22934,-3.2776 1.74134,-4.9348 0.616,-2.0068 1.04266,-4.0412 1.32266,-6.10786 0.0547,-0.012 0.112,-0.0308 0.168,-0.0708 z m 8.98667,-13.87614 c -0.82,4.19067 -1.67467,8.42667 -5.112,11.412 -0.003,0 -0.005,0.004 -0.008,0.007 -1.364,0.3172 -2.68,0.76507 -3.90533,1.45467 0.0533,-0.49213 0.1,-0.98387 0.13866,-1.4744 0.23467,-2.99067 0.272,-5.99067 0.708,-8.96147 0.764,-0.74426 1.55867,-1.45733 2.37867,-2.148 2.20933,-1.8536 4.59067,-3.46146 7.08,-4.9 -0.69333,1.53187 -1.02667,3.3396 -1.28,4.6104 z m 8.444,4.04947 c 1.09333,-0.0468 2.212,-0.13227 3.28,-0.3468 -1.03867,0.88547 -2.08267,1.7708 -3.13733,2.64013 -1.09467,0.90414 -2.224,1.77334 -3.36,2.62907 -1.012,0.28547 -1.98934,0.67613 -2.97867,1.0324 -1.416,0.50093 -2.86933,0.7104 -4.35467,0.89573 -0.47733,0.0657 -0.952,0.12667 -1.42266,0.20427 1.42933,-1.55213 2.38133,-3.35893 3.06133,-5.2948 2.50533,-1.824 5.93867,-1.63333 8.912,-1.76 z m 0.29867,-9.4588 c -0.22267,1.45467 -0.46134,2.8812 -1,4.2656 -0.65334,1.67973 -1.71867,3.15053 -2.952,4.47613 -1.69067,0.12654 -3.36934,0.4104 -4.84667,1.17707 0.32133,-1.1172 0.56667,-2.27187 0.78,-3.4292 0.28933,-1.59893 0.60667,-3.2 1.19333,-4.724 0.23867,-0.62293 0.55334,-1.31347 0.99867,-1.8776 2.12933,-1.15053 4.32933,-2.188 6.55733,-3.16507 -0.38133,1.05214 -0.572,2.2 -0.73066,3.27707 z m 9.35066,-6.112 c 0.104,-0.25987 0.22134,-0.52133 0.35334,-0.77707 1.28666,-0.52546 2.54666,-1.088 3.76933,-1.71346 -0.472,1.64426 -1.23467,3.19053 -1.89467,4.7692 -1.30133,0.36666 -2.50933,0.99213 -3.60266,1.76666 0.128,-0.4104 0.25466,-0.8224 0.388,-1.22813 0.30933,-0.9396 0.608,-1.8968 0.98666,-2.8172 z M 464.58666,485.5 c -0.34267,1.05054 -0.62534,2.23494 -1.03867,3.35574 -0.0253,0.0213 -0.0587,0.0484 -0.0827,0.0683 -0.15866,0.14 -0.184,0.32387 -0.13466,0.4776 -0.40134,0.93854 -0.91734,1.80107 -1.68534,2.4572 -0.092,0.0787 -0.136,0.1704 -0.15333,0.2652 -1.57067,0.15987 -3.108,0.46507 -4.488,1.21614 0.232,-0.75894 0.41333,-1.54014 0.53867,-2.35374 0.232,-1.4984 0.38266,-3.36666 1.144,-4.7984 0.28533,-0.11973 0.56266,-0.24106 0.84666,-0.35466 1.87334,-0.788 3.80934,-1.5 5.72267,-2.25734 -0.26267,0.64014 -0.46667,1.30107 -0.66933,1.924 z m -70.62934,-0.66826 c -0.34,-0.41454 -0.684,-0.8224 -1.02533,-1.23174 -0.808,-1.95213 -1.448,-3.94533 -1.99467,-5.9708 1.33734,1.2468 2.83067,2.2724 4.40934,3.164 0.39866,1.77347 1.16666,3.4256 1.88666,5.1016 -0.872,-0.16666 -1.74,-0.29893 -2.556,-0.7 -0.24133,-0.1188 -0.48133,-0.24013 -0.72,-0.36306 z m -18.49066,-20.3944 c 1.57733,0.808 3.15866,1.61733 4.80266,2.284 2.432,0.9828 5.24934,2.1532 6.50267,4.48133 0.52267,2.40933 1.048,4.81453 1.692,7.19053 -4.19067,-4.77186 -8.53333,-9.412 -12.99733,-13.95586 z m -0.12,-1.00667 c -0.59067,-0.30667 -1.18,-0.61467 -1.77334,-0.908 -2.90666,-2.91333 -5.86133,-5.79467 -8.852,-8.636 3.90934,1.47467 8.03867,2.364 11.95734,3.84267 3.31733,1.25066 6.716,2.86933 8.30666,5.97066 0,0 10e-4,0.009 0.004,0.0107 0.50267,1.812 0.93067,3.64147 1.34,5.47573 -1.404,-1.3968 -3.34666,-2.31453 -5.248,-3.0904 -1.96266,-0.80266 -3.85733,-1.69333 -5.73466,-2.66533 z M 354.74932,444.632 c 0.68267,0.3 1.37334,0.572 2.076,0.80534 3.55334,1.16533 7.272,1.36933 10.94667,1.94 4.51333,0.7 9.72667,1.952 12.612,5.51866 0.228,0.34534 0.448,0.688 0.656,1.04 1.31067,2.22134 2.30933,4.60934 3.12267,7.05067 -0.304,-0.31733 -0.63334,-0.62133 -0.988,-0.9 -1.64267,-1.29333 -3.58934,-2.17333 -5.53734,-2.93867 -4.82533,-1.89866 -10.00933,-2.81733 -14.72,-4.97333 -2.696,-2.536 -5.41866,-5.04933 -8.168,-7.54267 z m -5.38,-4.84533 c -0.6,-0.53067 -1.21733,-1.06267 -1.848,-1.592 2.07867,0.3 4.216,0.292 6.30667,0.25467 2.45467,-0.0387 4.93333,-0.28534 7.38133,0.007 0.96667,0.112 1.91467,0.3 2.83067,0.56667 2.944,1.62267 5.80533,3.42533 8.42267,5.5 0.0187,0.0507 0.04,0.0987 0.0573,0.14533 0.14533,0.356 0.43867,0.49734 0.73467,0.49467 0.83466,0.69467 1.64266,1.41333 2.41866,2.16267 0.744,0.724 1.47067,1.48 2.16134,2.268 -2.76,-1.64534 -6.14934,-2.47334 -9.29867,-2.988 -3.652,-0.58934 -7.40533,-0.732 -10.952,-1.848 -1.74667,-0.55467 -3.44533,-1.30667 -5.08933,-2.168 -1.03867,-0.93467 -2.07734,-1.868 -3.12534,-2.80267 z m -3.26933,-2.76 c -3.99733,-3.26667 -8.308,-6.524 -11.568,-10.36 0.0427,-0.048 0.0813,-0.096 0.12267,-0.14133 3.088,1.42133 6.32666,2.56933 9.51333,3.77333 5.63333,2.12 11.24533,4.32533 16.616,7.01333 0.17867,0.0933 0.35333,0.18667 0.532,0.272 -2.128,-0.22266 -4.24933,-0.084 -6.39067,-0.0333 -2.64933,0.0693 -5.412,0.16267 -8.024,-0.34667 -0.26933,-0.052 -0.53733,-0.11733 -0.80133,-0.17733 z m -4.86267,-16.65333 c 0.0853,-0.124 0.18134,-0.23734 0.27734,-0.34 0.18266,-0.14934 0.36133,-0.29734 0.54133,-0.44667 1.60133,-1.012 3.976,-0.21333 5.55467,0.67733 3.09733,1.74534 5.832,4.024 8.42666,6.40667 2.61734,2.404 5.108,4.94 7.776,7.296 1.544,1.36267 3.26267,2.65333 4.67867,4.16533 0.0907,0.252 0.18133,0.5 0.27467,0.748 -1.63334,-1.01866 -3.312,-1.97066 -5.01734,-2.876 -5.37066,-2.83733 -11.01333,-5.15066 -16.70133,-7.31733 -1.94,-0.74 -3.91467,-1.44133 -5.872,-2.184 -0.69067,-1.88 -1.15867,-4.416 0.0613,-6.12933 z m 6.88,-4.96934 c 0.11734,-0.52133 0.34534,-0.97466 0.64934,-1.32933 0.204,-0.17733 0.40533,-0.352 0.60266,-0.528 0.003,-0.007 0.003,-0.007 0.005,-0.009 0.744,-0.47734 1.712,-0.60667 2.71466,-0.26534 1.22934,0.412 2.27734,1.21467 3.108,2.17734 1.22267,1.41466 2.288,2.98 3.27867,4.56 2.01733,3.216 3.68133,6.62266 5.544,9.91866 0.79733,1.424 1.68133,2.80534 2.52533,4.20667 -1.576,-1.35867 -3.128,-2.73733 -4.63466,-4.172 -2.60667,-2.47867 -5.15867,-5.02 -7.95334,-7.29867 -1.36,-1.10933 -2.76533,-2.164 -4.26666,-3.08 -0.43867,-0.272 -0.87867,-0.52933 -1.332,-0.772 -0.32667,-1.09333 -0.49734,-2.288 -0.24134,-3.408 z m 6.24934,-4.928 c 0.372,-1.23066 1.1,-2.41066 2.388,-2.89066 1.06266,-0.396 1.99866,-0.003 2.71066,0.81466 0.80667,0.92934 1.352,2.03734 1.80534,3.16667 0.65333,1.61333 1.216,3.26 1.668,4.93333 1.008,3.74267 1.61333,7.56667 2.424,11.348 0.13866,0.61867 0.28133,1.22934 0.44,1.84134 -1.78934,-3.15867 -3.40667,-6.40267 -5.27467,-9.51867 -0.98533,-1.63867 -2.03467,-3.24667 -3.21733,-4.76267 -0.828,-1.06266 -1.744,-2.116 -2.91334,-2.84266 -0.24266,-0.65467 -0.23066,-1.42667 -0.0307,-2.08934 z m 6.33333,-3.724 c -0.17067,-1.72666 0.164,-3.75066 1.58133,-4.96533 1.428,-1.22267 3.428,-1.368 4.97734,-0.23867 2.33866,1.696 3.15066,4.98 3.572,7.632 0.53466,3.38134 0.47466,6.83067 0.0427,10.21334 -0.43066,3.37733 -1.456,6.67333 -1.668,10.06666 -0.036,0.1 -0.0493,0.216 -0.04,0.34267 0.004,0.052 0.0133,0.0987 0.0147,0.14933 -0.008,0.19334 -0.0147,0.38934 -0.0147,0.58267 -0.003,0.18267 0.0493,0.33733 0.13067,0.46667 0.0133,0.0947 0.024,0.19066 0.0373,0.28666 -0.02,1.43334 0.26134,2.872 0.54134,4.28934 0.024,0.27866 0.0467,0.55866 0.072,0.832 0.009,0.12 0.04,0.22533 0.0853,0.30933 -0.22667,-0.36 -0.45067,-0.724 -0.66933,-1.088 -0.70934,-1.96933 -1.376,-3.952 -1.86134,-5.98133 -0.90133,-3.75334 -1.48133,-7.568 -2.37466,-11.32267 -0.44534,-1.892 -0.952,-3.77467 -1.61467,-5.60667 -0.452,-1.248 -0.912,-2.512 -1.57867,-3.66933 -0.37066,-0.64533 -0.79066,-1.29467 -1.312,-1.84933 0.064,-0.124 0.1,-0.27467 0.0787,-0.44934 z m 4.96533,-7.75466 c -0.004,0.064 -0.007,0.128 -0.007,0.19467 -0.0227,-0.003 -0.0467,-0.004 -0.0707,-0.004 0.0227,-0.0667 0.0467,-0.136 0.0773,-0.19067 z m 5,-4.088 c 1.42,-1.00533 3.17067,-0.97067 4.31467,0.42 0.944,1.15067 1.404,2.59733 1.66533,4.02533 0.32667,1.73867 0.37867,3.50133 0.12134,5.252 -0.5,3.41733 -1.916,6.59867 -3.45067,9.68667 -0.0693,0.13466 -0.0933,0.26533 -0.0867,0.38533 -0.12133,0.216 -0.236,0.43733 -0.352,0.65733 0.088,-3.12133 -0.13733,-6.28266 -1.03466,-9.292 -0.65734,-2.20666 -1.716,-4.58266 -3.72267,-5.916 0.0747,-1.96533 0.86,-4.02399 2.54533,-5.21866 z m 3.29734,-2.28933 c 0.388,-1.828 1.6,-3.284 3.61866,-3.34534 1.76,-0.0493 3.57334,0.89067 4.69067,2.17067 1.68933,1.944 1.92667,4.81867 1.604,7.24933 -0.404,3.068 -1.91333,5.76133 -4.01867,8.052 -0.11733,0.128 -0.18133,0.26133 -0.2,0.39333 -0.0813,0.0227 -0.15866,0.076 -0.21866,0.172 -0.0973,0.15334 -0.20267,0.30134 -0.31334,0.444 -0.644,0.548 -1.26666,1.116 -1.864,1.70667 0.96534,-2.74667 1.55467,-5.62533 1.30267,-8.53733 -0.23067,-2.70933 -1.00133,-6.29067 -3.65067,-7.78933 -0.31866,-0.17867 -0.64666,-0.31467 -0.98133,-0.408 0.0107,-0.032 0.024,-0.0707 0.0307,-0.108 z m 11.86133,-14.712 c 0.76,0.82666 1.53733,1.63333 2.204,2.53066 -0.0973,0.156 -0.19867,0.35067 -0.36933,0.66134 -0.15067,0.26933 -0.228,0.56533 -0.24134,0.888 -0.0333,0.46266 -0.0373,1.14266 0.156,1.62933 -2.12933,-0.55733 -4.37333,-0.71733 -6.56933,-0.48267 1.628,-1.728 3.23467,-3.46933 4.82,-5.22666 z m 4.82267,-5.48 c 0,0.0173 0,0.036 0,0.0547 -0.08,2.09867 0.0907,4.20667 -0.004,6.30667 -0.27334,0.0427 -0.54267,0.11467 -0.80667,0.22 -0.288,0.16133 -0.57867,0.32133 -0.864,0.48267 -0.0333,0.0333 -0.0707,0.0587 -0.11067,0.0853 -0.012,0.009 -0.02,0.0133 -0.036,0.0227 -0.064,0.0587 -0.12533,0.11333 -0.17866,0.16133 -0.67867,-0.888 -1.46667,-1.692 -2.22134,-2.52133 1.42534,-1.592 2.83067,-3.19467 4.22134,-4.812 z m 2.312,9.89866 c 0,1.18 -1.016,2.16134 -2.232,2.16134 -1.22134,0 -2.23734,-0.98134 -2.23734,-2.16134 0,-1.18 1.016,-2.16266 2.23734,-2.16266 1.216,0 2.232,0.98266 2.232,2.16266 z m -1.41734,-9.55333 c 0.016,-0.49333 0.0453,-0.99333 0.0907,-1.49867 0.804,-0.944 1.604,-1.89733 2.396,-2.856 0.204,0.36267 0.41733,0.72 0.63467,1.076 0.86266,1.43867 1.80666,2.84134 2.59866,4.31467 -0.007,0.016 -0.0147,0.0267 -0.028,0.0507 -1.00266,2.10266 -2.196,4.15866 -3.016,6.33333 -0.016,-0.02 -0.0293,-0.0427 -0.0427,-0.0613 -0.6,-0.752 -1.49467,-1.244 -2.46267,-1.364 -0.0547,-0.005 -0.10667,-0.0107 -0.16,-0.012 0.076,-1.99334 -0.0813,-3.98934 -0.0107,-5.98267 z m 4.89334,-7.31067 c 4.1,0.0387 8.18666,2.55467 10.65866,5.556 0.024,0.0347 0.0533,0.0587 0.084,0.0827 0.04,0.37733 0.068,0.75467 0.0773,1.13867 0.044,1.44266 0.0907,2.924 -0.0507,4.364 -0.0267,0.28266 -0.06,0.57066 -0.0827,0.856 -0.10133,-0.092 -0.208,-0.184 -0.31333,-0.272 -0.892,-0.752 -1.90133,-1.36934 -2.94133,-1.912 -1.06267,-0.552 -2.17467,-1.04934 -3.336,-1.388 -0.47467,-0.13734 -0.99467,-0.284 -1.516,-0.34 -0.0213,-0.0467 -0.044,-0.0947 -0.068,-0.14134 -0.78,-1.47866 -1.71467,-2.88266 -2.58534,-4.312 -0.40533,-0.66133 -0.81333,-1.32933 -1.16533,-2.01866 -0.007,-0.0173 -0.016,-0.0347 -0.0227,-0.052 0.42,-0.516 0.844,-1.03467 1.26134,-1.56134 z m 4.44133,-5.692 c 0.492,0.252 0.95467,0.552 1.364,0.928 0.008,0.012 0.0227,0.0227 0.0373,0.0333 -0.0707,0.20266 -0.12133,0.41466 -0.148,0.63333 -0.124,0.94 0.148,1.89867 0.74667,2.64667 0.53467,0.672 1.54133,1.36133 2.46,1.36133 0.29467,0 0.56667,-0.007 0.836,-0.028 0.228,0.95333 0.38267,1.92267 0.55733,2.888 0.076,0.43333 0.156,0.86267 0.228,1.29333 -2.51333,-2.59866 -6.13333,-4.668 -9.832,-4.924 1.26934,-1.59466 2.51867,-3.20533 3.75067,-4.832 z m 2.232,-2.992 c 0.27333,0.65334 0.532,1.31334 0.75333,1.98134 -0.11066,0.068 -0.21733,0.14 -0.32533,0.22266 -0.344,0.25734 -0.632,0.56934 -0.86267,0.91867 -0.37866,-0.33333 -0.80266,-0.61333 -1.25333,-0.85067 0.568,-0.75066 1.128,-1.50933 1.688,-2.272 z m 6.30933,-9.048 c 0.29334,0.936 0.63734,1.864 0.96934,2.78534 -1.22667,2.59066 -2.87734,5.03466 -3.45467,7.852 -0.22267,-0.068 -0.44533,-0.10934 -0.66133,-0.10934 -0.568,0 -1.07867,0.028 -1.56934,0.156 -0.28133,-0.84666 -0.61866,-1.67066 -0.97333,-2.48933 1.95333,-2.68267 3.84933,-5.416 5.68933,-8.19467 z m 2.95867,-4.59733 c 0.228,-0.36 0.452,-0.72267 0.676,-1.08667 0.75467,0.144 1.49067,0.37734 2.188,0.69067 -0.11733,0.284 -0.20133,0.58133 -0.24133,0.88667 -0.12,0.94 0.14666,1.89866 0.74533,2.64666 0.54133,0.66934 1.544,1.364 2.464,1.364 0.31467,0 0.60667,-0.009 0.888,-0.0373 0.17333,2.412 0.58267,4.80133 0.772,7.21733 -0.89333,-1.06533 -2.036,-1.968 -3.17333,-2.73333 -1.47867,-1 -3.1,-1.90933 -4.83734,-2.412 -0.46133,-1.232 -0.936,-2.48667 -1.24533,-3.76667 0.59733,-0.91866 1.18267,-1.83866 1.764,-2.76933 z m 3.06533,-4.988 c 0.0667,0.0853 0.13334,0.17067 0.19734,0.252 0.556,0.71733 1.176,1.54667 1.45333,2.44133 -0.23067,0.1 -0.45733,0.23067 -0.68667,0.40267 -0.28133,0.20933 -0.52533,0.456 -0.732,0.73467 -0.68533,-0.31334 -1.39866,-0.55734 -2.132,-0.716 0.63734,-1.03467 1.27067,-2.072 1.9,-3.11467 z m 3.99334,-6.71467 c 0.37066,0.95734 0.85066,1.89067 1.34533,2.8 -1.14533,1.89067 -1.60667,4.18667 -2.18667,6.29867 -0.21733,0.008 -0.42533,0.0293 -0.62666,0.0587 -0.308,-0.99734 -0.98134,-1.94134 -1.60534,-2.72667 -0.14266,-0.17467 -0.28,-0.352 -0.43066,-0.53067 1.18133,-1.96 2.344,-3.928 3.504,-5.9 z m 2.93733,-5.032 c 0.78267,0.0413 1.57467,0.2 2.308,0.44 -0.23467,0.40267 -0.388,0.844 -0.452,1.308 -0.12133,0.94 0.14933,1.89867 0.74933,2.648 0.17867,0.224 0.40934,0.448 0.67067,0.64934 -1.384,0.0853 -2.74667,0.29733 -4.07067,0.72133 -0.42533,-0.87467 -0.78666,-1.776 -0.99333,-2.696 0.596,-1.02267 1.19067,-2.04933 1.788,-3.07067 z m 2.89333,-4.97466 c 0.50534,1.27866 1.27734,2.44133 1.80267,3.71333 -0.496,0.0907 -0.964,0.27467 -1.43333,0.62533 -0.13734,0.104 -0.26534,0.21734 -0.38534,0.33467 -0.748,-0.26667 -1.564,-0.46267 -2.38533,-0.54533 0.8,-1.37734 1.60267,-2.752 2.40133,-4.128 z m 2.848,-4.86134 c 0.72934,-1.22933 1.43067,-2.47733 2.13067,-3.72933 0.0293,1.288 0.0933,2.57733 0.08,3.86267 -0.0307,2.88133 -0.39867,5.73066 -1.07467,8.528 -0.292,-0.11334 -0.588,-0.184 -0.87866,-0.184 -0.12267,0 -0.24134,0 -0.364,0.004 -0.596,-1.55734 -1.608,-2.93867 -2.10667,-4.53867 -0.0107,-0.0373 -0.0253,-0.0693 -0.0413,-0.0973 0.74933,-1.28134 1.50133,-2.56534 2.25466,-3.84534 z m 5.228,-9.37866 c 0.74267,1.34666 1.47734,2.7 2.21734,4.04933 -0.005,0.0373 -0.007,0.0667 -0.007,0.084 0,0.75867 -0.003,1.516 -0.016,2.272 -0.024,1.39333 -0.10133,2.78133 -0.0613,4.17467 0.084,2.66933 0.484,5.324 1.14,7.91866 -0.30267,0.216 -0.56934,0.47067 -0.76667,0.71867 -0.0947,0.12 -0.17867,0.24 -0.256,0.36933 -0.60533,-1.04666 -1.38,-1.95333 -2.25067,-2.784 -0.86933,0.83067 -1.644,1.73734 -2.25066,2.784 -0.0773,-0.12933 -0.164,-0.24933 -0.25467,-0.36933 -0.20267,-0.248 -0.46667,-0.50267 -0.76933,-0.71867 0.65333,-2.59466 1.05733,-5.24933 1.13866,-7.91866 0.0453,-1.39334 -0.0333,-2.78134 -0.0587,-4.17467 -0.0107,-0.756 -0.016,-1.51333 -0.016,-2.272 0,-0.0173 -0.003,-0.0467 -0.007,-0.084 0.74,-1.34933 1.47467,-2.70267 2.21733,-4.04933 z m 3.096,5.64933 c 0.69734,1.252 1.404,2.5 2.12934,3.72933 0.75466,1.28 1.508,2.564 2.25866,3.84534 -0.02,0.028 -0.0333,0.06 -0.044,0.0973 -0.50133,1.6 -1.508,2.98133 -2.104,4.53867 -0.12,-0.004 -0.244,-0.004 -0.368,-0.004 -0.29066,0 -0.58666,0.0707 -0.87466,0.184 -0.676,-2.79734 -1.044,-5.64667 -1.07467,-8.528 -0.016,-1.28534 0.0507,-2.57467 0.0773,-3.86267 z m 7.38134,12.71867 c -0.82,0.0827 -1.636,0.27866 -2.38667,0.54533 -0.11867,-0.11733 -0.24533,-0.23067 -0.38667,-0.33467 -0.468,-0.35066 -0.93466,-0.53466 -1.432,-0.62533 0.528,-1.272 1.29867,-2.43467 1.80267,-3.71333 0.8,1.376 1.60267,2.75066 2.40267,4.128 z m 2.28133,3.91733 c -0.20933,0.92 -0.56933,1.82133 -0.99467,2.696 -1.32533,-0.424 -2.688,-0.636 -4.07066,-0.72133 0.26266,-0.20134 0.49333,-0.42534 0.668,-0.64934 0.60266,-0.74933 0.872,-1.708 0.75066,-2.648 -0.06,-0.464 -0.21733,-0.90533 -0.44933,-1.308 0.73067,-0.24 1.52133,-0.39866 2.30667,-0.44 0.59466,1.02134 1.19333,2.048 1.78933,3.07067 z m 4.652,7.86133 c -0.14667,0.17867 -0.28933,0.356 -0.43067,0.53067 -0.62666,0.78533 -1.29866,1.72933 -1.608,2.72667 -0.20133,-0.0293 -0.41066,-0.0507 -0.62666,-0.0587 -0.576,-2.112 -1.03734,-4.408 -2.18667,-6.29867 0.496,-0.90933 0.97333,-1.84266 1.34933,-2.8 1.156,1.972 2.32267,3.94 3.50267,5.9 z m 0.488,0.81467 c 0.632,1.04267 1.26533,2.08 1.904,3.11467 -0.73467,0.15866 -1.44933,0.40266 -2.136,0.716 -0.204,-0.27867 -0.452,-0.52534 -0.73333,-0.73467 -0.228,-0.172 -0.45334,-0.30267 -0.684,-0.40267 0.27066,-0.89466 0.89466,-1.724 1.45066,-2.44133 0.0667,-0.0813 0.13467,-0.16667 0.19867,-0.252 z m 3.06533,4.988 c 0.58134,0.93067 1.17067,1.85067 1.764,2.76933 -0.308,1.28 -0.78666,2.53467 -1.24666,3.76667 -1.73867,0.50267 -3.356,1.412 -4.836,2.412 -1.136,0.76533 -2.27867,1.668 -3.172,2.73333 0.18666,-2.416 0.596,-4.80533 0.76933,-7.21733 0.284,0.028 0.57733,0.0373 0.888,0.0373 0.92133,0 1.92667,-0.69466 2.46267,-1.364 0.59866,-0.748 0.87066,-1.70666 0.748,-2.64666 -0.0413,-0.30534 -0.12134,-0.60267 -0.24,-0.88667 0.69466,-0.31333 1.43333,-0.54667 2.18933,-0.69067 0.22133,0.364 0.448,0.72667 0.67333,1.08667 z m 2.96,4.59733 c 1.83867,2.77867 3.73734,5.512 5.68534,8.19467 -0.34667,0.81867 -0.69067,1.64267 -0.96934,2.48933 -0.488,-0.128 -1.00266,-0.156 -1.57066,-0.156 -0.21734,0 -0.43867,0.0413 -0.66,0.10934 -0.58,-2.81734 -2.228,-5.26134 -3.456,-7.852 0.33466,-0.92134 0.67333,-1.84934 0.97066,-2.78534 z m 7.99467,11.32 c -0.44933,0.23734 -0.87333,0.51734 -1.252,0.85067 -0.228,-0.34933 -0.52,-0.66133 -0.86133,-0.91867 -0.10934,-0.0827 -0.22,-0.15466 -0.328,-0.22266 0.224,-0.668 0.48266,-1.328 0.75733,-1.98134 0.556,0.76267 1.116,1.52134 1.684,2.272 z m 4.29866,5.552 c -3.69999,0.256 -7.32266,2.32534 -9.83199,4.924 0.0707,-0.43066 0.148,-0.86 0.228,-1.29333 0.172,-0.96533 0.32933,-1.93467 0.55733,-2.888 0.264,0.0213 0.54133,0.028 0.83067,0.028 0.92,0 1.928,-0.68933 2.464,-1.36133 0.6,-0.748 0.87066,-1.70667 0.74666,-2.64667 -0.028,-0.21867 -0.08,-0.43067 -0.14533,-0.63333 0.0107,-0.0107 0.0213,-0.0213 0.036,-0.0333 0.408,-0.376 0.86933,-0.676 1.36133,-0.928 1.23067,1.62667 2.48133,3.23734 3.75333,4.832 z m 1.95334,2.42134 c -0.0107,0.0173 -0.02,0.0347 -0.028,0.052 -0.35334,0.68933 -0.75867,1.35733 -1.16134,2.01866 -0.87733,1.42934 -1.80533,2.83334 -2.58666,4.312 -0.0227,0.0467 -0.0427,0.0947 -0.0693,0.14134 -0.52133,0.056 -1.04133,0.20266 -1.51866,0.34 -1.156,0.33866 -2.268,0.836 -3.33333,1.388 -1.04,0.54266 -2.04667,1.16 -2.94,1.912 -0.10667,0.088 -0.208,0.18 -0.312,0.272 -0.0267,-0.28534 -0.0573,-0.57334 -0.084,-0.856 -0.14267,-1.44 -0.0933,-2.92134 -0.0533,-4.364 0.0107,-0.384 0.0413,-0.76134 0.0773,-1.13867 0.0333,-0.024 0.0613,-0.048 0.0893,-0.0827 2.46933,-3.00133 6.552,-5.51733 10.65466,-5.556 0.42,0.52667 0.84134,1.04534 1.26534,1.56134 z m 1.144,1.39466 c 0.792,0.95867 1.58933,1.912 2.39333,2.856 0.0453,0.50534 0.0733,1.00534 0.092,1.49867 0.0747,1.99333 -0.0867,3.98933 -0.012,5.98267 -0.0507,10e-4 -0.10267,0.007 -0.156,0.012 -0.97067,0.12 -1.864,0.612 -2.464,1.364 -0.016,0.0187 -0.0333,0.0413 -0.0467,0.0613 -0.81866,-2.17467 -2.00666,-4.23067 -3.01733,-6.33333 -0.007,-0.024 -0.0173,-0.0347 -0.028,-0.0507 0.79333,-1.47333 1.74133,-2.876 2.60667,-4.31467 0.21466,-0.356 0.42533,-0.71333 0.632,-1.076 z m 5.53466,13.908 c 0,1.18 -1.01466,2.16134 -2.23333,2.16134 -1.21733,0 -2.23467,-0.98134 -2.23467,-2.16134 0,-1.18 1.01734,-2.16266 2.23467,-2.16266 1.21867,0 2.23333,0.98266 2.23333,2.16266 z m -2.15333,-9.844 c -0.001,-0.0187 -0.001,-0.0373 -0.004,-0.0547 1.38933,1.61733 2.796,3.22 4.22267,4.812 -0.75467,0.82933 -1.54,1.63333 -2.22,2.52133 -0.056,-0.048 -0.11467,-0.10267 -0.18267,-0.16133 -0.008,-0.009 -0.024,-0.0133 -0.0347,-0.0227 -0.04,-0.0267 -0.076,-0.052 -0.11066,-0.0853 -0.288,-0.16134 -0.57467,-0.32134 -0.86,-0.48267 -0.268,-0.10533 -0.53734,-0.17733 -0.81067,-0.22 -0.0907,-2.1 0.0773,-4.208 0,-6.30667 z m 9.63733,10.652 c -2.19466,-0.23466 -4.436,-0.0747 -6.56666,0.48267 0.19466,-0.48667 0.192,-1.16667 0.15466,-1.62933 -0.008,-0.32267 -0.088,-0.61867 -0.23733,-0.888 -0.172,-0.31067 -0.27467,-0.50534 -0.372,-0.66134 0.66667,-0.89733 1.44933,-1.704 2.20667,-2.53066 1.584,1.75733 3.192,3.49866 4.81466,5.22666 z m 3.428,6.14 c 2.01734,0.0613 3.23067,1.51734 3.616,3.34534 0.009,0.0373 0.02,0.076 0.032,0.108 -0.33333,0.0933 -0.66533,0.22933 -0.98133,0.408 -2.648,1.49866 -3.41867,5.08 -3.65333,7.78933 -0.248,2.912 0.33866,5.79066 1.30533,8.53733 -0.59467,-0.59067 -1.22,-1.15867 -1.86533,-1.70667 -0.11334,-0.14266 -0.21734,-0.29066 -0.31334,-0.444 -0.0587,-0.096 -0.136,-0.14933 -0.21866,-0.172 -0.02,-0.132 -0.0813,-0.26533 -0.20134,-0.39333 -2.104,-2.29067 -3.612,-4.984 -4.01733,-8.052 -0.324,-2.43066 -0.0867,-5.30533 1.60533,-7.24933 1.116,-1.28 2.93067,-2.22 4.692,-2.17067 z m -21.068,71.596 c -2.95733,0.72667 -5.97999,1.34 -8.93333,2.15333 2.74667,-1.74933 5.13734,-3.92666 7.18534,-6.41466 0.0213,-0.0107 0.04,-0.016 0.064,-0.0307 1.70399,-0.93733 3.34266,-1.96133 5.07066,-2.85733 1.30667,-0.68 2.60267,-1.38 3.884,-2.09467 0.58,-0.32267 1.15733,-0.65733 1.72667,-0.99333 0.08,-0.008 0.16,-0.036 0.23733,-0.0933 0.092,-0.068 0.17867,-0.14 0.268,-0.20666 1.84133,-1.10134 3.64133,-2.272 5.37067,-3.53334 4.672,-3.40666 8.836,-7.60266 11.28133,-12.79466 0.392,-0.83067 0.728,-1.68 1.01333,-2.54267 -0.12533,3.57333 -0.71333,7.168 -1.85466,10.56533 -1.90934,1.452 -3.71867,3.02534 -5.38934,4.75734 -2.06,2.132 -3.816,4.51866 -5.232,7.08933 -0.044,0.0853 -0.088,0.172 -0.136,0.25733 -3.93733,3.708 -9.28533,5.44667 -14.556,6.73867 z m -66.83999,1.5 c 2.96133,0.68533 5.936,1.34667 8.81333,2.312 3.17867,1.064 6.10667,2.54653 8.76533,4.55227 1.22267,2.45573 2.668,4.80106 4.15067,7.11973 2.04,3.18653 4.148,6.312 6.372,9.3828 1.048,1.4396 2.064,2.89427 3.05733,4.37187 0.31867,0.47453 0.644,0.94013 0.988,1.39226 0.34267,-0.45213 0.668,-0.91773 0.98934,-1.39226 0.988,-1.4776 2.00933,-2.93227 3.05466,-4.37187 2.228,-3.0708 4.33334,-6.19627 6.37067,-9.3828 1.48133,-2.31867 2.93067,-4.664 4.15333,-7.11973 2.66,-2.00574 5.584,-3.48827 8.764,-4.55227 2.87867,-0.96533 5.856,-1.62667 8.81067,-2.312 5.62933,-1.296 11.47733,-2.692 16.116,-6.21333 -0.47867,1.06666 -0.89867,2.15866 -1.27867,3.264 -1.30533,2.64933 -3.896,4.25333 -6.50933,5.6 -3.396,1.75213 -6.948,3.1828 -10.43467,4.74946 -6.61866,2.98134 -12.81066,6.96934 -18.25333,11.67707 -4.27867,3.7 -8.068,7.95373 -10.964,12.76 -0.276,0.4572 -0.54933,0.91867 -0.81867,1.3776 -0.26933,-0.45893 -0.54133,-0.9204 -0.81866,-1.3776 -2.89467,-4.80627 -6.68667,-9.06 -10.96534,-12.76 -5.44,-4.70773 -11.636,-8.69573 -18.252,-11.67707 -3.49066,-1.56666 -7.03866,-2.99733 -10.43866,-4.74946 -2.616,-1.34667 -5.2,-2.95067 -6.50534,-5.6 -0.38,-1.10534 -0.8,-2.19734 -1.27733,-3.264 4.63467,3.52133 10.48667,4.91733 16.11067,6.21333 z m -28.704,-28.36533 c 2.44933,5.192 6.61333,9.388 11.28266,12.79466 1.728,1.26134 3.528,2.432 5.36934,3.53334 0.0907,0.0667 0.18,0.13866 0.268,0.20666 0.0773,0.0573 0.15866,0.0853 0.23866,0.0933 0.572,0.336 1.148,0.67066 1.72667,0.99333 1.28133,0.71467 2.58,1.41467 3.884,2.09467 1.728,0.896 3.36933,1.92 5.07067,2.85733 0.0213,0.0147 0.0427,0.02 0.0667,0.0307 2.04667,2.488 4.43867,4.66533 7.18534,6.41466 -2.95334,-0.81333 -5.98,-1.42666 -8.94,-2.15333 -5.26934,-1.292 -10.61467,-3.03067 -14.552,-6.73867 -0.0453,-0.0853 -0.0893,-0.172 -0.136,-0.25733 -1.41734,-2.57067 -3.172,-4.95733 -5.232,-7.08933 -1.668,-1.732 -3.47734,-3.30534 -5.38934,-4.75734 -1.14,-3.39733 -1.72666,-6.992 -1.856,-10.56533 0.288,0.86267 0.62534,1.712 1.01334,2.54267 z m 6.596,-22.792 c -1.24134,3.20133 -1.62934,6.75866 -1.64,10.144 0,0.16266 0.0707,0.28133 0.17466,0.36533 -0.48933,0.95067 -0.972,1.90533 -1.38,2.888 -0.46666,1.13067 -0.73866,2.25733 -0.96666,3.41733 -0.63867,-2.21066 -0.95734,-4.432 -0.908,-6.74 0.0373,-1.88666 0.18533,-3.772 0.188,-5.656 0.532,-0.97066 1.14933,-1.904 1.86533,-2.77866 1.03733,-1.27334 2.208,-2.48 3.484,-3.59867 -0.308,0.66267 -0.572,1.332 -0.81733,1.95867 z m 3.08933,18.90666 c -0.46667,2.83067 -0.524,5.64134 0.007,8.42534 -2.94667,-2.36 -5.05067,-5.37734 -6.348,-8.82667 0.0427,-0.052 0.0747,-0.11733 0.0893,-0.19733 0.296,-1.64934 0.56667,-3.232 1.25333,-4.78934 0.58,-1.316 1.25734,-2.60266 1.90934,-3.89333 0.556,-1.09067 1.10933,-2.196 1.816,-3.20933 0.0333,-0.048 0.0653,-0.0947 0.1,-0.144 -0.452,1.32666 -0.74267,2.69866 -0.80134,4.076 -0.132,3.02266 0.63867,5.90533 1.97467,8.55866 z m 1.43333,-19.70266 c 0.592,-0.0253 1.19334,-0.0147 1.792,-0.0187 -0.78266,0.76133 -1.484,1.59867 -2.09066,2.49733 -0.46534,0.68934 -0.89334,1.416 -1.27867,2.16934 -1.72667,1.22933 -2.75467,3.40666 -3.66267,5.19866 0.0813,-2.872 0.46,-5.85333 1.492,-8.536 0.0507,-0.0293 0.0933,-0.068 0.13334,-0.112 0.82133,-1.016 2.38133,-1.14 3.61466,-1.19866 z m 5.132,-6.57067 c 0.04,0.0107 0.0773,0.0147 0.12,0.0227 -0.42266,0.88533 -0.928,1.73733 -1.50266,2.52933 -0.868,1.19467 -1.93067,2.44533 -3.39334,2.95067 -0.104,0.0347 -0.17466,0.0893 -0.21733,0.15866 -1.16,0.02 -2.29467,0.132 -3.24,0.596 0.34133,-0.804 0.74133,-1.624 1.24267,-2.344 2.14,-1.60133 4.50533,-2.944 6.99066,-3.91333 z m 6.43734,-14.76533 c 0.496,1.30533 1.07066,2.576 1.39066,3.94 0.0693,0.296 0.12934,0.59333 0.18134,0.888 -1.472,-1.268 -3.156,-2.32667 -4.884,-3.20933 -2.06667,-1.04934 -4.344,-1.93734 -6.696,-2.07867 -0.56934,-0.928 -1.19334,-1.82 -1.90267,-2.64533 -0.60933,-0.70934 -1.29067,-1.39867 -2.048,-1.97734 2.28667,-0.23066 4.63333,-0.0227 6.82133,0.66534 0.056,0.0173 0.10667,0.024 0.16,0.0227 0.16134,0.224 0.36267,0.42534 0.67334,0.62934 0.6,0.39466 1.04,0.59333 1.76533,0.69066 0.044,0.004 0.0933,0.004 0.13733,0.004 0.64667,0.0733 1.27067,-0.004 1.876,-0.24133 0.27467,-0.152 0.54934,-0.308 0.82267,-0.464 0.70133,1.19733 1.21467,2.48667 1.70267,3.776 z m 7.84266,-5.06933 c -0.36,0.5 -0.72266,1.01466 -1.07333,1.54133 -0.0467,-0.50933 -0.0707,-1.02533 -0.116,-1.52533 -0.108,-1.32667 -0.45733,-2.61067 -0.77467,-3.90267 -0.356,-1.45333 -0.736,-2.90267 -1.19866,-4.328 -0.144,-0.43333 -0.28,-0.86933 -0.43867,-1.29867 0.31067,0.0667 0.61467,0.156 0.89733,0.244 1.01467,0.31734 1.996,0.73067 2.94,1.21334 0.94934,0.48533 1.88267,1.03333 2.712,1.69466 0.35734,0.28934 0.81334,0.64267 1.108,1.05467 0,0.084 0.007,0.164 0.0133,0.24267 -1.43067,1.636 -2.80267,3.312 -4.06934,5.064 z m 8.276,13.56533 c 1.20534,1.208 2.308,2.48666 3.18534,3.93866 0.824,1.368 1.46133,2.83067 2.06666,4.29867 -0.444,0.44933 -0.85333,0.932 -1.22266,1.44133 -0.924,-1.924 -1.84134,-3.86666 -3.292,-5.48666 -1.752,-1.96267 -3.94267,-3.568 -5.28934,-5.85467 -0.19333,-0.32533 -0.872,-0.38666 -0.872,0.11334 0,1.69866 -0.009,3.416 0.128,5.11466 -0.51466,-0.17867 -1.03733,-0.42133 -1.48266,-0.70933 -0.0147,-2.636 0.472,-5.28133 0.064,-7.88933 1.07066,0.41333 2.06133,1.07066 2.96266,1.736 1.34,1 2.58,2.12 3.752,3.29733 z m 0.57334,-9.58133 c -10e-4,0.17333 -0.004,0.344 -0.004,0.51733 -0.009,-0.14133 -0.0187,-0.28267 -0.0293,-0.42267 0.0133,-0.028 0.0213,-0.0627 0.0333,-0.0947 z m -0.31467,-13.89334 c -1.212,1.26534 -2.41333,2.544 -3.57867,3.84667 0.0453,-0.736 0.18534,-1.47733 0.188,-2.19467 0,-1.36533 0.0507,-2.736 -0.0267,-4.10133 -0.02,-0.38267 -0.0587,-0.76267 -0.108,-1.14133 0.644,-1.39734 1.512,-2.668 2.50533,-3.86 0.60133,-0.72 1.38133,-1.26934 2.10133,-1.88 0.001,0.0373 0.003,0.0707 0.003,0.10533 0.0373,1.344 0.11733,2.74667 -0.12933,4.07333 -0.296,1.59734 -1.02134,3.43467 -0.95467,5.152 z m 8.39733,-17.63066 c 0.084,2.904 -0.0173,5.812 -0.0347,8.71866 -0.63867,-0.57333 -1.376,-1.064 -2.08134,-1.47466 -1.08,-0.63067 -2.33866,-1.29067 -3.63333,-1.37067 -0.06,-0.916 -0.13333,-1.83067 -0.224,-2.74533 -0.156,-1.528 -0.29067,-3.07867 -0.548,-4.596 -0.22933,-1.368 -0.63333,-2.70134 -1.09333,-4.016 -0.0307,-0.0893 -0.06,-0.17467 -0.092,-0.268 1.39066,0.5 2.70266,1.23866 3.90133,2.06266 1.44267,0.99467 2.868,2.14534 3.77067,3.63867 0.0133,0.0213 0.024,0.0347 0.0347,0.0507 z m 1.088,-12.648 c 0,1.17733 -1.01466,2.15866 -2.236,2.15866 -1.22133,0 -2.23466,-0.98133 -2.23466,-2.15866 0,-1.18 1.01333,-2.16267 2.23466,-2.16267 1.22134,0 2.236,0.98267 2.236,2.16267 z m 3.81334,-0.016 c 0.27466,1.23466 0.492,2.47466 0.66666,3.72133 -0.952,1.08667 -2.17733,1.93333 -3.10933,3.04533 -0.804,0.956 -1.28,2.064 -1.73067,3.188 -0.21066,-2.11866 -0.54133,-4.22666 -0.688,-6.34933 0.32134,-0.10933 0.63734,-0.26933 0.952,-0.50267 0.77067,-0.58 1.28267,-1.44533 1.40667,-2.38266 0.12,-0.94134 -0.15067,-1.9 -0.74667,-2.64934 -0.464,-0.576 -1.27733,-1.17333 -2.084,-1.32266 0.268,-0.96 0.52534,-1.92267 0.828,-2.87467 0.264,-0.84267 0.54267,-1.71467 0.948,-2.516 0.14,0.252 0.284,0.50933 0.41867,0.76 1.37867,2.524 2.50533,5.08267 3.13867,7.88267 z m 20.22266,-1.92934 c -0.59866,0.74934 -0.86933,1.708 -0.74533,2.64934 0.124,0.93733 0.63333,1.80266 1.40667,2.38266 0.312,0.23334 0.62666,0.39334 0.94933,0.50267 -0.14933,2.12267 -0.47733,4.23067 -0.688,6.34933 -0.448,-1.124 -0.924,-2.232 -1.73067,-3.188 -0.92933,-1.112 -2.15733,-1.95866 -3.10933,-3.04533 0.17733,-1.24667 0.392,-2.48667 0.67067,-3.72133 0.62933,-2.8 1.75466,-5.35867 3.13466,-7.88267 0.13467,-0.25067 0.276,-0.508 0.41867,-0.76 0.408,0.80133 0.684,1.67333 0.95067,2.516 0.30266,0.952 0.55733,1.91467 0.82133,2.87467 -0.804,0.14933 -1.616,0.74666 -2.07867,1.32266 z m 0.56667,1.94534 c 0,-1.18 1.016,-2.16267 2.23467,-2.16267 1.21333,0 2.23066,0.98267 2.23066,2.16267 0,1.17733 -1.01733,2.15866 -2.23066,2.15866 -1.21867,0 -2.23467,-0.98133 -2.23467,-2.15866 z m 8.69467,7.164 c -0.45334,1.31466 -0.86,2.648 -1.08934,4.016 -0.25466,1.51733 -0.392,3.068 -0.54933,4.596 -0.088,0.91466 -0.164,1.82933 -0.22533,2.74533 -1.292,0.08 -2.552,0.74 -3.63067,1.37067 -0.704,0.41066 -1.44267,0.90133 -2.08267,1.47466 -0.0173,-2.90666 -0.12133,-5.81466 -0.0333,-8.71866 0.012,-0.016 0.0253,-0.0293 0.0333,-0.0507 0.90134,-1.49333 2.32934,-2.644 3.77067,-3.63867 1.2,-0.824 2.51333,-1.56266 3.90533,-2.06266 -0.032,0.0933 -0.064,0.17866 -0.0987,0.268 z m 0.50533,37.10266 c -0.007,0.14 -0.02,0.28134 -0.028,0.42267 -0.003,-0.17333 -0.003,-0.344 -0.004,-0.51733 0.0107,0.032 0.0213,0.0667 0.032,0.0947 z m 3.67467,-12.336 c 0.003,0.71734 0.14,1.45867 0.18933,2.19467 -1.172,-1.30267 -2.368,-2.58133 -3.58267,-3.84667 0.068,-1.71733 -0.66,-3.55466 -0.95466,-5.152 -0.248,-1.32666 -0.164,-2.72933 -0.128,-4.07333 0,-0.0347 0.003,-0.068 0.003,-0.10533 0.72,0.61066 1.49734,1.16 2.10134,1.88 0.99333,1.192 1.86266,2.46266 2.50533,3.86 -0.0507,0.37866 -0.0867,0.75866 -0.108,1.14133 -0.076,1.36533 -0.028,2.736 -0.0253,4.10133 z m 3.58,16.78934 c -0.40534,2.608 0.08,5.25333 0.064,7.88933 -0.44267,0.288 -0.968,0.53066 -1.48134,0.70933 0.13734,-1.69866 0.12667,-3.416 0.12667,-5.11466 0,-0.5 -0.68133,-0.43867 -0.87333,-0.11334 -1.34667,2.28667 -3.53334,3.892 -5.292,5.85467 -1.44534,1.62 -2.36134,3.56266 -3.28534,5.48666 -0.37066,-0.50933 -0.78133,-0.992 -1.22666,-1.44133 0.61066,-1.468 1.24266,-2.93067 2.06933,-4.29867 0.876,-1.452 1.98133,-2.73066 3.18267,-3.93866 1.17333,-1.17733 2.416,-2.29733 3.756,-3.29733 0.896,-0.66534 1.88933,-1.32267 2.96,-1.736 z m 4.72666,-16.74667 c -0.464,1.42533 -0.844,2.87467 -1.19866,4.328 -0.32,1.292 -0.66667,2.576 -0.78,3.90267 -0.0413,0.5 -0.064,1.016 -0.112,1.52533 -0.35467,-0.52667 -0.71334,-1.04133 -1.07467,-1.54133 -1.26667,-1.752 -2.63867,-3.428 -4.068,-5.064 0.004,-0.0787 0.0107,-0.15867 0.0147,-0.24267 0.29466,-0.412 0.75066,-0.76533 1.108,-1.05467 0.828,-0.66133 1.76133,-1.20933 2.70933,-1.69466 0.94267,-0.48267 1.928,-0.896 2.94133,-1.21334 0.28134,-0.088 0.58667,-0.17733 0.89467,-0.244 -0.15734,0.42934 -0.29467,0.86534 -0.43467,1.29867 z m 7.988,14.90267 c -1.728,0.88266 -3.40933,1.94133 -4.88,3.20933 0.0507,-0.29467 0.11067,-0.592 0.17733,-0.888 0.32134,-1.364 0.896,-2.63467 1.39334,-3.94 0.48933,-1.28933 1.00266,-2.57867 1.70133,-3.776 0.27467,0.156 0.54667,0.312 0.824,0.464 0.604,0.23733 1.22667,0.31467 1.87333,0.24133 0.048,0 0.0947,0 0.13734,-0.004 0.72666,-0.0973 1.16533,-0.296 1.77066,-0.69066 0.30667,-0.204 0.51067,-0.40534 0.672,-0.62934 0.0493,0.001 0.10267,-0.005 0.156,-0.0227 2.192,-0.688 4.53334,-0.896 6.824,-0.66534 -0.76,0.57867 -1.436,1.268 -2.04666,1.97734 -0.71334,0.82533 -1.336,1.71733 -1.90267,2.64533 -2.35733,0.14133 -4.63333,1.02933 -6.7,2.07867 z m 8.12267,18.80799 c -0.0453,-0.0693 -0.116,-0.124 -0.21734,-0.15866 -1.468,-0.50534 -2.528,-1.756 -3.396,-2.95067 -0.572,-0.792 -1.08133,-1.644 -1.5,-2.52933 0.04,-0.008 0.08,-0.012 0.11734,-0.0227 2.484,0.96933 4.84933,2.312 6.99066,3.91333 0.50267,0.72 0.90134,1.54 1.24534,2.344 -0.94667,-0.464 -2.08667,-0.576 -3.24,-0.596 z m 3.88266,2.22 c 1.032,2.68267 1.412,5.664 1.49734,8.536 -0.90934,-1.792 -1.94,-3.96933 -3.66667,-5.19866 -0.38533,-0.75334 -0.81467,-1.48 -1.27733,-2.16934 -0.60934,-0.89866 -1.30934,-1.736 -2.092,-2.49733 0.59866,0.004 1.19866,-0.007 1.792,0.0187 1.23466,0.0587 2.792,0.18266 3.61466,1.19866 0.04,0.044 0.0853,0.0827 0.132,0.112 z m 4.58667,16.3 c -0.224,-1.16 -0.496,-2.28666 -0.96533,-3.41733 -0.40934,-0.98267 -0.89067,-1.93733 -1.37867,-2.888 0.10267,-0.084 0.17733,-0.20267 0.17733,-0.36533 -0.0133,-3.38534 -0.40266,-6.94267 -1.64533,-10.144 -0.244,-0.62667 -0.50933,-1.296 -0.81733,-1.95867 1.27866,1.11867 2.448,2.32533 3.484,3.59867 0.716,0.87466 1.33466,1.808 1.86933,2.77866 0.003,1.884 0.144,3.76934 0.18667,5.656 0.0453,2.308 -0.268,4.52934 -0.91067,6.74 z m -6.89733,2.092 c 1.33333,-2.65333 2.104,-5.536 1.972,-8.55866 -0.0627,-1.37734 -0.34934,-2.74934 -0.8,-4.076 0.0333,0.0493 0.068,0.096 0.1,0.144 0.704,1.01333 1.26,2.11866 1.81333,3.20933 0.65333,1.29067 1.32933,2.57733 1.912,3.89333 0.68933,1.55734 0.95867,3.14 1.25333,4.78934 0.016,0.08 0.0467,0.14533 0.088,0.19733 -1.29466,3.44933 -3.404,6.46667 -6.34933,8.82667 0.532,-2.784 0.476,-5.59467 0.0107,-8.42534 z m -16.13467,23.66667 c 1.51333,-2.26267 2.78,-4.668 3.92533,-7.12 0.58934,-1.268 1.14267,-2.55067 1.68,-3.844 0.22267,-0.53467 0.428,-1.088 0.66134,-1.63067 1.41333,-1.06666 2.764,-2.21466 4.04266,-3.44133 1.95067,-1.86267 3.73867,-3.99067 5.10934,-6.32133 0.18,1.32 0.268,2.64 0.19733,3.98533 -0.0933,1.864 -0.46,3.716 -1.03867,5.49333 -1.10933,3.36934 -3.10933,6.49867 -5.96933,8.72534 -0.84133,0.50266 -1.68533,0.98933 -2.53467,1.46133 -1.26266,0.708 -2.54933,1.38533 -3.83733,2.05067 -1.00133,0.52 -1.96933,1.092 -2.93733,1.65866 0.23866,-0.332 0.476,-0.672 0.70133,-1.01733 z m -19.49333,13.3508 c 0.67467,-1.58947 1.20667,-3.22813 1.58267,-4.90547 0.37066,-1.67466 0.49866,-3.38133 0.676,-5.08266 0.644,-0.68134 1.3,-1.35467 1.96933,-2.01067 2.60933,-2.572 5.79467,-4.62667 8.96133,-6.496 3.04,-1.79467 6.23867,-3.33733 9.244,-5.17733 0.65867,-0.40267 1.30267,-0.824 1.93333,-1.25867 -0.44266,1.09333 -0.91066,2.18133 -1.396,3.264 -1.13333,2.516 -2.39333,4.98 -3.88933,7.31467 -2.96933,4.63066 -6.96533,8.53466 -12.02,11 -0.13866,0.072 -0.216,0.18133 -0.24933,0.29866 -1.59867,0.56534 -3.16,1.23334 -4.65467,2.05467 -0.80666,0.44267 -1.59066,0.928 -2.35333,1.4452 0.0667,-0.14787 0.12933,-0.29747 0.196,-0.4464 z m -13.49867,15.69173 c 0.94534,-3.3532 2.104,-6.65053 3.67467,-9.78226 1.652,-3.2896 3.936,-6.18707 6.228,-9.07894 1.54667,-1.95066 3.14533,-3.86266 4.82533,-5.70533 -0.124,1.216 -0.26,2.43067 -0.50533,3.636 -0.33867,1.68533 -0.90133,3.316 -1.568,4.904 -1.32533,3.1624 -3.14533,6.11093 -5,9.01187 -1.94933,3.05213 -3.956,6.05053 -6.08667,8.9896 -1.016,1.40266 -2.03333,2.79693 -2.99066,4.23853 -0.0787,0.124 -0.164,0.24533 -0.248,0.37187 0.52266,-2.2052 1.05466,-4.40667 1.67066,-6.58534 z m -1.57466,-4.0104 c 0.0173,-0.007 0.032,-0.0136 0.0507,-0.0204 -0.0293,0.13907 -0.0533,0.2724 -0.08,0.40574 -0.024,0.0719 -0.0467,0.1428 -0.0707,0.212 0.0373,-0.19894 0.068,-0.39894 0.1,-0.59734 z m -0.90267,0.38534 c -0.024,-0.13334 -0.0507,-0.26667 -0.0747,-0.40574 0.0133,0.007 0.028,0.0136 0.044,0.0204 0.036,0.1984 0.0667,0.3984 0.0987,0.59734 -0.0213,-0.0692 -0.0453,-0.14014 -0.068,-0.212 z m -15.82667,-17.30547 c -0.24533,-1.20533 -0.37733,-2.42 -0.50666,-3.636 1.68133,1.84267 3.28266,3.75467 4.83066,5.70533 2.288,2.89187 4.57067,5.78934 6.22267,9.07894 1.57067,3.13173 2.73333,6.42906 3.67867,9.78226 0.61333,2.17867 1.148,4.38014 1.66533,6.58534 -0.0813,-0.12654 -0.16267,-0.24787 -0.24533,-0.37187 -0.95467,-1.4416 -1.976,-2.83587 -2.99067,-4.23853 -2.12933,-2.93907 -4.13867,-5.93747 -6.09067,-8.9896 -1.84533,-2.90094 -3.66933,-5.84947 -4.99733,-9.01187 -0.664,-1.588 -1.22667,-3.21867 -1.56667,-4.904 z m -18.35333,-9.11333 c -1.49867,-2.33467 -2.76,-4.79867 -3.89333,-7.31467 -0.48534,-1.08267 -0.952,-2.17067 -1.39734,-3.264 0.63334,0.43467 1.27334,0.856 1.93334,1.25867 3.008,1.84 6.20666,3.38266 9.248,5.17733 3.16533,1.86933 6.34933,3.924 8.964,6.496 0.66666,0.656 1.32,1.32933 1.96533,2.01067 0.17867,1.70133 0.30667,3.408 0.67467,5.08266 0.37466,1.67734 0.90533,3.316 1.58533,4.90547 0.0613,0.14893 0.12667,0.29853 0.19333,0.4464 -0.76,-0.5172 -1.544,-1.00253 -2.352,-1.4452 -1.49733,-0.82133 -3.05866,-1.48933 -4.66,-2.05467 -0.028,-0.11733 -0.104,-0.22666 -0.24266,-0.29866 -5.056,-2.46534 -9.05067,-6.36934 -12.01867,-11 z m -10.724,-15.03467 c 1.28,1.22667 2.628,2.37467 4.04,3.44133 0.232,0.54267 0.43867,1.096 0.66267,1.63067 0.53733,1.29333 1.09066,2.576 1.68,3.844 1.14666,2.452 2.412,4.85733 3.92266,7.12 0.22934,0.34533 0.464,0.68533 0.70667,1.01733 -0.972,-0.56666 -1.93733,-1.13866 -2.93733,-1.65866 -1.29334,-0.66534 -2.57334,-1.34267 -3.83867,-2.05067 -0.848,-0.472 -1.69733,-0.95867 -2.54,-1.46133 -2.85467,-2.22667 -4.85733,-5.356 -5.96267,-8.72534 -0.584,-1.77733 -0.94533,-3.62933 -1.044,-5.49333 -0.0653,-1.34533 0.0227,-2.66533 0.2,-3.98533 1.372,2.33066 3.15867,4.45866 5.11067,6.32133 z m 1.096,-32.26133 c 0.53333,-0.49467 1.78267,0.396 2.23467,0.68266 0.19466,0.124 0.38533,0.25067 0.576,0.37867 -0.66934,0.19067 -1.32934,0.424 -1.97334,0.72267 -1.26666,0.588 -2.448,1.336 -3.516,2.21466 -0.26533,0.0107 -0.54,0.0173 -0.816,0.0173 0.99467,-0.676 1.81867,-1.63867 2.48534,-2.57867 0.30666,-0.43733 0.604,-0.88933 0.876,-1.352 0.044,-0.016 0.0893,-0.0453 0.13333,-0.0853 z m 11.26133,-4.64134 c 0.007,-0.0267 0.007,-0.0547 0.009,-0.0813 0.088,0.044 0.168,0.0907 0.256,0.136 -0.0907,-0.0187 -0.17734,-0.036 -0.26534,-0.0547 z m -2.58533,3.57867 c -0.53867,-0.48533 -1.11333,-0.924 -1.74,-1.316 0.23867,-0.30667 0.44667,-0.632 0.63067,-0.96933 1.86266,-0.052 3.72266,0.18266 5.48666,0.84266 0.13734,0.0533 0.268,0.104 0.40134,0.16134 -1.08,1.156 -3.288,1.048 -4.77867,1.28133 z m 14.764,9.584 c -0.508,2.824 -0.344,5.684 0.20533,8.48 -0.73333,-0.53467 -1.43466,-1.104 -1.93066,-1.86933 -0.10667,-0.16267 -0.25734,-0.28267 -0.42667,-0.36134 2.28667,-4.45333 2.156,-9.868 -1.00667,-13.984 -0.70666,-0.92666 -1.51466,-1.736 -2.39466,-2.43466 0.156,-0.068 0.26666,-0.21734 0.224,-0.43467 -0.35334,-1.93333 -0.41467,-3.908 -0.428,-5.87333 1.24933,1.62 2.824,2.95866 4.24533,4.45866 1.69067,1.78134 2.66667,3.96934 3.71333,6.128 -1.11733,1.79734 -1.832,3.848 -2.20133,5.89067 z m 47.164,-10.16933 c -0.88,0.69866 -1.68667,1.508 -2.39467,2.43466 -3.16533,4.116 -3.28933,9.53067 -1.00666,13.984 -0.17467,0.0787 -0.324,0.19867 -0.428,0.36134 -0.49734,0.76533 -1.19867,1.33466 -1.932,1.86933 0.54933,-2.796 0.716,-5.656 0.208,-8.48 -0.372,-2.04267 -1.088,-4.09333 -2.20134,-5.89067 1.048,-2.15866 2.024,-4.34666 3.712,-6.128 1.42,-1.5 2.99734,-2.83866 4.24534,-4.45866 -0.008,1.96533 -0.0747,3.94 -0.432,5.87333 -0.0387,0.21733 0.072,0.36667 0.22933,0.43467 z m 10.32133,-1.7 c 0.18,0.33733 0.38933,0.66266 0.62533,0.96933 -0.62266,0.392 -1.20133,0.83067 -1.73733,1.316 -1.492,-0.23333 -3.696,-0.12533 -4.78266,-1.28133 0.136,-0.0573 0.27066,-0.108 0.404,-0.16134 1.76666,-0.66 3.62666,-0.89466 5.49066,-0.84266 z m -3.69866,-1.29334 c -0.0867,0.0187 -0.17734,0.036 -0.26134,0.0547 0.0827,-0.0453 0.17067,-0.092 0.25067,-0.136 0.004,0.0267 0.007,0.0547 0.0107,0.0813 z m 13.94133,8.64 c -1.06667,-0.87866 -2.24667,-1.62666 -3.51334,-2.21466 -0.64666,-0.29867 -1.304,-0.532 -1.97333,-0.72267 0.188,-0.128 0.37867,-0.25467 0.57067,-0.37867 0.45466,-0.28666 1.70666,-1.17733 2.23866,-0.68266 0.0413,0.04 0.0853,0.0693 0.132,0.0853 0.27467,0.46267 0.56534,0.91467 0.876,1.352 0.664,0.94 1.49067,1.90267 2.48934,2.57867 -0.28,0 -0.55334,-0.007 -0.82,-0.0173 z m -9.01734,-5.70266 c 0.868,0.87066 1.956,1.54666 3.12934,1.97733 -0.25467,0.172 -0.50934,0.34933 -0.764,0.52267 -1.78667,-0.32 -3.61734,-0.26534 -5.37334,0.116 0.87067,-1.01067 1.848,-1.89734 3.008,-2.616 z m -2.21066,-3.25467 c 0.009,-0.007 0.0173,-0.012 0.0267,-0.0187 2.72667,-1.19733 5.61867,-2.11733 8.58534,-2.53999 -0.32134,1.252 -0.568,2.52533 -0.66667,3.81066 -1.23067,-0.404 -2.48533,-0.72667 -3.75733,-0.95867 -1.388,-0.25066 -2.79867,-0.352 -4.188,-0.29333 z m 4.55066,2.02533 c 1.024,0.208 2.036,0.47734 3.03334,0.80934 0.15066,0.37466 0.31733,0.74266 0.496,1.10666 -0.592,0.0507 -1.22,0.37067 -1.676,0.62 -0.032,0.02 -0.0693,0.036 -0.10267,0.0587 -1.70133,-0.48667 -3.276,-1.50267 -4.23467,-2.95067 0.83467,0.0733 1.66534,0.19467 2.484,0.356 z m -4.05466,19.804 c 0.88133,0.43067 1.72,1.01334 2.43866,1.692 -1.45466,1.21867 -3.28533,1.98 -5.252,1.89467 -0.63733,-0.028 -1.26666,-0.14133 -1.87599,-0.31333 -0.604,-0.768 -0.74134,-1.79734 -1.22667,-2.636 -0.14933,-0.25467 -0.31067,-0.50667 -0.47733,-0.748 0.41466,0.13066 0.83333,0.23333 1.248,0.31066 1.31866,0.24534 2.60533,-0.0587 3.54266,-0.83066 0.56,0.15333 1.1,0.38 1.60267,0.63066 z m -0.83734,-7.704 c 0.22267,-0.0693 0.532,-0.0893 0.78667,-0.0853 0.924,0.0293 1.76267,0.256 2.53867,0.69467 -0.992,0.608 -1.86134,1.38266 -2.628,2.256 -0.0813,-0.99067 -0.35334,-1.97734 -0.69734,-2.86534 z m 0.344,5.55734 c 0.164,-0.40267 0.268,-0.81734 0.32534,-1.24267 0.95066,-1.25733 2.08133,-2.384 3.46666,-3.148 1.99067,1.648 2.27467,4.39067 0.752,6.49733 -0.288,0.396 -0.608,0.77467 -0.94933,1.124 -1.096,-1.056 -2.50933,-1.992 -4.01333,-2.46 0.164,-0.22933 0.30533,-0.48933 0.41866,-0.77066 z m -7.38133,1.45466 c 0.404,0.60934 0.84934,1.196 1.21467,1.83334 0.30533,0.524 0.46533,1.10533 0.688,1.65733 -1.27733,-0.57867 -2.43867,-1.43467 -3.404,-2.40133 -0.23867,-0.23867 -0.46533,-0.49067 -0.68667,-0.74534 0.0907,-0.564 0.16134,-1.12666 0.21067,-1.68666 0.57067,0.53733 1.24533,0.98666 1.97733,1.34266 z m 0.74934,-12.56 c -0.656,0.50667 -1.268,1.068 -1.824,1.684 -0.14134,0.15467 -0.27734,0.31467 -0.41334,0.47867 -0.028,-0.14533 -0.056,-0.296 -0.0853,-0.44667 -0.156,-0.824 -0.38933,-1.78266 0,-2.57733 0.892,-0.14133 1.77867,-0.30267 2.61467,-0.65333 -0.128,0.512 -0.22267,1.02133 -0.292,1.51466 z m 1.04533,-0.73866 c 0.27067,-1.36534 0.78667,-2.79734 1.836,-3.628 0.892,0.26 1.88933,0.34133 2.824,0.45866 -0.48267,0.504 -0.93067,1.03734 -1.35467,1.604 v 0 c -1.16133,0.38267 -2.27466,0.90667 -3.30533,1.56534 z m 2.312,1.56533 c -1.06,2.67867 -3.18267,4.88533 -5.096,7.068 -0.0733,-0.41467 -0.0493,-0.60133 0.0293,-1.11867 0.0827,-0.52 0.22267,-0.876 0.49067,-1.45466 0.41067,-0.876 1.22667,-1.94134 1.932,-2.60934 0.78533,-0.74666 1.68,-1.38266 2.644,-1.88533 z m -6.73067,0.32267 c -0.736,1.04 -1.65733,1.916 -2.588,2.78 0.116,-1.49067 0.532,-2.96534 1.27867,-4.34134 0.44133,-0.12133 0.884,-0.21066 1.33067,-0.284 -0.15867,0.59334 -0.12534,1.216 -0.0213,1.84534 z m -0.19333,9.05466 c -0.028,0.56534 -0.0787,1.128 -0.14533,1.69067 -1.20934,-1.73067 -1.96934,-3.71733 -2.20267,-5.75067 0.41867,0.7 1.01733,1.26934 1.58533,1.896 0.008,0.11334 0.0213,0.22134 0.0413,0.33467 0.12133,0.67733 0.36933,1.284 0.72133,1.82933 z m -0.76267,-3.43066 c -0.544,-0.57334 -1.02,-1.18534 -1.16666,-1.98667 -0.004,-0.0213 -0.0147,-0.0387 -0.02,-0.0627 0.82933,-0.768 1.65733,-1.53066 2.37333,-2.40133 0.0613,0.29333 0.11867,0.58667 0.15733,0.872 -0.7,1.09467 -1.212,2.324 -1.344,3.57867 z m 6.256,19.89333 c -0.49333,0.0707 -0.99466,0.0987 -1.49333,0.096 -0.57467,-0.70267 -1.116,-1.428 -1.65467,-2.152 -0.96133,-1.29467 -2.024,-2.496 -3.18933,-3.628 -1.49733,-1.452 -3.216,-2.632 -5.076,-3.55467 1.428,-1.516 3.51467,-2.37466 4.78267,-4.05333 2.99466,3.87867 8.35466,6.53467 13.18933,4.224 2.13066,-1.01467 4.11733,-2.91867 4.97066,-5.084 0.81734,-2.06533 0.388,-4.388 -1.00533,-6.11333 -1.252,-1.544 -3.148,-2.456 -5.15867,-2.556 -0.78266,-0.0413 -1.67066,0.0387 -2.3,0.552 -0.11066,0.0893 -0.204,0.184 -0.28266,0.28533 -0.672,0.19067 -1.22533,0.83867 -0.89333,1.65867 0.42133,1.04266 0.66666,2.18533 0.55466,3.188 -0.016,0.12666 -0.0347,0.24533 -0.06,0.368 -0.007,0.0227 -0.0107,0.04 -0.0133,0.06 -0.007,0.016 -0.016,0.0453 -0.0267,0.084 -0.0373,0.10933 -0.0867,0.21333 -0.13066,0.316 -0.0133,0.024 -0.0573,0.10266 -0.0893,0.15066 -0.0467,0.0693 -0.104,0.132 -0.15733,0.19467 -0.003,0.005 -0.004,0.009 -0.007,0.0107 -0.0147,0.008 -0.032,0.0227 -0.06,0.0427 -0.024,0.024 -0.16933,0.112 -0.18133,0.12134 -0.10533,0.044 -0.21867,0.0813 -0.32533,0.116 0.224,-0.068 -0.5,0.0267 -0.388,0.028 -0.31867,-0.008 -0.63467,-0.0667 -0.94267,-0.13467 -0.64267,-0.13733 -1.42,-0.456 -1.95867,-0.764 -0.32133,-0.18 -0.58266,-0.364 -0.804,-0.55733 1.76134,-0.924 3.14267,-2.528 4.23067,-4.11067 1.136,-1.644 2.19466,-3.608 2.43866,-5.612 0.77067,-0.204 1.56,-0.336 2.36134,-0.38267 4.16666,-0.244 7.77466,2.07334 10.16266,5.23734 -0.032,2.08266 -0.532,4.17066 -1.20133,6.136 -0.84267,2.484 -2.03067,4.86666 -3.48667,7.06666 -2.67733,4.02934 -6.67733,8.056 -11.80533,8.76667 z m 1.17867,5.82533 c 0.75333,0.40934 1.54133,0.72267 2.35733,0.93334 -1.27466,0.71733 -2.568,1.404 -3.85066,2.11066 -1.55467,0.85334 -3.1,1.728 -4.60934,2.652 -0.27066,-0.39733 -0.544,-0.79333 -0.81466,-1.184 2.29866,-1.47066 4.97866,-2.596 6.91733,-4.512 z m -2.43867,-1.75333 c 0.51467,0.46667 1.06534,0.89467 1.644,1.27733 -1.87066,1.79467 -4.448,2.86934 -6.64,4.268 -0.24,-0.33866 -0.492,-0.672 -0.73866,-0.99733 2.27733,-0.808 4.17733,-2.784 5.73466,-4.548 z m -4.10533,0.12933 c 0.736,-0.70266 1.43867,-1.48133 2.02267,-2.32133 0.45066,0.54133 0.92666,1.06933 1.42666,1.57333 -0.768,0.86134 -1.57733,1.68534 -2.456,2.43867 -0.91866,0.79867 -1.98933,1.64267 -3.196,1.99333 -0.33466,-0.41866 -0.67733,-0.828 -1.03466,-1.22933 1.20666,-0.64 2.26133,-1.51733 3.23733,-2.45467 z m -4.73467,0.89467 c -0.14,-0.13333 -0.27733,-0.26267 -0.42133,-0.38933 1.20533,-0.70934 2.17733,-1.75734 3.05333,-2.81067 0.72,-0.86533 1.37467,-1.78267 1.988,-2.71867 0.516,0.65067 1.024,1.312 1.54667,1.97467 -0.576,0.864 -1.28133,1.64533 -2.01333,2.376 -0.948,0.944 -2.04667,1.85067 -3.27467,2.44933 -0.288,-0.29466 -0.57733,-0.59333 -0.87867,-0.88133 z m -1.80933,9.04667 c -1.21467,0 -2.22933,-0.98134 -2.22933,-2.164 0,-1.17734 1.01466,-2.16 2.22933,-2.16 1.21733,0 2.236,0.98266 2.236,2.16 0,1.18266 -1.01867,2.164 -2.236,2.164 z m -1.888,0.64933 c 0.71867,0.49333 1.43467,0.56133 2.30133,0.56133 0.27334,0 0.53867,-0.0453 0.784,-0.13333 -0.0373,0.12267 -0.0507,0.24133 -0.048,0.35733 -2.7,2.21467 -5.07066,4.79334 -7.33733,7.42 -2.01333,2.34134 -4.01467,4.756 -5.836,7.26534 2.788,-5.49867 6.092,-10.76934 10.136,-15.47067 z m -10.24267,10.80667 c 2.23467,-5.45467 5.304,-10.69067 9.38534,-15.056 0.004,0.007 0.004,0.016 0.007,0.0267 -0.38533,0.63467 -0.57066,1.39334 -0.484,2.06267 0.0773,0.56533 0.316,1.104 0.67734,1.55067 -5.23467,6.05733 -9.24134,13.08133 -12.5,20.30413 0.75066,-3.02293 1.72533,-5.99747 2.91466,-8.88813 z m -1.248,-2.04 c 0.872,-2.38134 1.74267,-4.76134 2.744,-7.092 0.93467,-2.18934 1.88667,-4.38 2.468,-6.68934 0.56267,0.26534 1.19467,0.36534 1.82,0.292 0.72134,-0.088 1.396,-0.416 1.90534,-0.91866 0.148,0.11333 0.30133,0.21333 0.46533,0.304 -3.464,3.71066 -6.22533,8.00666 -8.40267,12.55066 -1.45866,3.036 -2.632,6.20267 -3.57733,9.432 -0.36,1.2292 -0.67733,2.46667 -0.96933,3.712 0.86133,-3.94946 2.15066,-7.784 3.54666,-11.59066 z m -1.50266,-14.41467 c 0.49866,-0.61733 0.76933,-1.38667 0.77733,-2.16533 0.32,-0.12534 0.66933,-0.24934 1.03067,-0.344 -0.12,0.41866 -0.24,0.84133 -0.368,1.26133 -0.556,1.83867 -1.20534,3.64133 -1.732,5.48933 -0.556,1.92934 -1.048,3.88134 -1.46,5.84934 -0.83067,3.93333 -1.368,7.92666 -1.92934,11.9052 -0.016,-6.89054 -0.16666,-13.79587 0.71067,-20.64654 0.168,0.008 0.33467,0.0133 0.512,0.0133 0.92,0 1.92533,-0.692 2.45867,-1.36267 z m -2.24,-17.60933 c 0.60533,-0.22534 1.23066,-0.41467 1.87466,-0.56267 -0.096,2.89867 -0.53066,5.784 -0.91466,8.65867 -0.23734,0.0413 -0.47867,0.0893 -0.716,0.14133 -0.148,0.0333 -0.292,0.072 -0.43867,0.10133 -0.28533,-2.76666 0.52133,-5.58266 0.19467,-8.33866 z m -3.728,8.33866 c -0.14667,-0.0293 -0.29334,-0.068 -0.43867,-0.10133 -0.24,-0.052 -0.48,-0.1 -0.71867,-0.14133 -0.38533,-2.87467 -0.81466,-5.76 -0.91333,-8.65867 0.64533,0.148 1.26933,0.33733 1.87733,0.56267 -0.328,2.756 0.48,5.572 0.19334,8.33866 z m -0.68134,19.36134 c -0.41333,-1.968 -0.904,-3.92 -1.46133,-5.84934 -0.53067,-1.848 -1.176,-3.65066 -1.73467,-5.48933 -0.12666,-0.42 -0.24666,-0.84267 -0.364,-1.26133 0.35867,0.0947 0.70534,0.21866 1.028,0.344 0.007,0.77866 0.27734,1.548 0.77467,2.16533 0.53467,0.67067 1.54267,1.36267 2.464,1.36267 0.17467,0 0.34267,-0.005 0.50933,-0.0133 0.87734,6.85067 0.72667,13.756 0.70667,20.64654 -0.556,-3.97854 -1.096,-7.97187 -1.92267,-11.9052 z m -4.26,2.77066 c -2.17466,-4.544 -4.93866,-8.84 -8.39466,-12.55066 0.16,-0.0907 0.312,-0.19067 0.45866,-0.304 0.50934,0.50266 1.18267,0.83066 1.90934,0.91866 0.624,0.0733 1.25866,-0.0267 1.81866,-0.292 0.57867,2.30934 1.532,4.5 2.46934,6.68934 0.99733,2.33066 1.86533,4.71066 2.74266,7.092 1.39334,3.80666 2.68667,7.6412 3.544,11.59066 -0.288,-1.24533 -0.60533,-2.4828 -0.96533,-3.712 -0.95067,-3.22933 -2.12267,-6.396 -3.58267,-9.432 z m -9.83066,-7.82266 c 0.36666,-0.44667 0.60266,-0.98534 0.67466,-1.55067 0.0907,-0.66933 -0.0973,-1.428 -0.48133,-2.06267 0,-0.0107 0.007,-0.02 0.007,-0.0267 4.08,4.36533 7.15466,9.60133 9.388,15.056 1.184,2.89066 2.164,5.8652 2.912,8.88813 -3.26,-7.2228 -7.26534,-14.2468 -12.5,-20.30413 z m -2.95867,1.17066 c 0.86933,0 1.58267,-0.068 2.29733,-0.56133 4.04934,4.70133 7.35334,9.972 10.14,15.47067 -1.82,-2.50934 -3.82266,-4.924 -5.83866,-7.26534 -2.26134,-2.62666 -4.63334,-5.20533 -7.33334,-7.42 0,-0.116 -0.0133,-0.23466 -0.0493,-0.35733 0.24933,0.088 0.50933,0.13333 0.784,0.13333 z m 0.41067,-5.53466 c 1.21866,0 2.23466,0.98266 2.23466,2.16 0,1.18266 -1.016,2.164 -2.23466,2.164 -1.216,0 -2.23334,-0.98134 -2.23334,-2.164 0,-1.17734 1.01734,-2.16 2.23334,-2.16 z m -5.95867,-6.29067 c -0.732,-0.73067 -1.44,-1.512 -2.012,-2.376 0.52133,-0.66267 1.03067,-1.324 1.544,-1.97467 0.61867,0.936 1.268,1.85334 1.98933,2.71867 0.87467,1.05333 1.84934,2.10133 3.05067,2.81067 -0.14,0.12666 -0.284,0.256 -0.41733,0.38933 -0.30534,0.288 -0.596,0.58667 -0.88134,0.88133 -1.22533,-0.59866 -2.324,-1.50533 -3.27333,-2.44933 z m -1.57733,2.364 c -0.87467,-0.75333 -1.68934,-1.57733 -2.45867,-2.43867 0.50267,-0.504 0.97867,-1.032 1.43067,-1.57333 0.58933,0.84 1.28533,1.61867 2.02266,2.32133 0.976,0.93734 2.03334,1.81467 3.23867,2.45467 -0.35867,0.40133 -0.7,0.81067 -1.03733,1.22933 -1.204,-0.35066 -2.276,-1.19466 -3.196,-1.99333 z m -4.756,-0.54267 c 0.58266,-0.38266 1.128,-0.81066 1.64666,-1.27733 1.55867,1.764 3.45467,3.74 5.736,4.548 -0.25466,0.32533 -0.49866,0.65867 -0.74133,0.99733 -2.192,-1.39866 -4.772,-2.47333 -6.64133,-4.268 z m -0.79334,0.476 c 1.94134,1.916 4.62134,3.04134 6.91867,4.512 -0.27733,0.39067 -0.54267,0.78667 -0.81333,1.184 -1.51334,-0.924 -3.05467,-1.79866 -4.60934,-2.652 -1.28666,-0.70666 -2.57866,-1.39333 -3.84933,-2.11066 0.81467,-0.21067 1.6,-0.524 2.35333,-0.93334 z m 13.64267,-2.64 c -0.42267,0.28267 -0.828,0.59334 -1.224,0.912 -1.336,-0.68666 -2.39333,-1.89733 -3.29867,-3.044 -0.66666,-0.844 -1.28266,-1.72133 -1.86666,-2.61866 0.63333,-0.776 1.28666,-1.52667 2,-2.23467 0.56266,1.41867 1.348,2.79067 2.12133,4.088 0.49067,0.81467 1.008,1.656 1.67467,2.35333 0.17866,0.18934 0.37466,0.38134 0.59333,0.544 z m -0.0987,-5.3 c 0.54934,1.38134 1.14134,2.93334 2.25867,3.99467 -0.456,0.24 -0.904,0.49867 -1.33867,0.768 -0.41333,-0.0707 -0.91866,-0.78267 -1.12933,-1.05467 -0.58133,-0.748 -1.08667,-1.552 -1.54533,-2.37466 -0.66534,-1.18134 -1.34667,-2.412 -1.82134,-3.68934 0.348,-0.308 0.71067,-0.608 1.08934,-0.892 0.284,-0.21066 0.572,-0.408 0.86533,-0.60266 0.39333,1.32533 1.12267,2.60133 1.62133,3.85066 z m 2.228,-2.35066 c 0.47867,1.12266 0.992,2.23733 1.54534,3.33066 0.31733,0.62134 0.62533,1.28667 1.03466,1.87067 -0.572,0.21733 -1.136,0.456 -1.68933,0.71333 -1.22533,-0.97466 -1.79067,-2.66266 -2.33733,-4.056 -0.5,-1.25733 -1.248,-2.52933 -1.59467,-3.85866 0.62133,-0.36267 1.26667,-0.69067 1.93067,-0.98267 0.28666,1.02 0.69333,2.00933 1.11066,2.98267 z m 32.59867,-6.13734 c -0.80667,-0.26 -1.63333,-0.47733 -2.46667,-0.656 0.003,-2.124 0.009,-4.21333 -0.56266,-6.28133 -0.64134,-2.32133 -2.31867,-4.08267 -4.36667,-5.35867 -2.72667,-1.70266 -5.83467,-1.928 -8.80267,-1.24666 -2.968,-0.68134 -6.076,-0.456 -8.80533,1.24666 -2.04667,1.276 -3.72267,3.03734 -4.36533,5.35867 -0.57334,2.068 -0.56267,4.15733 -0.56,6.28133 -0.836,0.17867 -1.65734,0.396 -2.46934,0.656 -0.86,-2.612 -0.816,-5.47733 -0.216,-8.136 0.54667,-2.43466 1.524,-4.93333 3.45067,-6.66266 1.73067,-1.55467 3.93067,-2.452 6.244,-2.83734 1.46,-0.24266 2.90667,-0.292 4.35333,0.0493 0.81867,0.19466 1.60267,0.476 2.368,0.8 0.764,-0.324 1.548,-0.60534 2.36267,-0.8 1.44933,-0.34134 2.89733,-0.292 4.36,-0.0493 2.308,0.38534 4.51067,1.28267 6.24133,2.83734 1.92667,1.72933 2.904,4.228 3.44934,6.66266 0.6,2.65867 0.64666,5.524 -0.21467,8.136 z m -6.236,17.552 c 0,-1.18133 1.01467,-2.16133 2.23333,-2.16133 1.21867,0 2.232,0.98 2.232,2.16133 0,1.17467 -1.01333,2.16 -2.232,2.16 -1.21866,0 -2.23333,-0.98533 -2.23333,-2.16 z m -2.676,1.304 c 0.17733,-0.59333 0.34133,-1.188 0.51067,-1.78266 0.32666,0.048 0.63733,0.14666 0.912,0.32133 0.0813,0.0507 0.16133,0.0747 0.24266,0.0747 0.003,0.0747 0.009,0.152 0.0187,0.22533 0.024,0.45467 0.19467,0.82133 0.40933,1.18533 0.184,0.37467 0.428,0.7 0.74134,0.97867 -0.012,0.0213 -0.0187,0.0427 -0.0253,0.068 -0.56666,2.42933 -1.604,4.72667 -2.584,7.01867 -0.996,2.33333 -1.85733,4.71733 -2.728,7.09733 -0.93733,2.55733 -1.82,5.13067 -2.56,7.7416 0.54934,-3.9216 1.09867,-7.85493 1.9,-11.73893 0.408,-1.98534 0.91467,-3.952 1.48134,-5.89867 0.516,-1.776 1.15066,-3.51733 1.68133,-5.29067 z m -15.19067,-20.17333 c -0.17866,0.007 -0.35866,0.007 -0.53733,0.0133 -0.216,0.007 -0.428,0.0187 -0.63867,0.028 -0.21066,-0.95466 0.17734,-2.17866 0.46134,-2.96 0.51066,-1.39466 1.32666,-2.65866 2.52933,-3.59466 1.80267,-1.40534 3.99333,-1.81067 6.08933,-1.38534 2.09734,-0.42533 4.288,-0.02 6.08667,1.38534 1.204,0.936 2.02267,2.2 2.53333,3.59466 0.284,0.78134 0.66934,2.00534 0.46,2.96 -0.21066,-0.009 -0.42133,-0.0213 -0.63733,-0.028 -0.17867,-0.007 -0.36267,-0.007 -0.54,-0.0133 0.408,-2.49733 -1.68533,-4.49333 -3.792,-5.57333 -1.16933,-0.59734 -2.67733,-1.036 -4.11067,-1.008 -1.43333,-0.028 -2.93733,0.41066 -4.112,1.008 -2.104,1.08 -4.20133,3.076 -3.792,5.57333 z m -1.47733,20.19733 c 0.21467,-0.364 0.38933,-0.73066 0.41067,-1.18533 0.008,-0.0733 0.0173,-0.15067 0.02,-0.22533 0.0787,0 0.16133,-0.024 0.24,-0.0747 0.27733,-0.17467 0.58533,-0.27333 0.912,-0.32133 0.16933,0.59466 0.33333,1.18933 0.51333,1.78266 0.52667,1.77334 1.16267,3.51467 1.68133,5.29067 0.564,1.94667 1.068,3.91333 1.47734,5.89867 0.80533,3.884 1.35333,7.81733 1.904,11.73893 -0.73867,-2.61093 -1.62267,-5.18427 -2.56,-7.7416 -0.87734,-2.38 -1.732,-4.764 -2.73067,-7.09733 -0.98,-2.292 -2.01733,-4.58934 -2.584,-7.01867 -0.005,-0.0253 -0.0173,-0.0467 -0.024,-0.068 0.31067,-0.27867 0.56133,-0.604 0.74,-0.97867 z m -2.81467,-3.48933 c 1.216,0 2.232,0.98 2.232,2.16133 0,1.17467 -1.016,2.16 -2.232,2.16 -1.21866,0 -2.23333,-0.98533 -2.23333,-2.16 0,-1.18133 1.01467,-2.16133 2.23333,-2.16133 z m 0.85734,-4.83733 c -0.324,0.08 -0.648,0.172 -0.97067,0.26533 -0.212,0.068 -0.42133,0.13333 -0.632,0.20267 -0.008,-0.008 -0.0147,-0.0187 -0.0213,-0.0307 -0.408,-0.53067 -0.7,-1.16133 -0.99734,-1.752 -0.46933,-0.932 -0.912,-1.86667 -1.328,-2.81867 -0.42133,-0.95333 -0.83066,-1.916 -1.16533,-2.90533 -0.0773,-0.23067 -0.15333,-0.464 -0.21467,-0.70133 0.80134,-0.30534 1.63467,-0.55867 2.48934,-0.764 0.46,2.93066 1.46,5.868 2.84,8.504 z m 0.32533,-9.10934 c 0.04,0.24 0.0773,0.476 0.13733,0.70134 0.29067,1.05466 0.58267,2.10533 0.864,3.16266 0.42267,1.59467 0.87334,3.18134 1.39734,4.74667 -0.60934,0.072 -1.216,0.16533 -1.816,0.288 -1.396,-2.63333 -2.404,-5.56 -2.86134,-8.49333 0.75467,-0.15734 1.51467,-0.29734 2.27867,-0.40534 z m 22.17067,-2.536 c -0.39067,-0.052 -0.77867,-0.0907 -1.16534,-0.11866 0.144,-0.96267 -0.128,-2.06134 -0.37466,-2.88934 -0.50267,-1.69333 -1.47067,-3.15466 -2.836,-4.316 -1.936,-1.65333 -4.416,-2.12666 -6.78134,-1.68533 -2.36933,-0.44133 -4.84666,0.032 -6.78533,1.68533 -1.36133,1.16134 -2.32933,2.62267 -2.83067,4.316 -0.248,0.828 -0.52266,1.92667 -0.37466,2.88934 -0.388,0.028 -0.77734,0.0667 -1.16667,0.11866 -0.0107,-1.64266 -0.0133,-3.31066 0.4,-4.90533 0.46,-1.788 1.63733,-3.06667 3.188,-4.08267 2.32667,-1.52266 5.028,-1.596 7.56933,-0.884 2.54,-0.712 5.24267,-0.63866 7.57067,0.884 1.544,1.016 2.72667,2.29467 3.188,4.08267 0.41067,1.59467 0.41067,3.26267 0.39867,4.90533 z m 3.02266,3.14134 c 0.85334,0.20533 1.68134,0.45866 2.48934,0.764 -0.0613,0.23733 -0.13867,0.47066 -0.21867,0.70133 -0.332,0.98933 -0.74267,1.952 -1.16133,2.90533 -0.41734,0.952 -0.86134,1.88667 -1.32934,2.81867 -0.3,0.59067 -0.59066,1.22133 -0.99866,1.752 -0.007,0.012 -0.0147,0.0227 -0.02,0.0307 -0.21067,-0.0693 -0.42134,-0.13467 -0.63467,-0.20267 -0.31867,-0.0933 -0.64267,-0.18533 -0.968,-0.26533 1.37733,-2.636 2.376,-5.57334 2.84133,-8.504 z m -3.752,8.29333 c -0.6,-0.12267 -1.20266,-0.216 -1.81466,-0.288 0.52133,-1.56533 0.97066,-3.152 1.396,-4.74667 0.28533,-1.05733 0.57333,-2.108 0.864,-3.16266 0.064,-0.22534 0.1,-0.46134 0.13866,-0.70134 0.76667,0.108 1.52267,0.248 2.27734,0.40534 -0.45334,2.93333 -1.468,5.86 -2.86134,8.49333 z M 426.56266,426.372 c 0.68266,0.0293 1.35866,0.0947 2.02933,0.204 0.0747,2.90134 0.50133,5.8 0.89067,8.68267 -0.33867,-0.0427 -0.67734,-0.0773 -1.01467,-0.104 -0.244,-1.35867 -0.73067,-2.684 -1.14667,-3.992 -0.47333,-1.50933 -1.05066,-3.19067 -0.75866,-4.79067 z m -0.196,4.764 c 0.40933,1.30134 0.90266,2.62 1.16933,3.97334 -0.628,-0.0227 -1.256,-0.005 -1.88267,0.036 -0.56266,-1.65067 -1.04,-3.32934 -1.48266,-5.012 -0.23734,-0.90134 -0.47334,-1.80134 -0.73467,-2.69467 -0.0853,-0.304 -0.17067,-0.62 -0.24133,-0.92933 0.816,-0.0947 1.632,-0.144 2.44933,-0.148 -0.26533,1.59066 0.25467,3.26666 0.72267,4.77466 z m 11.84533,4.01867 c -0.33867,0.0267 -0.676,0.0613 -1.012,0.104 0.388,-2.88267 0.816,-5.78133 0.89067,-8.68267 0.67066,-0.10933 1.348,-0.17466 2.028,-0.204 0.29066,1.6 -0.28267,3.28134 -0.76,4.79067 -0.412,1.308 -0.90134,2.63333 -1.14667,3.992 z m 2.10267,-4.01867 c 0.47066,-1.508 0.98933,-3.184 0.72533,-4.77466 0.81467,0.004 1.63333,0.0533 2.44533,0.148 -0.0693,0.30933 -0.15066,0.62533 -0.244,0.92933 -0.256,0.89333 -0.492,1.79333 -0.73066,2.69467 -0.44267,1.68266 -0.92,3.36133 -1.48267,5.012 -0.62533,-0.0413 -1.252,-0.0587 -1.88133,-0.036 0.26266,-1.35334 0.76133,-2.672 1.168,-3.97334 z m 10.87466,2.032 c -0.548,1.39334 -1.112,3.08134 -2.344,4.056 -0.54933,-0.25733 -1.112,-0.496 -1.68266,-0.71333 0.40533,-0.584 0.716,-1.24933 1.032,-1.87067 0.556,-1.09333 1.06533,-2.208 1.54666,-3.33066 0.41867,-0.97334 0.824,-1.96267 1.10934,-2.98267 0.664,0.292 1.30933,0.62 1.932,0.98267 -0.348,1.32933 -1.09467,2.60133 -1.59334,3.85866 z m 5.068,-1.19333 c 0.71467,0.708 1.37067,1.45867 2.00267,2.23467 -0.58533,0.89733 -1.19867,1.77466 -1.868,2.61866 -0.90667,1.14667 -1.96133,2.35734 -3.29733,3.044 -0.396,-0.31866 -0.804,-0.62933 -1.22267,-0.912 0.21467,-0.16266 0.41333,-0.35466 0.59333,-0.544 0.66667,-0.69733 1.18134,-1.53866 1.672,-2.35333 0.77734,-1.29733 1.55867,-2.66933 2.12,-4.088 z m -2.53333,3.01867 c -0.46267,0.82266 -0.968,1.62666 -1.54667,2.37466 -0.21333,0.272 -0.716,0.984 -1.12933,1.05467 -0.43467,-0.26933 -0.88133,-0.528 -1.33733,-0.768 1.11733,-1.06133 1.708,-2.61333 2.25866,-3.99467 0.5,-1.24933 1.22534,-2.52533 1.62134,-3.85066 0.29466,0.19466 0.58266,0.392 0.86533,0.60266 0.38133,0.284 0.74133,0.584 1.08667,0.892 -0.47467,1.27734 -1.15734,2.508 -1.81867,3.68934 z M 410.19332,415.252 c -0.236,2.03334 -0.99866,4.02 -2.20533,5.75067 -0.068,-0.56267 -0.12133,-1.12533 -0.14667,-1.69067 0.34934,-0.54533 0.60534,-1.152 0.71734,-1.82933 0.0227,-0.11333 0.0387,-0.22133 0.0493,-0.33467 0.56267,-0.62666 1.16267,-1.196 1.58533,-1.896 z m -0.4,-1.42 c -0.009,0.024 -0.016,0.0413 -0.02,0.0627 -0.14666,0.80133 -0.62933,1.41333 -1.16533,1.98667 -0.13467,-1.25467 -0.64667,-2.484 -1.34667,-3.57867 0.04,-0.28533 0.0973,-0.57867 0.156,-0.872 0.716,0.87067 1.54534,1.63333 2.376,2.40133 z m -2.16666,-5.42 c 0.44533,0.0733 0.892,0.16267 1.33066,0.284 0.748,1.376 1.16134,2.85067 1.276,4.34134 -0.932,-0.864 -1.844,-1.74 -2.584,-2.78 0.10134,-0.62934 0.14134,-1.252 -0.0227,-1.84534 z m -7.70134,-1.608 v 0 c -0.42533,-0.56666 -0.87466,-1.1 -1.35333,-1.604 0.93467,-0.11733 1.92933,-0.19866 2.824,-0.45866 1.04933,0.83066 1.564,2.26266 1.83333,3.628 -1.02933,-0.65867 -2.14533,-1.18267 -3.304,-1.56534 z m 5.568,7.62534 c 0.268,0.57866 0.408,0.93466 0.492,1.45466 0.08,0.51734 0.1,0.704 0.0293,1.11867 -1.912,-2.18267 -4.03867,-4.38933 -5.1,-7.068 0.96666,0.50267 1.86133,1.13867 2.648,1.88533 0.70133,0.668 1.52133,1.73334 1.93066,2.60934 z m 1.104,-3.60534 c -0.0293,0.15067 -0.06,0.30134 -0.0853,0.44667 -0.132,-0.164 -0.26933,-0.324 -0.41333,-0.47867 -0.556,-0.616 -1.16934,-1.17733 -1.82267,-1.684 -0.0693,-0.49333 -0.16667,-1.00266 -0.29467,-1.51466 0.83734,0.35066 1.72267,0.512 2.616,0.65333 0.392,0.79467 0.15734,1.75333 0,2.57733 z m -2.79066,12.67734 c 0.37066,-0.63734 0.812,-1.224 1.21866,-1.83334 0.73067,-0.356 1.408,-0.80533 1.97467,-1.34266 0.0507,0.56 0.124,1.12266 0.21333,1.68666 -0.22,0.25467 -0.45066,0.50667 -0.688,0.74534 -0.96533,0.96666 -2.124,1.82266 -3.404,2.40133 0.22134,-0.552 0.38534,-1.13333 0.68534,-1.65733 z M 397.14799,422.36 c 0.50533,-0.25066 1.04667,-0.47733 1.604,-0.63066 0.936,0.772 2.22533,1.076 3.54267,0.83066 0.41333,-0.0773 0.83466,-0.18 1.25066,-0.31066 -0.16666,0.24133 -0.33333,0.49333 -0.48,0.748 -0.48533,0.83866 -0.62133,1.868 -1.228,2.636 -0.608,0.172 -1.23466,0.28533 -1.87066,0.31333 -1.97067,0.0853 -3.79867,-0.676 -5.25334,-1.89467 0.716,-0.67866 1.55734,-1.26133 2.43467,-1.692 z m -2.484,-7.09466 c 0.776,-0.43867 1.61333,-0.66534 2.53733,-0.69467 0.25334,-0.004 0.564,0.016 0.788,0.0853 -0.348,0.888 -0.62,1.87467 -0.70266,2.86534 -0.76667,-0.87334 -1.636,-1.648 -2.62267,-2.256 z m 2.65467,3.70533 c 0.0573,0.42533 0.15866,0.84 0.32133,1.24267 0.11467,0.28133 0.256,0.54133 0.42267,0.77066 -1.50267,0.468 -2.92134,1.404 -4.012,2.46 -0.34667,-0.34933 -0.664,-0.728 -0.94934,-1.124 -1.52533,-2.10666 -1.23866,-4.84933 0.74934,-6.49733 1.38533,0.764 2.51466,1.89067 3.468,3.148 z M 396.02132,408.568 c 0.79467,0.0467 1.58667,0.17867 2.356,0.38267 0.24534,2.004 1.30667,3.968 2.43867,5.612 1.092,1.58267 2.472,3.18667 4.232,4.11067 -0.22267,0.19333 -0.48267,0.37733 -0.80133,0.55733 -0.544,0.308 -1.316,0.62667 -1.96,0.764 -0.31067,0.068 -0.62267,0.12667 -0.944,0.13467 0.11333,-0.001 -0.60934,-0.096 -0.38267,-0.028 -0.112,-0.0347 -0.22267,-0.072 -0.33067,-0.116 -0.0107,-0.009 -0.156,-0.0973 -0.17866,-0.12134 -0.0307,-0.02 -0.0467,-0.0347 -0.0627,-0.0427 -0.003,-0.001 -0.003,-0.005 -0.007,-0.0107 -0.0547,-0.0627 -0.108,-0.12533 -0.15866,-0.19467 -0.028,-0.048 -0.0773,-0.12666 -0.0853,-0.15066 -0.048,-0.10267 -0.0947,-0.20667 -0.128,-0.316 -0.016,-0.0387 -0.024,-0.068 -0.0333,-0.084 -0.004,-0.02 -0.005,-0.0373 -0.009,-0.06 -0.0253,-0.12267 -0.0493,-0.24134 -0.0613,-0.368 -0.116,-1.00267 0.13334,-2.14534 0.55334,-3.188 0.328,-0.82 -0.22134,-1.468 -0.89467,-1.65867 -0.08,-0.10133 -0.17067,-0.196 -0.284,-0.28533 -0.62667,-0.51334 -1.512,-0.59334 -2.3,-0.552 -2.00667,0.1 -3.908,1.012 -5.15333,2.556 -1.39467,1.72533 -1.82667,4.048 -1.012,6.11333 0.85466,2.16533 2.84,4.06933 4.97733,5.084 4.83733,2.31067 10.19333,-0.34533 13.188,-4.224 1.264,1.67867 3.356,2.53733 4.78267,4.05333 -1.86134,0.92267 -3.58267,2.10267 -5.08,3.55467 -1.15867,1.132 -2.22534,2.33333 -3.18934,3.628 -0.536,0.724 -1.07866,1.44933 -1.652,2.152 -0.49866,0.003 -0.99866,-0.0253 -1.49333,-0.096 -5.128,-0.71067 -9.12933,-4.73733 -11.80133,-8.76667 -1.45867,-2.2 -2.64534,-4.58266 -3.49067,-7.06666 -0.66933,-1.96534 -1.16933,-4.05334 -1.20133,-6.136 2.38666,-3.164 5.996,-5.48134 10.16666,-5.23734 z m -0.58133,-4.78266 c 1.15467,0.71866 2.13733,1.60533 3.008,2.616 -1.76133,-0.38134 -3.59067,-0.436 -5.38133,-0.116 -0.25334,-0.17334 -0.50667,-0.35067 -0.76134,-0.52267 1.172,-0.43067 2.264,-1.10667 3.13467,-1.97733 z m -6.41067,-5.81333 c 2.968,0.42266 5.86534,1.34266 8.58934,2.53999 0.009,0.007 0.0187,0.012 0.0253,0.0187 -1.39067,-0.0587 -2.796,0.0427 -4.18933,0.29333 -1.26667,0.232 -2.524,0.55467 -3.75334,0.95867 -0.096,-1.28533 -0.34666,-2.55866 -0.672,-3.81066 z m 1.032,5.39333 c 0.99867,-0.332 2.01067,-0.60134 3.03067,-0.80934 0.82133,-0.16133 1.652,-0.28266 2.48533,-0.356 -0.95733,1.448 -2.532,2.464 -4.23333,2.95067 -0.0333,-0.0227 -0.0667,-0.0387 -0.1,-0.0587 -0.456,-0.24933 -1.08667,-0.56933 -1.68267,-0.62 0.18267,-0.364 0.34934,-0.732 0.5,-1.10666 z m 44.07467,17.59333 c -0.26933,0.0187 -0.53333,0.0627 -0.79467,0.12 -0.26266,-0.0573 -0.52666,-0.10133 -0.79333,-0.12 -1.028,-0.0853 -2.28133,0.0627 -3.12533,0.72533 -0.42934,0.216 -0.81067,0.50934 -1.10267,0.89867 -0.26667,0.36267 -0.59467,0.86133 -0.69333,1.35467 -0.41867,-0.0373 -0.844,-0.0627 -1.26534,-0.0747 -0.43333,-2.21733 1.57467,-4.024 3.47334,-4.88933 1.02533,-0.472 2.30133,-0.844 3.50666,-0.81334 1.20667,-0.0307 2.48,0.34134 3.51067,0.81334 1.89333,0.86533 3.90133,2.672 3.46933,4.88933 -0.42666,0.012 -0.84666,0.0373 -1.268,0.0747 -0.1,-0.49334 -0.42266,-0.992 -0.69333,-1.35467 -0.288,-0.38933 -0.67067,-0.68267 -1.09867,-0.89867 -0.84666,-0.66266 -2.1,-0.81066 -3.12533,-0.72533 z m -1.18533,4.228 c 0.144,-0.0693 0.27733,-0.15733 0.39066,-0.26933 0.11067,0.112 0.24267,0.2 0.38934,0.26933 -0.13067,0.0533 -0.26,0.11067 -0.38934,0.168 -0.13066,-0.0573 -0.26,-0.11467 -0.39066,-0.168 z m 1.268,10.69867 c -0.29467,0.0867 -0.588,0.18133 -0.87734,0.28133 -0.288,-0.1 -0.58533,-0.19467 -0.88,-0.28133 0.31734,-2.724 -0.46,-5.5 -0.20533,-8.21067 0.36933,0.16 0.73067,0.34533 1.08533,0.54 0.35334,-0.19467 0.71334,-0.38 1.08267,-0.54 0.25467,2.71067 -0.52,5.48667 -0.20533,8.21067 z m 35.47999,-38.884 c -0.008,-0.584 0.0133,-1.156 0.06,-1.72533 1.512,-1.47867 3.348,-2.67867 5.22,-3.668 1.82,-0.95867 3.89467,-1.83467 6.00134,-2.072 -0.37067,0.668 -0.716,1.34666 -1.04134,2.03066 -0.83733,1.76934 -1.50666,3.608 -2.03866,5.484 -2.86934,0.36534 -5.692,1.19467 -8.35867,2.296 0.172,-0.76266 0.17067,-1.55733 0.15733,-2.34533 z m -0.12933,-5.36933 c -0.0533,0.16133 -0.104,0.32933 -0.15333,0.49866 -0.22934,0.78667 -0.404,1.59067 -0.51067,2.40134 -0.532,-2.39334 -1.58133,-4.71334 -2.848,-6.87867 0.296,-0.96933 0.36134,-1.99733 0.436,-3.00267 0.0373,-0.56133 0.11734,-1.108 0.21333,-1.64933 1.27067,2.716 2.984,5.36533 2.81867,8.40933 -0.003,0.084 0.0133,0.156 0.044,0.22134 z m -5.764,9.92133 c 0.004,-0.0573 0.004,-0.11867 0.005,-0.17467 0.0627,0.0387 0.12666,0.0733 0.19333,0.10133 -0.0653,0.024 -0.136,0.048 -0.19867,0.0733 z m -3.39466,1.76133 c 0.0707,-0.404 0.12666,-0.81067 0.17733,-1.21467 0.50133,-0.14666 1.04533,-0.356 1.53867,-0.62 -0.0187,0.28267 -0.044,0.56667 -0.0813,0.84667 -0.564,0.292 -1.11333,0.62267 -1.63466,0.988 z m 2.884,0.204 c 0.29733,0.368 0.66266,0.64533 1.06133,0.856 -0.56267,0.55467 -0.97467,1.264 -1.276,2.03067 -1.41733,0.91333 -3.10133,0.97466 -4.72533,1.264 1.23733,-1.784 2.96266,-3.19334 4.94,-4.15067 z m -39.48934,-1.26933 c -1.684,0.31733 -3.33866,0.85066 -4.80933,1.68933 -0.812,-0.4 -1.092,-1.97067 -1.23733,-2.728 -0.37867,-2 -0.45867,-4.052 -0.512,-6.07733 -0.056,-2.12133 -0.0413,-4.24667 -0.0973,-6.37067 -0.016,-0.67466 -0.004,-1.40133 -0.0547,-2.124 3.43733,4.61467 6.52266,9.84134 6.71066,15.61067 z m 3.87334,-47.428 c 0.0667,-0.84933 0.12933,-1.704 0.0627,-2.54933 -0.23066,-2.97467 -0.572,-5.98667 -1.26666,-8.896 -0.13334,-0.56934 -0.284,-1.124 -0.45067,-1.676 2.116,-0.204 4.15867,0.888 6.14267,1.7 -1.10534,3.952 -2.492,7.82 -4.488,11.42133 z m 10.21866,35.48533 c -0.024,3.87067 -0.19733,7.74 -0.60533,11.58933 -1.344,0.08 -2.688,0.28134 -3.95067,0.65067 -1.26266,-0.36933 -2.60533,-0.57067 -3.95466,-0.65067 -0.40934,-3.84933 -0.58134,-7.71866 -0.60267,-11.58933 -0.012,-1.94933 0.012,-3.89733 0.0587,-5.848 0.0373,-1.768 0.11066,-3.516 0.51066,-5.252 0.80267,-3.44666 2.43734,-6.65866 3.68667,-9.96133 0.10133,-0.268 0.20267,-0.53333 0.30133,-0.80133 0.1,0.268 0.20134,0.53333 0.30134,0.80133 1.25066,3.30267 2.88266,6.51467 3.68533,9.96133 0.40267,1.736 0.47333,3.484 0.51333,5.252 0.0453,1.95067 0.0693,3.89867 0.056,5.848 z m -0.432,-20.268 c 1.224,3.85867 2.65734,7.74667 3.11334,11.776 0.44533,3.94 0.0147,7.916 -0.38667,11.84534 -0.28133,2.73333 -0.55067,5.47333 -0.56133,8.22266 -0.468,-0.02 -0.94267,-0.028 -1.42267,-0.02 0.4,-3.80133 0.564,-7.61866 0.592,-11.44266 0.012,-1.856 -0.005,-3.71734 -0.0453,-5.57467 -0.04,-1.868 -0.0907,-3.7 -0.476,-5.53467 -0.72667,-3.452 -2.36134,-6.65466 -3.62134,-9.944 -0.44533,-1.17066 -0.88266,-2.34266 -1.316,-3.51866 -0.432,1.176 -0.86933,2.348 -1.31866,3.51866 -1.26,3.28934 -2.89067,6.492 -3.61734,9.944 -0.388,1.83467 -0.44266,3.66667 -0.47733,5.53467 -0.0387,1.85733 -0.06,3.71867 -0.0467,5.57467 0.0253,3.824 0.192,7.64133 0.588,11.44266 -0.47333,-0.008 -0.94933,0 -1.41733,0.02 -0.012,-2.74933 -0.28,-5.48933 -0.56,-8.22266 -0.40267,-3.92934 -0.832,-7.90534 -0.38933,-11.84534 0.452,-4.02933 1.89066,-7.91733 3.112,-11.776 1.45333,-4.57066 2.83466,-9.15466 4.12666,-13.768 1.288,4.61334 2.67334,9.19734 4.124,13.768 z m 2.73867,-26.66266 c -0.69467,2.90933 -1.03333,5.92133 -1.26533,8.896 -0.0667,0.84533 0,1.7 0.0613,2.54933 -1.99733,-3.60133 -3.37733,-7.46933 -4.48533,-11.42133 1.98266,-0.812 4.02533,-1.904 6.14266,-1.7 -0.164,0.552 -0.31733,1.10666 -0.45333,1.676 z m 7.48133,60.56266 c -1.47333,-0.83867 -3.12533,-1.372 -4.808,-1.68933 0.18534,-5.76933 3.27334,-10.996 6.70667,-15.61067 -0.0493,0.72267 -0.036,1.44934 -0.0533,2.124 -0.0533,2.124 -0.0373,4.24934 -0.0933,6.37067 -0.0547,2.02533 -0.13733,4.07733 -0.516,6.07733 -0.14133,0.75733 -0.42133,2.328 -1.236,2.728 z m 1.49334,-22.228 c 0.936,-1.15066 2.01733,-2.548 3.36666,-3.38533 0.22534,4.66533 0.89467,9.38267 0.36,14.04133 -0.49333,4.31867 -2.56666,8.25467 -4.132,12.27733 -0.096,-0.068 -0.19066,-0.13866 -0.29066,-0.20266 0.50533,-0.452 0.81466,-1.152 1.02133,-1.79734 0.56,-1.78266 0.66933,-3.70533 0.76667,-5.55333 0.11333,-2.18133 0.11333,-4.36666 0.13466,-6.55066 0.0187,-1.64134 -0.016,-3.324 0.26,-4.94667 0.0333,-0.212 0.072,-0.39467 0.144,-0.58267 0.17734,-0.46 -0.46133,-0.84666 -0.78,-0.43733 -3.948,5.08267 -7.832,10.97867 -8.05333,17.52666 -0.21733,-0.0293 -0.43067,-0.056 -0.648,-0.0813 0.35067,-2.37066 0.576,-4.75733 1.064,-7.10266 0.52667,-2.54267 1.588,-4.90667 2.77733,-7.22134 1.10267,-2.14933 2.47467,-4.10133 4.00934,-5.984 z m -0.59334,-7.744 c -0.0227,0.012 -0.04,0.0213 -0.0587,0.0307 -0.0133,-0.036 -0.0213,-0.0747 -0.0307,-0.11333 0.0307,0.0293 0.06,0.056 0.0893,0.0827 z m 0.484,5.29867 c -0.0747,0.0827 -0.14933,0.16533 -0.21866,0.248 0.004,-0.0107 0.007,-0.0213 0.008,-0.0307 0.0693,-0.0747 0.13866,-0.14533 0.21066,-0.21733 z m 3.348,-10.58 c 0.13867,1.13333 0.48667,2.244 0.728,3.36 -0.636,-0.66 -1.27333,-1.31733 -1.90933,-1.97867 -1.32,-1.376 -2.63733,-2.75733 -3.92933,-4.168 0.55466,-0.50133 1.20266,-0.92933 1.792,-1.30266 0.928,-0.584 2.156,-1.284 3.32533,-1.372 -0.0187,0.4 -0.036,0.80266 -0.0507,1.19866 -0.0467,1.40934 -0.12,2.864 0.044,4.26267 z m -6.568,-4.41867 c -1.82133,-2.08133 -3.54933,-4.24 -5.072,-6.53466 0.0413,-0.51867 0.0173,-1.052 0,-1.548 -0.0427,-1.14134 -0.19866,-2.28 -0.176,-3.42534 0.0293,-1.35466 0.23734,-2.73466 0.41067,-4.08133 0.784,0.77067 1.65867,1.468 2.4,2.27333 1.26133,1.38 1.70133,3.17334 2.43733,4.824 -0.007,0.124 -0.0133,0.24667 -0.02,0.36934 -0.0973,2.708 -0.0147,5.416 0.02,8.12266 z m -24.99733,-8.12266 c -0.007,-0.12267 -0.0133,-0.24534 -0.0173,-0.36934 0.736,-1.65066 1.176,-3.444 2.43733,-4.824 0.74133,-0.80533 1.616,-1.50266 2.4,-2.27333 0.16667,1.34667 0.38,2.72667 0.408,4.08133 0.0227,1.14534 -0.13333,2.284 -0.17333,3.42534 -0.0187,0.496 -0.0453,1.02933 0,1.548 -1.52534,2.29466 -3.25067,4.45333 -5.076,6.53466 0.0373,-2.70666 0.12133,-5.41466 0.0213,-8.12266 z m -6.71333,22.18133 c 1.34266,0.83733 2.42933,2.23467 3.36266,3.38533 1.53334,1.88267 2.90534,3.83467 4.01334,5.984 1.18533,2.31467 2.24666,4.67867 2.77733,7.22134 0.488,2.34533 0.71333,4.732 1.05867,7.10266 -0.212,0.0253 -0.43334,0.052 -0.64534,0.0813 -0.224,-6.54799 -4.10533,-12.44399 -8.05466,-17.52666 -0.31467,-0.40933 -0.95467,-0.0227 -0.77867,0.43733 0.072,0.188 0.11067,0.37067 0.14667,0.58267 0.27466,1.62267 0.236,3.30533 0.25733,4.94667 0.024,2.184 0.024,4.36933 0.13733,6.55066 0.0933,1.848 0.20667,3.77067 0.76934,5.55333 0.20133,0.64534 0.512,1.34534 1.01466,1.79734 -0.096,0.064 -0.19333,0.13466 -0.28933,0.20266 -1.56533,-4.02266 -3.63333,-7.95866 -4.132,-12.27733 -0.532,-4.65866 0.13467,-9.376 0.36267,-14.04133 z m 3.69333,1.188 c -0.0733,-0.0827 -0.14667,-0.16533 -0.21733,-0.248 0.0707,0.072 0.13733,0.14267 0.208,0.21733 0.004,0.009 0.007,0.02 0.009,0.0307 z m 0.35333,-5.62933 c -0.008,0.0387 -0.02,0.0773 -0.028,0.11333 -0.0187,-0.009 -0.04,-0.0187 -0.0627,-0.0307 0.0333,-0.0267 0.06,-0.0533 0.0907,-0.0827 z m -3.87733,-9.46134 c -0.012,-0.396 -0.032,-0.79866 -0.0533,-1.19866 1.172,0.088 2.40266,0.788 3.328,1.372 0.58933,0.37333 1.23733,0.80133 1.78666,1.30266 -1.28533,1.41067 -2.60533,2.792 -3.924,4.168 -0.63333,0.66134 -1.27066,1.31867 -1.91066,1.97867 0.24533,-1.116 0.59066,-2.22667 0.724,-3.36 0.168,-1.39867 0.0973,-2.85333 0.0493,-4.26267 z m 3.93733,42.064 c 2.10667,-1.76 4.78267,-2.612 7.52534,-2.86667 2.45333,-0.22666 5.18,-0.14666 7.57066,0.65734 2.38667,-0.804 5.11867,-0.884 7.57067,-0.65734 2.74267,0.25467 5.41733,1.10667 7.52267,2.86667 2.336,1.95333 3.552,5.06933 4.07333,7.93867 0.576,3.20933 0.15467,6.484 -0.64,9.616 -0.52133,0.43066 -1.00933,0.90133 -1.41867,1.43866 -0.0187,-0.007 -0.036,-0.0147 -0.0533,-0.0187 0.904,-2.756 0.86533,-5.724 0.26267,-8.53734 -0.568,-2.65866 -1.66134,-5.20533 -3.67334,-7.13466 -1.78533,-1.71067 -4.19333,-2.64134 -6.62266,-3.09467 -1.52134,-0.28267 -3.03867,-0.32933 -4.56134,-0.0267 -0.848,0.164 -1.66533,0.43067 -2.46,0.75734 -0.79333,-0.32667 -1.61333,-0.59334 -2.46133,-0.75734 -1.52267,-0.30266 -3.03733,-0.256 -4.55867,0.0267 -2.432,0.45333 -4.84133,1.384 -6.62666,3.09467 -2.00934,1.92933 -3.108,4.476 -3.67067,7.13466 -0.604,2.81334 -0.64267,5.78134 0.264,8.53734 -0.02,0.004 -0.0387,0.012 -0.0533,0.0187 -0.41467,-0.53733 -0.9,-1.008 -1.42,-1.43866 -0.79334,-3.132 -1.21867,-6.40667 -0.63867,-9.616 0.516,-2.86934 1.73467,-5.98534 4.06933,-7.93867 z M 404.55466,401.48 c 0.49333,0.264 1.03466,0.47334 1.54133,0.62 0.0467,0.404 0.10533,0.81067 0.17467,1.21467 -0.52534,-0.36533 -1.07067,-0.696 -1.63467,-0.988 -0.0387,-0.28 -0.0613,-0.564 -0.0813,-0.84667 z m -1.87867,0 c 0.0707,-0.028 0.13333,-0.0627 0.19333,-0.10133 0.003,0.056 0.004,0.11733 0.007,0.17467 -0.0667,-0.0253 -0.12933,-0.0493 -0.2,-0.0733 z m 0.71333,2.03867 c 1.97467,0.95733 3.70134,2.36667 4.93734,4.15067 -1.62534,-0.28934 -3.30534,-0.35067 -4.72667,-1.264 -0.3,-0.76667 -0.71333,-1.476 -1.272,-2.03067 0.40133,-0.21067 0.76,-0.488 1.06133,-0.856 z m -3.41733,-20.51733 c 0.0987,0.54133 0.17467,1.088 0.21867,1.64933 0.072,1.00534 0.136,2.03334 0.43466,3.00267 -1.26933,2.16533 -2.32,4.48533 -2.85066,6.87867 -0.10667,-0.81067 -0.28134,-1.61467 -0.508,-2.40134 -0.048,-0.16933 -0.0973,-0.33733 -0.152,-0.49866 0.0293,-0.0653 0.044,-0.13734 0.0373,-0.22134 -0.164,-3.044 1.55067,-5.69333 2.82,-8.40933 z m -2.83333,16.34533 c -2.66667,-1.10133 -5.484,-1.93066 -8.35467,-2.296 -0.53333,-1.876 -1.20133,-3.71466 -2.04133,-5.484 -0.324,-0.684 -0.668,-1.36266 -1.04,-2.03066 2.10666,0.23733 4.18133,1.11333 5.99866,2.072 1.87467,0.98933 3.70934,2.18933 5.22,3.668 0.0507,0.56933 0.0693,1.14133 0.0587,1.72533 -0.008,0.788 -0.012,1.58267 0.15867,2.34533 z m 36.532,46.81867 c -0.132,1.02133 -0.24134,2.048 -0.32934,3.07733 -0.0907,-1.02933 -0.19733,-2.056 -0.32666,-3.07733 0.10933,-0.0267 0.21733,-0.056 0.32666,-0.088 0.108,0.032 0.21734,0.0613 0.32934,0.088 z m -0.32934,-1.92934 c -0.36266,0.24667 -0.804,0.39867 -1.27466,0.39867 -1.21734,0 -2.23467,-0.98933 -2.23467,-2.16267 0,-1.18 1.01733,-2.16533 2.23467,-2.16533 0.47066,0 0.912,0.14933 1.27466,0.40133 0.36267,-0.252 0.804,-0.40133 1.276,-0.40133 1.21734,0 2.23467,0.98533 2.23467,2.16533 0,1.17334 -1.01733,2.16267 -2.23467,2.16267 -0.472,0 -0.91333,-0.152 -1.276,-0.39867 z m 59.736,-26.63333 c 1.34,3.19867 1.92533,6.72 2.09867,10.16 -0.85734,4.73733 -3.132,9.04267 -6.45467,12.71867 -2.41467,2.67466 -5.25467,4.94666 -8.276,6.97466 1.476,-1.85466 2.58933,-3.97866 3.34667,-6.212 0.168,-0.50666 0.31733,-1.01466 0.44533,-1.51866 0.1,0.012 0.208,-0.012 0.31333,-0.0907 3.696,-2.77467 6.19067,-6.49333 7.55867,-10.80533 0.71333,-2.244 1.1,-4.50667 1.11733,-6.84934 0.007,-1.45866 -0.0893,-2.91866 -0.14933,-4.37733 z m -21.316,-34.69866 c 0.088,0.65066 0.35733,1.26666 0.772,1.77733 -0.65333,1.09467 -1.16933,2.24533 -1.63067,3.42933 -0.192,0.496 -0.392,0.988 -0.59066,1.48267 -0.476,-2.86267 -2.21867,-5.39867 -3.284,-8.12 0.072,-0.30133 0.14266,-0.604 0.21733,-0.90667 0.456,-1.89066 0.89067,-3.908 1.676,-5.72533 1.05467,2.124 2.25467,4.216 2.972,6.46133 -0.10667,0.34134 -0.164,0.70267 -0.15733,1.06667 -0.007,0.17733 0.004,0.35733 0.0253,0.53467 z m -10.88533,-23.12267 c 1.21867,0 2.23733,0.98267 2.23733,2.16267 0,1.17733 -1.01866,2.15866 -2.23733,2.15866 -1.21867,0 -2.232,-0.98133 -2.232,-2.15866 0,-1.18 1.01333,-2.16267 2.232,-2.16267 z m -2.92667,-0.16133 c -0.6,0.748 -0.872,1.708 -0.75066,2.64666 0.124,0.94 0.63333,1.80667 1.40933,2.384 0.332,0.25067 0.67067,0.416 1.01333,0.52534 -0.21466,0.90533 -0.372,1.82933 -0.53466,2.74133 -0.0627,0.36533 -0.132,0.724 -0.19734,1.08933 -0.50533,-0.89066 -1.092,-1.73866 -1.74133,-2.54533 -0.87333,-1.09867 -2.09733,-1.83733 -3.05867,-2.83467 0.0627,-1.27333 0.164,-2.54266 0.288,-3.81066 0.15067,-1.53467 0.316,-3.07867 0.54667,-4.6 0.18133,-1.20134 0.552,-2.368 0.95067,-3.51734 1.18,2.29867 2.576,4.52934 3.02933,7.072 -0.37867,0.24534 -0.71467,0.548 -0.95467,0.84934 z m -21.27733,-30.644 v -0.12534 c 0,-0.572 0.23733,-1.12666 0.656,-1.53066 0.416,-0.40267 0.98533,-0.632 1.57867,-0.632 0.592,0 1.16266,0.22933 1.57733,0.632 0.42133,0.404 0.65467,0.95866 0.65467,1.53066 v 0.12534 c 0,0.57066 -0.23334,1.124 -0.65467,1.52933 -0.41467,0.40267 -0.98533,0.63333 -1.57733,0.63333 -0.59334,0 -1.16267,-0.23066 -1.57867,-0.63333 -0.41867,-0.40533 -0.656,-0.95867 -0.656,-1.52933 z m 0.37067,2.78666 c 0.59866,0.3 1.212,0.376 1.90933,0.38934 0.0613,0.0667 0.15467,0.11066 0.28667,0.11066 1.85733,0.007 3.69333,0.15067 5.45866,0.70134 -0.45466,0.85866 -0.94666,1.69866 -1.392,2.51466 -0.956,1.748 -1.75333,3.51467 -2.37333,5.364 -2.31067,-0.31733 -4.50267,0.836 -6.652,1.70267 -0.04,-0.15867 -0.0853,-0.31867 -0.128,-0.47733 0.54667,-1.94534 0.86533,-3.936 1.304,-5.90134 0.21467,-0.96933 0.468,-1.90533 0.888,-2.80666 0.24667,-0.52667 0.51467,-1.04934 0.69867,-1.59734 z m -5.51067,-3.888 c 0.464,-0.98266 1.08933,-1.84666 1.80933,-2.62666 0.72134,0.78 1.344,1.644 1.808,2.62666 -0.0827,0.384 -0.1,0.78134 -0.0467,1.176 0.108,0.832 0.524,1.608 1.156,2.17867 -0.17067,0.688 -0.53867,1.33867 -0.84,1.97467 -0.38934,0.83466 -0.60267,1.72533 -0.81334,2.616 -0.34533,1.46533 -0.59066,2.94933 -0.91866,4.416 -0.12,-0.47867 -0.23334,-0.95334 -0.34534,-1.43067 -0.116,0.47733 -0.228,0.952 -0.344,1.43067 -0.332,-1.46667 -0.57733,-2.95067 -0.92133,-4.416 -0.20933,-0.89067 -0.42533,-1.78134 -0.812,-2.616 -0.29733,-0.636 -0.67333,-1.28667 -0.84,-1.97467 0.636,-0.57067 1.048,-1.34667 1.15733,-2.17867 0.052,-0.39466 0.032,-0.792 -0.0493,-1.176 z m -5.33733,2.63067 c -0.416,-0.40533 -0.652,-0.95867 -0.652,-1.52933 v -0.12534 c 0,-0.572 0.236,-1.12666 0.652,-1.53066 0.41866,-0.40267 0.992,-0.632 1.58266,-0.632 0.58667,0 1.16,0.22933 1.576,0.632 0.41734,0.404 0.65334,0.95866 0.65334,1.53066 v 0.12534 c 0,0.57066 -0.236,1.124 -0.65334,1.52933 -0.416,0.40267 -0.98933,0.63333 -1.576,0.63333 -0.59066,0 -1.164,-0.23066 -1.58266,-0.63333 z m 1.24933,1.75733 c 0.13067,0 0.224,-0.044 0.28667,-0.11066 0.696,-0.0133 1.30933,-0.0893 1.908,-0.38934 0.18,0.548 0.45066,1.07067 0.69466,1.59734 0.42534,0.90133 0.67734,1.83733 0.892,2.80666 0.43734,1.96534 0.756,3.956 1.30267,5.90134 -0.0413,0.15866 -0.0813,0.31866 -0.12667,0.47733 -2.148,-0.86667 -4.34266,-2.02 -6.652,-1.70267 -0.62,-1.84933 -1.41866,-3.616 -2.372,-5.364 -0.444,-0.816 -0.94133,-1.656 -1.39733,-2.51466 1.76933,-0.55067 3.604,-0.69467 5.464,-0.70134 z m -21.63867,31.84 c -1.22,0 -2.23466,-0.98133 -2.23466,-2.15866 0,-1.18 1.01466,-2.16267 2.23466,-2.16267 1.216,0 2.232,0.98267 2.232,2.16267 0,1.17733 -1.016,2.15866 -2.232,2.15866 z m 2.26667,0.548 c 0.77733,-0.57733 1.28667,-1.444 1.40933,-2.384 0.12134,-0.93866 -0.14933,-1.89866 -0.74666,-2.64666 -0.24134,-0.30134 -0.576,-0.604 -0.95734,-0.84934 0.452,-2.54266 1.85334,-4.77333 3.028,-7.072 0.40134,1.14934 0.768,2.316 0.95067,3.51734 0.23067,1.52133 0.396,3.06533 0.548,4.6 0.12267,1.268 0.22533,2.53733 0.28667,3.81066 -0.96134,0.99734 -2.184,1.736 -3.05867,2.83467 -0.64533,0.80667 -1.232,1.65467 -1.74133,2.54533 -0.0627,-0.36533 -0.13067,-0.724 -0.19467,-1.08933 -0.16667,-0.912 -0.31733,-1.836 -0.536,-2.74133 0.34533,-0.10934 0.68,-0.27467 1.012,-0.52534 z m -13.28133,16.652 c 0.716,-2.24533 1.91466,-4.33733 2.968,-6.46133 0.78666,1.81733 1.22133,3.83467 1.67466,5.72533 0.0747,0.30267 0.15067,0.60534 0.21734,0.90667 -1.06534,2.72133 -2.80267,5.25733 -3.28534,8.12 -0.192,-0.49467 -0.39333,-0.98667 -0.58666,-1.48267 -0.46534,-1.184 -0.97734,-2.33466 -1.63467,-3.42933 0.41867,-0.51067 0.69067,-1.12667 0.776,-1.77733 0.0253,-0.17734 0.032,-0.35734 0.028,-0.53467 0.004,-0.364 -0.0533,-0.72533 -0.15733,-1.06667 z m -20.21867,47.52667 c 1.36933,4.312 3.86267,8.03066 7.56,10.80533 0.10667,0.0787 0.212,0.10267 0.31467,0.0907 0.128,0.504 0.276,1.012 0.44533,1.51866 0.75467,2.23334 1.86667,4.35734 3.348,6.212 -3.02267,-2.028 -5.86267,-4.3 -8.28133,-6.97466 -3.32267,-3.676 -5.59734,-7.98134 -6.45067,-12.71867 0.16933,-3.44 0.75467,-6.96133 2.096,-10.16 -0.064,1.45867 -0.15467,2.91867 -0.14667,4.37733 0.0147,2.34267 0.404,4.60534 1.11467,6.84934 z m 121.44533,-33.92 c 1.68533,1.19467 2.472,3.25333 2.54533,5.21866 -2.00666,1.33334 -3.06133,3.70934 -3.72133,5.916 -0.89733,3.00934 -1.12267,6.17067 -1.03733,9.292 -0.11334,-0.22 -0.23067,-0.44133 -0.34934,-0.65733 0.007,-0.12 -0.02,-0.25067 -0.088,-0.38533 -1.53333,-3.088 -2.95333,-6.26934 -3.45066,-9.68667 -0.25867,-1.75067 -0.20534,-3.51333 0.11866,-5.252 0.26267,-1.428 0.724,-2.87466 1.668,-4.02533 1.14667,-1.39067 2.89067,-1.42533 4.31467,-0.42 z m 3.40533,6.63866 c 1.54934,-1.12933 3.54934,-0.984 4.97867,0.23867 1.41333,1.21467 1.74933,3.23867 1.57733,4.96533 -0.0147,0.17467 0.0147,0.32534 0.0813,0.44934 -0.52267,0.55466 -0.93867,1.204 -1.312,1.84933 -0.668,1.15733 -1.12667,2.42133 -1.576,3.66933 -0.66,1.832 -1.16934,3.71467 -1.62,5.60667 -0.88534,3.75467 -1.468,7.56933 -2.36934,11.32267 -0.48666,2.02933 -1.152,4.012 -1.86266,5.98133 -0.22134,0.364 -0.44534,0.728 -0.67067,1.088 0.0453,-0.084 0.076,-0.18933 0.088,-0.30933 0.0227,-0.27334 0.0467,-0.55334 0.0693,-0.832 0.27867,-1.41734 0.56,-2.856 0.544,-4.28934 0.0133,-0.096 0.02,-0.192 0.0333,-0.28666 0.0853,-0.12934 0.13066,-0.284 0.13066,-0.46667 0,-0.19333 -0.007,-0.38933 -0.0133,-0.58267 0.007,-0.0507 0.0107,-0.0973 0.0133,-0.14933 0.0133,-0.12667 -0.005,-0.24267 -0.04,-0.34267 -0.21066,-3.39333 -1.23866,-6.68933 -1.668,-10.06666 -0.43333,-3.38267 -0.49333,-6.832 0.0467,-10.21334 0.41867,-2.652 1.23067,-5.936 3.56933,-7.632 z m 1.66667,-2.35999 c -0.0227,0 -0.0413,10e-4 -0.064,0.004 -0.003,-0.0667 -0.005,-0.13067 -0.0107,-0.19467 0.0333,0.0547 0.0573,0.124 0.0747,0.19067 z m 8.83867,8.39733 c 1.284,0.48 2.01733,1.66 2.38533,2.89066 0.19867,0.66267 0.21467,1.43467 -0.0307,2.08934 -1.164,0.72666 -2.08266,1.78 -2.91333,2.84266 -1.17867,1.516 -2.23067,3.124 -3.216,4.76267 -1.86933,3.116 -3.484,6.36 -5.27467,9.51867 0.15334,-0.612 0.304,-1.22267 0.43467,-1.84134 0.82133,-3.78133 1.42667,-7.60533 2.42933,-11.348 0.452,-1.67333 1.01334,-3.32 1.66534,-4.93333 0.45466,-1.12933 0.99733,-2.23733 1.808,-3.16667 0.71333,-0.81733 1.64666,-1.21066 2.712,-0.81466 z m 7.37866,5.952 c 0,0.003 10e-4,0.003 0.004,0.009 0.20134,0.176 0.4,0.35067 0.60134,0.528 0.30666,0.35467 0.532,0.808 0.65333,1.32933 0.25733,1.12 0.0813,2.31467 -0.24533,3.408 -0.44934,0.24267 -0.88934,0.5 -1.32934,0.772 -1.49866,0.916 -2.90666,1.97067 -4.264,3.08 -2.79733,2.27867 -5.35066,4.82 -7.95733,7.29867 -1.504,1.43467 -3.05467,2.81333 -4.63067,4.172 0.84267,-1.40133 1.72134,-2.78267 2.52534,-4.20667 1.86266,-3.296 3.52666,-6.70266 5.54,-9.91866 0.98933,-1.58 2.056,-3.14534 3.27866,-4.56 0.828,-0.96267 1.87867,-1.76534 3.112,-2.17734 1.00134,-0.34133 1.97067,-0.212 2.712,0.26534 z m 7.32,6.04933 c 0.18,0.14933 0.35867,0.29733 0.53867,0.44667 0.0973,0.10266 0.19333,0.216 0.28,0.34 1.21867,1.71333 0.75467,4.24933 0.0587,6.12933 -1.95867,0.74267 -3.928,1.444 -5.87067,2.184 -5.68933,2.16667 -11.328,4.48 -16.7,7.31733 -1.704,0.90534 -3.38267,1.85734 -5.01467,2.876 0.092,-0.248 0.18134,-0.496 0.27334,-0.748 1.412,-1.512 3.13466,-2.80266 4.676,-4.16533 2.668,-2.356 5.15866,-4.892 7.77733,-7.296 2.59333,-2.38267 5.328,-4.66133 8.42533,-6.40667 1.58,-0.89066 3.952,-1.68933 5.556,-0.67733 z m 1.69067,-4.26 C 520.90665,410.04934 515.07865,405.2 509.49065,400.1 c -6.97333,-6.36133 -13.98266,-12.69066 -20.68266,-19.32666 -21.42667,-21.22933 -36.33867,-47.22267 -51.4,-72.66 -1.08933,-1.836 -2.42133,-5.02533 -4.06667,-8.11333 -1.644,3.088 -2.97866,6.27733 -4.06533,8.11333 -15.06,25.43733 -29.972,51.43067 -51.40267,72.66 -6.69866,6.636 -13.712,12.96533 -20.68133,19.32666 -5.58933,5.1 -11.41467,9.94934 -16.83067,15.22667 -2.69333,2.62933 -12.12933,9.12133 -8.52533,13.636 2.308,2.89733 5.09867,5.692 7.75467,8.33333 5.61066,5.568 11.75866,10.60534 17.60133,15.936 6.96933,6.36134 13.98267,12.69334 20.68133,19.32947 21.43067,21.2292 36.34267,47.2224 51.40267,72.65826 1.08667,1.836 2.42133,5.024 4.06533,8.1136 1.64534,-3.0896 2.97734,-6.2776 4.06667,-8.1136 15.06133,-25.43586 29.97333,-51.42906 51.4,-72.65826 6.7,-6.63613 13.70933,-12.96813 20.68266,-19.32947 5.844,-5.33066 11.99067,-10.368 17.59467,-15.936 2.66133,-2.64133 5.45067,-5.436 7.76133,-8.33333 3.604,-4.51467 -5.83066,-11.00667 -8.52933,-13.636"
       style="fill:#ff1939;fill-opacity:1;fill-rule:nonzero;stroke:none;stroke-width:0.133333" />
    <path
       id="path3"
       d="m 370.12132,416.47734 c -0.004,0.003 -0.005,0.004 -0.008,0.004 0.003,0 0.004,-10e-4 0.008,-0.004 v 0"
       style="fill:#ff1939;fill-opacity:1;fill-rule:nonzero;stroke:none;stroke-width:0.133333" />
    <path
       id="path4"
       d="m 496.56799,416.48134 c -0.004,0 -0.004,-10e-4 -0.007,-0.004 v 0 c 0.003,0.003 0.003,0.004 0.007,0.004"
       style="fill:#ff1939;fill-opacity:1;fill-rule:nonzero;stroke:none;stroke-width:0.133333" />
  </g>
</svg>
