<?xml version="1.0" encoding="UTF-8" standalone="no"?>
<svg
   height="626.09326mm"
   viewBox="-58.35 -186.70564 2000.0055 1992.6"
   width="553.7533mm"
   version="1.1"
   id="svg5"
   sodipodi:docname="tiktok.svg"
   inkscape:version="1.3.2 (091e20e, 2023-11-25, custom)"
   xmlns:inkscape="http://www.inkscape.org/namespaces/inkscape"
   xmlns:sodipodi="http://sodipodi.sourceforge.net/DTD/sodipodi-0.dtd"
   xmlns="http://www.w3.org/2000/svg"
   xmlns:svg="http://www.w3.org/2000/svg">
  <defs
     id="defs5" />
  <sodipodi:namedview
     id="namedview5"
     pagecolor="#ffffff"
     bordercolor="#000000"
     borderopacity="0.25"
     inkscape:showpageshadow="2"
     inkscape:pageopacity="0.0"
     inkscape:pagecheckerboard="0"
     inkscape:deskcolor="#d1d1d1"
     inkscape:document-units="mm"
     inkscape:zoom="0.43363915"
     inkscape:cx="842.8667"
     inkscape:cy="1246.4281"
     inkscape:window-width="3840"
     inkscape:window-height="2054"
     inkscape:window-x="3829"
     inkscape:window-y="137"
     inkscape:window-maximized="1"
     inkscape:current-layer="svg5" />
  <g
     id="g5"
     transform="translate(-58.344468,-321.04449)">
    <g
       fill="#25f4ee"
       id="g2">
      <path
         d="m 779.38,890.55 v -88.12 a 650.81,650.81 0 0 0 -92.45,-7.94 c -299.8,-0.64 -565.22,193.64 -655.25,479.6 -90.03,285.96 16.24,597.25 262.32,768.47 a 684.7,684.7 0 0 1 485.36,-1152 z"
         id="path1" />
      <path
         d="m 796,1888.72 c 167.62,-0.23 305.4,-132.28 312.74,-299.74 V 94.62 h 273 A 512.17,512.17 0 0 1 1373.8,0 h -373.41 v 1492.92 c -6.21,168.31 -144.32,301.63 -312.74,301.9 A 317.76,317.76 0 0 1 543.2,1758.71 313.48,313.48 0 0 0 796,1888.72 Z M 1891.66,601.64 v -83.06 a 509.85,509.85 0 0 1 -282.4,-85.22 517.79,517.79 0 0 0 282.4,168.28 z"
         id="path2" />
    </g>
    <path
       d="M 1609.26,433.36 A 514.19,514.19 0 0 1 1481.42,93.89 h -99.68 a 517.16,517.16 0 0 0 227.52,339.47 z M 686.93,1167.9 A 313.46,313.46 0 0 0 542.47,1758.71 312.75,312.75 0 0 1 796,1262.51 329.69,329.69 0 0 1 888.44,1277 V 897.05 A 654.77,654.77 0 0 0 796,889.83 h -16.62 v 288.9 a 321.13,321.13 0 0 0 -92.45,-10.83 z"
       fill="#fe2c55"
       id="path3" />
    <path
       d="M 1891.66,601.64 V 890.55 A 886.23,886.23 0 0 1 1373.8,722.26 v 759.1 c -0.8,378.78 -308.09,685.43 -686.87,685.43 A 679.65,679.65 0 0 1 294,2042.56 685.43,685.43 0 0 0 1481.42,1576 V 819.05 A 887.71,887.71 0 0 0 2000,985.17 v -372 a 529.59,529.59 0 0 1 -108.34,-11.53 z"
       fill="#fe2c55"
       id="path4" />
    <path
       d="m 1373.8,1481.36 v -759.1 a 886.11,886.11 0 0 0 518.58,166.12 V 599.48 A 517.87,517.87 0 0 1 1609.26,433.36 517.16,517.16 0 0 1 1381.74,93.89 h -273 V 1589 a 313.46,313.46 0 0 1 -567,171.17 313.46,313.46 0 0 1 144.46,-590.83 321.35,321.35 0 0 1 92.45,14.45 V 894.88 A 684.71,684.71 0 0 0 293.29,2050.5 679.65,679.65 0 0 0 686.93,2166.79 c 378.78,0 686.07,-306.65 686.87,-685.43 z"
       id="path5" />
  </g>
</svg>
