<?xml version="1.0" encoding="UTF-8" standalone="no"?>
<!-- Created with Inkscape (http://www.inkscape.org/) -->

<svg
   width="188.67737"
   height="28.00001"
   viewBox="0 0 188.67737 28.00001"
   version="1.1"
   id="svg5"
   inkscape:version="1.1.2 (0a00cf5339, 2022-02-04, custom)"
   sodipodi:docname="XCWalker - V.3 (White).svg"
   xmlns:inkscape="http://www.inkscape.org/namespaces/inkscape"
   xmlns:sodipodi="http://sodipodi.sourceforge.net/DTD/sodipodi-0.dtd"
   xmlns="http://www.w3.org/2000/svg"
   xmlns:svg="http://www.w3.org/2000/svg">
  <sodipodi:namedview
     id="namedview7"
     pagecolor="#505050"
     bordercolor="#ffffff"
     borderopacity="1"
     inkscape:pageshadow="0"
     inkscape:pageopacity="0"
     inkscape:pagecheckerboard="1"
     inkscape:document-units="px"
     showgrid="false"
     inkscape:zoom="4.5464756"
     inkscape:cx="91.279495"
     inkscape:cy="43.330266"
     inkscape:window-width="1920"
     inkscape:window-height="1009"
     inkscape:window-x="-8"
     inkscape:window-y="-8"
     inkscape:window-maximized="1"
     inkscape:current-layer="layer1" />
  <defs
     id="defs2" />
  <g
     inkscape:label="Layer 1"
     inkscape:groupmode="layer"
     id="layer1"
     transform="translate(-326.55722,-241.99999)">
    <path
       id="path3979"
       style="font-weight:bold;font-size:28px;line-height:1.25;font-family:Montserrat;-inkscape-font-specification:'Montserrat Bold';text-align:center;text-anchor:middle;fill:#ffffff;fill-opacity:1"
       d="M 0 0 L 0 28 L 10 28 L 10 25 L 7 25 L 3 25 L 3 3 L 7 3 L 10 3 L 10 0 L 0 0 z M 178.67773 0 L 178.67773 3 L 181.67773 3 L 185.67773 3 L 185.67773 25 L 181.67773 25 L 178.67773 25 L 178.67773 28 L 188.67773 28 L 188.67773 0 L 178.67773 0 z M 40.939453 3.8632812 C 39.408786 3.8632812 38.000891 4.1151406 36.712891 4.6191406 C 35.424891 5.104474 34.294885 5.8060365 33.324219 6.7207031 C 32.372219 7.6353698 31.625318 8.7074531 31.083984 9.9394531 C 30.561318 11.171453 30.300781 12.525333 30.300781 14 C 30.300781 15.474667 30.561318 16.828547 31.083984 18.060547 C 31.625318 19.292547 32.372219 20.36463 33.324219 21.279297 C 34.276219 22.193964 35.395594 22.904203 36.683594 23.408203 C 37.99026 23.893536 39.400109 24.136719 40.912109 24.136719 C 42.629443 24.136719 44.168583 23.837568 45.53125 23.240234 C 46.912583 22.642901 48.070573 21.775385 49.003906 20.636719 L 46.091797 17.947266 C 45.419797 18.731266 44.672897 19.320891 43.851562 19.712891 C 43.030229 20.086224 42.134729 20.271484 41.164062 20.271484 C 40.249396 20.271484 39.409865 20.122885 38.644531 19.824219 C 37.879198 19.525552 37.21625 19.095156 36.65625 18.535156 C 36.09625 17.975156 35.657177 17.314161 35.339844 16.548828 C 35.041177 15.783495 34.892578 14.933333 34.892578 14 C 34.892578 13.066667 35.041177 12.216505 35.339844 11.451172 C 35.657177 10.685839 36.09625 10.024844 36.65625 9.4648438 C 37.21625 8.9048437 37.879198 8.474448 38.644531 8.1757812 C 39.409865 7.8771147 40.249396 7.7285156 41.164062 7.7285156 C 42.134729 7.7285156 43.030229 7.9244063 43.851562 8.3164062 C 44.672897 8.6897396 45.419797 9.2581037 46.091797 10.023438 L 49.003906 7.3359375 C 48.070573 6.1972708 46.912583 5.3384323 45.53125 4.7597656 C 44.168583 4.1624323 42.63812 3.8632812 40.939453 3.8632812 z M 10.363281 4.1992188 L 17.238281 13.820312 L 10 23.800781 L 15.207031 23.800781 L 19.863281 16.988281 L 24.587891 23.800781 L 29.824219 23.800781 L 22.511719 13.664062 L 29.347656 4.1992188 L 24.419922 4.1992188 L 20.009766 10.544922 L 15.515625 4.1992188 L 10.363281 4.1992188 z M 50.246094 4.1992188 L 56.658203 23.800781 L 61.53125 23.800781 L 65.972656 10.521484 L 70.294922 23.800781 L 75.166016 23.800781 L 81.578125 4.1992188 L 77.238281 4.1992188 L 72.671875 18.080078 L 68.195312 4.1992188 L 63.994141 4.1992188 L 59.373047 17.974609 L 54.951172 4.1992188 L 50.246094 4.1992188 z M 89.609375 4.1992188 L 80.873047 23.800781 L 85.521484 23.800781 L 87.267578 19.599609 L 96.353516 19.599609 L 98.09375 23.800781 L 102.85352 23.800781 L 94.089844 4.1992188 L 89.609375 4.1992188 z M 104.89648 4.1992188 L 104.89648 23.800781 L 119.26172 23.800781 L 119.26172 20.103516 L 109.43359 20.103516 L 109.43359 4.1992188 L 104.89648 4.1992188 z M 121.80859 4.1992188 L 121.80859 23.800781 L 126.31836 23.800781 L 126.31836 18.851562 L 128.94336 16.109375 L 135.2207 23.800781 L 140.51367 23.800781 L 131.92383 12.933594 L 140.03711 4.1992188 L 134.99805 4.1992188 L 126.31836 13.345703 L 126.31836 4.1992188 L 121.80859 4.1992188 z M 142.5293 4.1992188 L 142.5293 23.800781 L 157.70508 23.800781 L 157.70508 20.160156 L 147.03711 20.160156 L 147.03711 15.623047 L 156.13672 15.623047 L 156.13672 12.095703 L 147.03711 12.095703 L 147.03711 7.8398438 L 157.3418 7.8398438 L 157.3418 4.1992188 L 142.5293 4.1992188 z M 161.31641 4.1992188 L 161.31641 23.800781 L 165.85352 23.800781 L 165.85352 18.339844 L 169.80078 18.339844 C 169.87234 18.339844 169.94097 18.336869 170.01172 18.335938 L 173.77734 23.800781 L 178.67773 23.800781 L 174.29883 17.515625 C 174.31155 17.510089 174.32521 17.505592 174.33789 17.5 C 175.60722 16.94 176.58668 16.13713 177.27734 15.091797 C 177.96801 14.027797 178.3125 12.7685 178.3125 11.3125 C 178.3125 9.8378333 177.96801 8.5679064 177.27734 7.5039062 C 176.58668 6.4399062 175.60722 5.6283594 174.33789 5.0683594 C 173.06856 4.4896927 171.55545 4.1992187 169.80078 4.1992188 L 161.31641 4.1992188 z M 165.85352 7.8964844 L 169.54883 7.8964844 C 170.94883 7.8964844 171.99488 8.1956354 172.68555 8.7929688 C 173.37621 9.390302 173.7207 10.229833 173.7207 11.3125 C 173.7207 12.3765 173.37621 13.216031 172.68555 13.832031 C 171.99488 14.429365 170.94883 14.728516 169.54883 14.728516 L 165.85352 14.728516 L 165.85352 7.8964844 z M 91.820312 8.6542969 L 94.927734 16.15625 L 88.699219 16.15625 L 91.820312 8.6542969 z "
       transform="translate(326.55722,241.99999)" />
  </g>
</svg>
